<mxfile host="app.diagrams.net" agent="Mozilla/5.0 (Macintosh; Intel Mac OS X 10_15_7) AppleWebKit/537.36 (KHTML, like Gecko) Chrome/134.0.0.0 Safari/537.36" version="26.1.2">
  <diagram name="Side-1" id="EfzvUynkgZ6WZ5kLGgKl">
    <mxGraphModel dx="1242" dy="785" grid="1" gridSize="10" guides="1" tooltips="1" connect="1" arrows="1" fold="1" page="1" pageScale="1" pageWidth="827" pageHeight="1169" math="0" shadow="0">
      <root>
        <mxCell id="0" />
        <mxCell id="1" parent="0" />
        <mxCell id="KJkxDrLsRBGmN8-yk9LA-2" value="" style="verticalLabelPosition=bottom;html=1;verticalAlign=top;align=center;strokeColor=none;fillColor=#00BEF2;shape=mxgraph.azure.user;" vertex="1" parent="1">
          <mxGeometry x="60" y="346.50000000000006" width="30" height="30" as="geometry" />
        </mxCell>
        <mxCell id="KJkxDrLsRBGmN8-yk9LA-3" value="Opbevaring.nu" style="shape=image;verticalLabelPosition=bottom;labelBackgroundColor=#ffffff;verticalAlign=top;aspect=fixed;imageAspect=0;image=data:image/svg+xml,PHN2ZyB4bWxuczpjYz0iaHR0cDovL2NyZWF0aXZlY29tbW9ucy5vcmcvbnMjIiB4bWxuczpkYz0iaHR0cDovL3B1cmwub3JnL2RjL2VsZW1lbnRzLzEuMS8iIHhtbG5zOmlua3NjYXBlPSJodHRwOi8vd3d3Lmlua3NjYXBlLm9yZy9uYW1lc3BhY2VzL2lua3NjYXBlIiB4bWxuczpyZGY9Imh0dHA6Ly93d3cudzMub3JnLzE5OTkvMDIvMjItcmRmLXN5bnRheC1ucyMiIHhtbG5zOnNvZGlwb2RpPSJodHRwOi8vc29kaXBvZGkuc291cmNlZm9yZ2UubmV0L0RURC9zb2RpcG9kaS0wLmR0ZCIgeG1sbnM6c3ZnPSJodHRwOi8vd3d3LnczLm9yZy8yMDAwL3N2ZyIgeG1sbnM9Imh0dHA6Ly93d3cudzMub3JnLzIwMDAvc3ZnIiB4bWxuczp4bGluaz0iaHR0cDovL3d3dy53My5vcmcvMTk5OS94bGluayIgdmVyc2lvbj0iMS4xIiBpZD0ic3ZnMTEzOTA3IiBpbmtzY2FwZTp2ZXJzaW9uPSIwLjkyLjMgKDI0MDU1NDYsIDIwMTgtMDMtMTEpIiBzb2RpcG9kaTpkb2NuYW1lPSJ3ZWJwYWdlLnN2ZyIgeD0iMHB4IiB5PSIwcHgiIHZpZXdCb3g9IjAgMCA3OC43NSAzOC4xIiBzdHlsZT0iZW5hYmxlLWJhY2tncm91bmQ6bmV3IDAgMCA3OC43NSAzOC4xOyIgeG1sOnNwYWNlPSJwcmVzZXJ2ZSI+JiN4YTs8c29kaXBvZGk6bmFtZWR2aWV3IGJvcmRlcmNvbG9yPSIjNjY2NjY2IiBib3JkZXJvcGFjaXR5PSIxIiBmaXQtbWFyZ2luLWJvdHRvbT0iMCIgZml0LW1hcmdpbi1sZWZ0PSIwIiBmaXQtbWFyZ2luLXJpZ2h0PSIwIiBmaXQtbWFyZ2luLXRvcD0iMCIgZ3JpZHRvbGVyYW5jZT0iMTAiIGd1aWRldG9sZXJhbmNlPSIxMCIgaWQ9Im5hbWVkdmlldzExMzkwOSIgaW5rc2NhcGU6Y3VycmVudC1sYXllcj0ic3ZnMTEzOTA3IiBpbmtzY2FwZTpjeD0iNTIuNSIgaW5rc2NhcGU6Y3k9IjI1LjM5NzI2OCIgaW5rc2NhcGU6cGFnZW9wYWNpdHk9IjAiIGlua3NjYXBlOnBhZ2VzaGFkb3c9IjIiIGlua3NjYXBlOndpbmRvdy1oZWlnaHQ9IjEwMTciIGlua3NjYXBlOndpbmRvdy1tYXhpbWl6ZWQ9IjEiIGlua3NjYXBlOndpbmRvdy13aWR0aD0iMTkyMCIgaW5rc2NhcGU6d2luZG93LXg9Ii04IiBpbmtzY2FwZTp3aW5kb3cteT0iLTgiIGlua3NjYXBlOnpvb209IjE2Ljk3MTQyOSIgb2JqZWN0dG9sZXJhbmNlPSIxMCIgcGFnZWNvbG9yPSIjZmZmZmZmIiBzaG93Z3JpZD0iZmFsc2UiPiYjeGE7CTwvc29kaXBvZGk6bmFtZWR2aWV3PiYjeGE7PGcgaWQ9ImcxMTM5MDUiIHRyYW5zZm9ybT0idHJhbnNsYXRlKDAsM2UtNCkiPiYjeGE7CTx0aXRsZSBpZD0idGl0bGUxMTM4NTUiPlBhZ2UtMTwvdGl0bGU+JiN4YTsJPGcgaWQ9Imdyb3VwNTQ4Ni0xIj4mI3hhOwkJPHRpdGxlIGlkPSJ0aXRsZTExMzg1NyI+V2VicGFnZTwvdGl0bGU+JiN4YTsJCTxnIGlkPSJzaGFwZTU0ODctMiI+JiN4YTsJCQk8dGl0bGUgaWQ9InRpdGxlMTEzODU5Ij5TaGVldC41NDg3PC90aXRsZT4mI3hhOwkJCTxwYXRoIGlkPSJwYXRoMTEzODYxIiBpbmtzY2FwZTpjb25uZWN0b3ItY3VydmF0dXJlPSIwIiBzdHlsZT0iZmlsbDojRkZGRkZGOyIgZD0iTTAsMy42NVYzOC4xaDc4Ljc1VjMuNjVIMHoiLz4mI3hhOwkJPC9nPiYjeGE7CQk8ZyBpZD0ic2hhcGU1NDg4LTQiIHRyYW5zZm9ybT0idHJhbnNsYXRlKDAsLTM0LjQ1MDMpIj4mI3hhOwkJCTx0aXRsZSBpZD0idGl0bGUxMTM4NjQiPlNoZWV0LjU0ODg8L3RpdGxlPiYjeGE7CQkJPHBhdGggaWQ9InBhdGgxMTM4NjYiIGlua3NjYXBlOmNvbm5lY3Rvci1jdXJ2YXR1cmU9IjAiIHN0eWxlPSJmaWxsOiM1MDUwNTA7IiBkPSJNMCwzNC40NXYzLjY1aDc4Ljc1di0zLjY1SDB6Ii8+JiN4YTsJCTwvZz4mI3hhOwkJPGcgaWQ9InNoYXBlNTQ4OS02IiB0cmFuc2Zvcm09InRyYW5zbGF0ZSg3NS42MjA5LC0zNS40OTQzKSI+JiN4YTsJCQk8dGl0bGUgaWQ9InRpdGxlMTEzODY5Ij5TaGVldC41NDg5PC90aXRsZT4mI3hhOwkJCTxwYXRoIGlkPSJwYXRoMTEzODcxIiBpbmtzY2FwZTpjb25uZWN0b3ItY3VydmF0dXJlPSIwIiBzdHlsZT0iZmlsbDojRjlGN0Y4OyIgZD0iTTEuNTYsMzguMWMtMC40NSwwLTAuNDUsMC0wLjQ1LDAgICAgIGMtMC4yMy0wLjQ5LTAuMjMtMC40OS0wLjIzLTAuNDljLTAuMS0wLjA2LTAuMS0wLjA2LTAuMS0wLjEzbDAsMGMwLDAuMDcsMCwwLjA3LDAsMC4xM0MwLjQ5LDM4LjEsMC40OSwzOC4xLDAuNDksMzguMSAgICAgQzAsMzguMSwwLDM4LjEsMCwzOC4xYzAuNTUtMC43OCwwLjU1LTAuNzgsMC41NS0wLjc4QzAuMSwzNi41NCwwLjEsMzYuNTQsMC4xLDM2LjU0YzAuNDUsMCwwLjQ1LDAsMC40NSwwICAgICBjMC4yMywwLjUyLDAuMjMsMC41MiwwLjIzLDAuNTJ2MC4wN2wwLDBsMC4xLTAuMDdjMC4yMy0wLjUyLDAuMjMtMC41MiwwLjIzLTAuNTJjMC40NSwwLDAuNDUsMCwwLjQ1LDAgICAgIGMtMC41MiwwLjc4LTAuNTIsMC43OC0wLjUyLDAuNzhMMS41NiwzOC4xeiIvPiYjeGE7CQk8L2c+JiN4YTsJCTxnIGlkPSJzaGFwZTU0OTAtOCIgdHJhbnNmb3JtPSJ0cmFuc2xhdGUoNy4zMDEzMiwtMjYuNjIwNykiPiYjeGE7CQkJPHRpdGxlIGlkPSJ0aXRsZTExMzg3NCI+U2hlZXQuNTQ5MDwvdGl0bGU+JiN4YTsJCQk8cGF0aCBpZD0icGF0aDExMzg3NiIgaW5rc2NhcGU6Y29ubmVjdG9yLWN1cnZhdHVyZT0iMCIgc3R5bGU9ImZpbGw6I0RGREZERjsiIGQ9Ik0wLDM1LjQ5djIuNjFoMzUuNDZ2LTIuNjFIMHoiLz4mI3hhOwkJPC9nPiYjeGE7CQk8ZyBpZD0ic2hhcGU1NDkxLTEwIiB0cmFuc2Zvcm09InRyYW5zbGF0ZSg3LjMwMTMyLC0yMS40MDA5KSI+JiN4YTsJCQk8dGl0bGUgaWQ9InRpdGxlMTEzODc5Ij5TaGVldC41NDkxPC90aXRsZT4mI3hhOwkJCTxwYXRoIGlkPSJwYXRoMTEzODgxIiBpbmtzY2FwZTpjb25uZWN0b3ItY3VydmF0dXJlPSIwIiBzdHlsZT0iZmlsbDojREZERkRGOyIgZD0iTTAsMzYuMDJ2Mi4wOGgzNS40NnYtMi4wOEgweiIvPiYjeGE7CQk8L2c+JiN4YTsJCTxnIGlkPSJzaGFwZTU0OTItMTIiIHRyYW5zZm9ybT0idHJhbnNsYXRlKDcuMzAxMzIsLTE2LjE4MTIpIj4mI3hhOwkJCTx0aXRsZSBpZD0idGl0bGUxMTM4ODQiPlNoZWV0LjU0OTI8L3RpdGxlPiYjeGE7CQkJPHBhdGggaWQ9InBhdGgxMTM4ODYiIGlua3NjYXBlOmNvbm5lY3Rvci1jdXJ2YXR1cmU9IjAiIHN0eWxlPSJmaWxsOiNERkRGREY7IiBkPSJNMCwzNi4wMnYyLjA4aDM1LjQ2di0yLjA4SDB6Ii8+JiN4YTsJCTwvZz4mI3hhOwkJPGcgaWQ9InNoYXBlNTQ5My0xNCIgdHJhbnNmb3JtPSJ0cmFuc2xhdGUoNy4zMDEzMiwtMTAuOTYxNSkiPiYjeGE7CQkJPHRpdGxlIGlkPSJ0aXRsZTExMzg4OSI+U2hlZXQuNTQ5MzwvdGl0bGU+JiN4YTsJCQk8cGF0aCBpZD0icGF0aDExMzg5MSIgaW5rc2NhcGU6Y29ubmVjdG9yLWN1cnZhdHVyZT0iMCIgc3R5bGU9ImZpbGw6I0RGREZERjsiIGQ9Ik0wLDM2LjAydjIuMDhoMzUuNDZ2LTIuMDhIMHoiLz4mI3hhOwkJPC9nPiYjeGE7CQk8ZyBpZD0ic2hhcGU1NDk0LTE2IiB0cmFuc2Zvcm09InRyYW5zbGF0ZSg3LjMwMTMyLC01Ljc0MTcyKSI+JiN4YTsJCQk8dGl0bGUgaWQ9InRpdGxlMTEzODk0Ij5TaGVldC41NDk0PC90aXRsZT4mI3hhOwkJCTxwYXRoIGlkPSJwYXRoMTEzODk2IiBpbmtzY2FwZTpjb25uZWN0b3ItY3VydmF0dXJlPSIwIiBzdHlsZT0iZmlsbDojREZERkRGOyIgZD0iTTAsMzYuMDJ2Mi4wOGgzNS40NnYtMi4wOEgweiIvPiYjeGE7CQk8L2c+JiN4YTsJCTxnIGlkPSJzaGFwZTU0OTUtMTgiIHRyYW5zZm9ybT0idHJhbnNsYXRlKDQ1Ljg5NCwtNS43NDE3MikiPiYjeGE7CQkJPHRpdGxlIGlkPSJ0aXRsZTExMzg5OSI+U2hlZXQuNTQ5NTwvdGl0bGU+JiN4YTsJCQk8cGF0aCBpZD0icGF0aDExMzkwMSIgaW5rc2NhcGU6Y29ubmVjdG9yLWN1cnZhdHVyZT0iMCIgc3R5bGU9ImZpbGw6I0RGREZERjsiIGQ9Ik0wLDE0LjYyVjM4LjFoMjcuNjRWMTQuNjJIMHoiLz4mI3hhOwkJPC9nPiYjeGE7CTwvZz4mI3hhOzwvZz4mI3hhOzwvc3ZnPg==;" vertex="1" parent="1">
          <mxGeometry x="180" y="342.97" width="50" height="24.05" as="geometry" />
        </mxCell>
        <mxCell id="KJkxDrLsRBGmN8-yk9LA-9" style="edgeStyle=orthogonalEdgeStyle;rounded=0;orthogonalLoop=1;jettySize=auto;html=1;" edge="1" parent="1" source="KJkxDrLsRBGmN8-yk9LA-6">
          <mxGeometry relative="1" as="geometry">
            <mxPoint x="634" y="164.75" as="targetPoint" />
          </mxGeometry>
        </mxCell>
        <mxCell id="KJkxDrLsRBGmN8-yk9LA-6" value="Book opbevaringsrum" style="shape=image;html=1;verticalAlign=top;verticalLabelPosition=bottom;labelBackgroundColor=#ffffff;imageAspect=0;aspect=fixed;image=https://cdn2.iconfinder.com/data/icons/essential-web-4/50/calendar-month-day-booking-date-128.png" vertex="1" parent="1">
          <mxGeometry x="524" y="139.75" width="50" height="50" as="geometry" />
        </mxCell>
        <mxCell id="KJkxDrLsRBGmN8-yk9LA-8" value="pin-kode" style="aspect=fixed;sketch=0;html=1;dashed=0;whitespace=wrap;verticalLabelPosition=bottom;verticalAlign=top;fillColor=#2875E2;strokeColor=#ffffff;points=[[0.005,0.63,0],[0.1,0.2,0],[0.9,0.2,0],[0.5,0,0],[0.995,0.63,0],[0.72,0.99,0],[0.5,1,0],[0.28,0.99,0]];shape=mxgraph.kubernetes.icon2;kubernetesLabel=1;prIcon=api" vertex="1" parent="1">
          <mxGeometry x="874" y="139.75" width="50" height="48" as="geometry" />
        </mxCell>
        <mxCell id="KJkxDrLsRBGmN8-yk9LA-10" value="Send mail til relevante brugere" style="html=1;verticalLabelPosition=bottom;align=center;labelBackgroundColor=#ffffff;verticalAlign=top;strokeWidth=2;strokeColor=#0080F0;shadow=0;dashed=0;shape=mxgraph.ios7.icons.mail;" vertex="1" parent="1">
          <mxGeometry x="1030" y="156.5" width="30" height="16.5" as="geometry" />
        </mxCell>
        <mxCell id="KJkxDrLsRBGmN8-yk9LA-12" value="Opdatere panel med pin-kode via ILOQ API" style="aspect=fixed;sketch=0;html=1;dashed=0;whitespace=wrap;verticalLabelPosition=bottom;verticalAlign=top;fillColor=#2875E2;strokeColor=#ffffff;points=[[0.005,0.63,0],[0.1,0.2,0],[0.9,0.2,0],[0.5,0,0],[0.995,0.63,0],[0.72,0.99,0],[0.5,1,0],[0.28,0.99,0]];shape=mxgraph.kubernetes.icon2;kubernetesLabel=1;prIcon=api" vertex="1" parent="1">
          <mxGeometry x="1224" y="120" width="50" height="48" as="geometry" />
        </mxCell>
        <mxCell id="KJkxDrLsRBGmN8-yk9LA-15" style="edgeStyle=orthogonalEdgeStyle;rounded=0;orthogonalLoop=1;jettySize=auto;html=1;" edge="1" parent="1" source="KJkxDrLsRBGmN8-yk9LA-14">
          <mxGeometry relative="1" as="geometry">
            <mxPoint x="804" y="165.75" as="targetPoint" />
          </mxGeometry>
        </mxCell>
        <mxCell id="KJkxDrLsRBGmN8-yk9LA-14" value="" style="shape=image;verticalLabelPosition=bottom;labelBackgroundColor=default;verticalAlign=top;aspect=fixed;imageAspect=0;image=data:image/png,iVBORw0KGgoAAAANSUhEUgAAAJ4AAABKCAYAAABKKu1CAAAMTWlDQ1BJQ0MgUHJvZmlsZQAASImVVwdYU8kWnltSIQQIREBK6E0QqQGkhNBC7wiiEpIAocSYEFTs6OIKrhURwbKiqyCKHRCxoa66sih217JYUFlZF9fFrrwJAXTZV7433zd3/vvPmX/OOXfm3jsA0Lv4UmkeqglAvqRAFhcSwJqUksoi9QAMaAAyQIELXyCXcmJiIgAsw+3fy+sbAFG2Vx2UWv/s/69FSyiSCwBAYiDOEMoF+RAfAgBvFUhlBQAQpZA3n1kgVeJyiHVk0EGIa5U4S4VblThDhS8P2iTEcSF+DABZnc+XZQGg0Qd5VqEgC+rQYbTASSIUSyD2h9g3P3+6EOKFENtAGzgnXanPzvhKJ+tvmhkjmnx+1ghWxTJYyIFiuTSPP/v/TMf/Lvl5iuE5rGFVz5aFxiljhnl7nDs9XInVIX4ryYiKhlgbABQXCwftlZiZrQhNVNmjNgI5F+YMMCGeKM+L5w3xcUJ+YDjEhhBnSvKiIoZsijPFwUobmD+0UlzAS4BYD+JakTwofsjmpGx63PC8NzJlXM4Q/4wvG/RBqf9ZkZvIUelj2tki3pA+5liUnZAMMRXiwEJxUhTEGhBHyXPjw4ds0oqyuVHDNjJFnDIWC4hlIklIgEofq8iUBccN2e/Klw/Hjp3MFvOihvCVguyEUFWusMcC/qD/MBasTyThJA7riOSTIoZjEYoCg1Sx42SRJDFexeN60oKAONVY3E6aFzNkjweI8kKUvBnECfLC+OGxhQVwcar08RJpQUyCyk+8KocfFqPyB98HIgAXBAIWUMCaAaaDHCDu6G3qhXeqnmDABzKQBUTAYYgZHpE82COB13hQBH6HSATkI+MCBntFoBDyn0axSk48wqmuDiBzqE+pkgueQJwPwkEevFcMKklGPEgCjyEj/odHfFgFMIY8WJX9/54fZr8wHMhEDDGK4RlZ9GFLYhAxkBhKDCba4ga4L+6NR8CrP6zOOBv3HI7jiz3hCaGT8JBwndBFuD1NXCwb5WUk6IL6wUP5yfg6P7gV1HTDA3AfqA6VcSZuABxwVzgPB/eDM7tBljvktzIrrFHaf4vgqyc0ZEdxoqCUMRR/is3okRp2Gm4jKspcf50fla8ZI/nmjvSMnp/7VfaFsA0fbYl9ix3EzmGnsAtYK9YEWNgJrBlrx44p8ciKezy44oZnixv0JxfqjF4zX56sMpNyp3qnHqePqr4C0awC5WbkTpfOlomzsgtYHPjFELF4EoHjOJazk7MbAMrvj+r19ip28LuCMNu/cIt/BcDnxMDAwNEvXNgJAPZ7wFfCkS+cDRt+WtQAOH9EoJAVqjhceSHANwcd7j59YAzMgQ2Mxxm4A2/gD4JAGIgGCSAFTIXeZ8N1LgMzwVywCJSAMrAKrANVYAvYBmrBHnAANIFWcAr8CC6Cy+A6uANXTzd4DvrAa/ABQRASQkMYiD5iglgi9ogzwkZ8kSAkAolDUpB0JAuRIApkLrIYKUPWIFXIVqQO2Y8cQU4hF5BO5DbyAOlB/kTeoxiqjuqgRqgVOh5loxw0HE1Ap6BZ6Ay0CF2CrkAr0Rp0N9qInkIvotfRLvQ52o8BTA1jYqaYA8bGuFg0loplYjJsPlaKVWA1WAPWAp/zVawL68Xe4UScgbNwB7iCQ/FEXIDPwOfjy/EqvBZvxM/gV/EHeB/+mUAjGBLsCV4EHmESIYswk1BCqCDsIBwmnIV7qZvwmkgkMonWRA+4F1OIOcQ5xOXETcS9xJPETuIjYj+JRNIn2ZN8SNEkPqmAVELaQNpNOkG6QuomvSWrkU3IzuRgcipZQi4mV5B3kY+Tr5Cfkj9QNCmWFC9KNEVImU1ZSdlOaaFconRTPlC1qNZUH2oCNYe6iFpJbaCepd6lvlJTUzNT81SLVROrLVSrVNundl7tgdo7dW11O3Wuepq6Qn2F+k71k+q31V/RaDQrmj8tlVZAW0Gro52m3ae91WBoOGrwNIQaCzSqNRo1rmi8oFPolnQOfSq9iF5BP0i/RO/VpGhaaXI1+ZrzNas1j2je1OzXYmhN0IrWytdarrVL64LWM22StpV2kLZQe4n2Nu3T2o8YGMOcwWUIGIsZ2xlnGd06RB1rHZ5Ojk6Zzh6dDp0+XW1dV90k3Vm61brHdLuYGNOKyWPmMVcyDzBvMN+PMRrDGSMas2xMw5grY97ojdXz1xPplert1buu916fpR+kn6u/Wr9J/54BbmBnEGsw02CzwVmD3rE6Y73HCsaWjj0w9hdD1NDOMM5wjuE2w3bDfiNjoxAjqdEGo9NGvcZMY3/jHONy4+PGPSYME18TsUm5yQmT31i6LA4rj1XJOsPqMzU0DTVVmG417TD9YGZtlmhWbLbX7J451Zxtnmlebt5m3mdhYhFpMdei3uIXS4ol2zLbcr3lOcs3VtZWyVZLrZqsnlnrWfOsi6zrre/a0Gz8bGbY1NhcsyXasm1zbTfZXrZD7dzssu2q7S7Zo/bu9mL7Tfad4wjjPMdJxtWMu+mg7sBxKHSod3jgyHSMcCx2bHJ8Md5ifOr41ePPjf/s5OaU57Td6c4E7QlhE4ontEz409nOWeBc7XzNheYS7LLApdnlpau9q8h1s+stN4ZbpNtStza3T+4e7jL3BvceDwuPdI+NHjfZOuwY9nL2eU+CZ4DnAs9Wz3de7l4FXge8/vB28M713uX9bKL1RNHE7RMf+Zj58H22+nT5snzTfb/37fIz9eP71fg99Df3F/rv8H/KseXkcHZzXgQ4BcgCDge84Xpx53FPBmKBIYGlgR1B2kGJQVVB94PNgrOC64P7QtxC5oScDCWEhoeuDr3JM+IJeHW8vjCPsHlhZ8LVw+PDq8IfRthFyCJaItHIsMi1kXejLKMkUU3RIJoXvTb6Xox1zIyYo7HE2JjY6tgncRPi5sadi2fET4vfFf86ISBhZcKdRJtERWJbEj0pLaku6U1yYPKa5K5J4yfNm3QxxSBFnNKcSkpNSt2R2j85aPK6yd1pbmklaTemWE+ZNeXCVIOpeVOPTaNP4087mE5IT07flf6RH82v4fdn8DI2ZvQJuIL1gudCf2G5sEfkI1ojeprpk7km81mWT9barJ5sv+yK7F4xV1wlfpkTmrMl501udO7O3IG85Ly9+eT89PwjEm1JruTMdOPps6Z3Su2lJdKuGV4z1s3ok4XLdsgR+RR5c4EO/NFvV9govlE8KPQtrC58OzNp5sFZWrMks9pn281eNvtpUXDRD3PwOYI5bXNN5y6a+2AeZ97W+cj8jPltC8wXLFnQvTBkYe0i6qLcRT8XOxWvKf5rcfLiliVGSxYuefRNyDf1JRolspKbS72XbvkW/1b8bccyl2Ubln0uFZb+VOZUVlH2cblg+U/fTfiu8ruBFZkrOla6r9y8irhKsurGar/VtWu01hStebQ2cm1jOau8tPyvddPWXahwrdiynrpesb6rMqKyeYPFhlUbPlZlV12vDqjeu9Fw47KNbzYJN13Z7L+5YYvRlrIt778Xf39ra8jWxhqrmoptxG2F255sT9p+7gf2D3U7DHaU7fi0U7Kzqzau9kydR13dLsNdK+vRekV9z+603Zf3BO5pbnBo2LqXubdsH9in2Pfb/vT9Nw6EH2g7yD7YcMjy0MbDjMOljUjj7Ma+puymruaU5s4jYUfaWrxbDh91PLqz1bS1+pjusZXHqceXHB84UXSi/6T0ZO+prFOP2qa13Tk96fS1M7FnOs6Gnz3/Y/CPp89xzp0473O+9YLXhSM/sX9quuh+sbHdrf3wz24/H+5w72i85HGp+bLn5ZbOiZ3Hr/hdOXU18OqP13jXLl6Put55I/HGrZtpN7tuCW89u513++Uvhb98uLPwLuFu6T3NexX3De/X/Gr7694u965jDwIftD+Mf3jnkeDR88fyxx+7lzyhPal4avK07pnzs9ae4J7Lv03+rfu59PmH3pLftX7f+MLmxaE//P9o75vU1/1S9nLgz+Wv9F/t/Mv1r7b+mP77r/Nff3hT+lb/be079rtz75PfP/0w8yPpY+Un208tn8M/3x3IHxiQ8mX8wV8BDCiPNpkA/LkTAFoKAAx4bqROVp0PBwuiOtMOIvCfsOoMOVjcAWiA//SxvfDv5iYA+7YDYAX16WkAxNAASPAEqIvLSB0+yw2eO5WFCM8G38d8ysjPAP+mqM6kX/k9ugVKVVcwuv0Xd2qDAuKWvdsAAACKZVhJZk1NACoAAAAIAAQBGgAFAAAAAQAAAD4BGwAFAAAAAQAAAEYBKAADAAAAAQACAACHaQAEAAAAAQAAAE4AAAAAAAAAkAAAAAEAAACQAAAAAQADkoYABwAAABIAAAB4oAIABAAAAAEAAACeoAMABAAAAAEAAABKAAAAAEFTQ0lJAAAAU2NyZWVuc2hvdG6i5usAAAAJcEhZcwAAFiUAABYlAUlSJPAAAAHVaVRYdFhNTDpjb20uYWRvYmUueG1wAAAAAAA8eDp4bXBtZXRhIHhtbG5zOng9ImFkb2JlOm5zOm1ldGEvIiB4OnhtcHRrPSJYTVAgQ29yZSA2LjAuMCI+CiAgIDxyZGY6UkRGIHhtbG5zOnJkZj0iaHR0cDovL3d3dy53My5vcmcvMTk5OS8wMi8yMi1yZGYtc3ludGF4LW5zIyI+CiAgICAgIDxyZGY6RGVzY3JpcHRpb24gcmRmOmFib3V0PSIiCiAgICAgICAgICAgIHhtbG5zOmV4aWY9Imh0dHA6Ly9ucy5hZG9iZS5jb20vZXhpZi8xLjAvIj4KICAgICAgICAgPGV4aWY6UGl4ZWxZRGltZW5zaW9uPjc0PC9leGlmOlBpeGVsWURpbWVuc2lvbj4KICAgICAgICAgPGV4aWY6UGl4ZWxYRGltZW5zaW9uPjE1ODwvZXhpZjpQaXhlbFhEaW1lbnNpb24+CiAgICAgICAgIDxleGlmOlVzZXJDb21tZW50PlNjcmVlbnNob3Q8L2V4aWY6VXNlckNvbW1lbnQ+CiAgICAgIDwvcmRmOkRlc2NyaXB0aW9uPgogICA8L3JkZjpSREY+CjwveDp4bXBtZXRhPgrhJSkqAAAAHGlET1QAAAACAAAAAAAAACUAAAAoAAAAJQAAACUAAA+1HNRVNwAAD4FJREFUeAHMW8uOHlcR7t6QhAVOwsIzRILEjteePzwBudiepwjkHjsYJEBIUSQ2wA7EAgy+zZiHiMd2LrzBzLAE4kuCyEwSCZtsEtiYqjpVdarqXLpn4khpZf6uy1dfVXd/c7r7H2c89/wHd4faNtaCGEsJLQLXQjUeyy0o5qLPnIkrFeIn+aN0CITBjZRuSO94KPNIF580nuuHjlRwwuVNnTUdxjn+pNoatAEq3dh1visOtI6qltOYGq6kd+qw712cBEpHsn0peUw7kvAaPYqyKq4a1GO3J6jgw0AoD24ugYTlQtxdW9wqbMW1dwRIFxNnUzJ5qGARztSFNLkT6YxpABthrLsLOUnnWSVCzOmjEtJsKze2ElDZTLEQiRxABjeee6Gx4iHYAKm29tHExAScCgrhMGmLCKVvJhShBJkrFYmvyBZXK46FlOsBEnv9QmtnPn3AE6iKGaUk4CSc9iWPy1dqcb5yqwQroaIuYnpCxOKAT8ecg1l4OVb0dIEvjLMEMI66arh2zpkBiXx7vsjNHpBo5syUkxgGBJzMiWGxiTXgcieTMKbmTUz4MES2ycWDsqm6cLmDBVKIA0VcJ3KtxvMvvi9zEcLdvjDSeqYyfLMuCHHZopqNU8M4bnjnlEUTaS1gXHF8CgCjx1XkTMCYls7ZkxgAGIxcFAmJT5wSbDWo5hkMOeQqIBpQw7GLI2JElJuJABCtlVdihfCkgeylUfLxkRE3eoTkUIU1ZTifnRbS98j4wiKCFotBz4AQGnBdIQrlFB/lO6BOqnqhZDjcm1ormPKie6wrJL6Y56DhF1iqhQ5Tt1Mo0DmUR41EF1zp0RZeo0AKcY+CsTAdgkCcCRitt4UazAZxca3nzRiylEeNAGB3Ii1FJMSZWHfwQoB7Wx9PUgtn45GDcoaUze55kRq6Y5nayT4M0BI1cmUlVJ2FcBUwMGXh1fO5mVgdHDa3aVnJbEwRGpSRNZA6BdeihFdGKvZUGwgKEARmQLCMes/47Y9tZWbfmpv2es/KZZD0wRHF9j3RY3wuKyES6WFq56GCb87B9eP5l24FjGExpsxU3c/FYXETaxLGLPpxToZGV2zCNmsh0cyFLhM47EcPHRM4ZWWcmzMm0Z/i6+WNINJ82oDuTNkTSx6b2Afu+nyCh32tv+lrkMlsckJvFV6N1DEZgL5wIMDELb4RthC1q1gb5FNCIRtXBj1pch6Kk6i1MQOJOmUmR2sSw4BJHNMyLk2DjsxVIaiEmCXtKC8g5BHbm1pj0hozNTKJCWVYtAouDhRxLoQ4TXjh5VvUR5sZYryItbiBZDYnRgynzrY/cdlASZQjTZwkkA1scXOlWoxwmOJ4ivoi4OqVHA2EWkJSvQQCT3AdjziAyS87wmOSYuJ+kg8ANUwtJrwu55x8mD4slX7vMOy4GIx2gYVHlSEpbHgKNKWGP+eINalU6gLOSXn4pNPLKUHEU65gAWgAjUqwEnIl4gCu3gsJOKNcakh1tXWZBB5X6pyQy9VqARwnkao8r0QUmUEmlE3AV0o0P5nzgDwHMPiUUiaDkwEzXnjlpuMoWEJBYM3uLByAGitjJmIr8IUhPdxhnQM4rMS+vqTnycsLlrT6jnJPN0QtbLM3zdQYrBHGdnRE3D99sdUBN1MmYUxzOMnUnBjt81kcv5QQk3NgxSuEx609DoIhMPWazjSVnjbjbdfCOQlnQsVBeqZiXB8w1RUBRSo61aZ3zKO//Pj9FF5+/L5h+fB9ZL955hMVLpabrmYcIaYuVBdPdQryp8BdEB1IcM71MTgplV8sk0r1PqB8MUx+7bxBg1Zv5eAh9iA8LU2GHIUcLUVtW+kQ6lqu8jUAtQMVKNTazhIu9tUeEkQGtiVUEOQACQzEJiJD32477/13QOHRZvhkTgyJbeu6X9oaHleDTpFLfxOncJErqtMsDuecXNAI9+YWoWOpHLMKj/jgQxK5U8VqNQeoJU/DIGOnAOkn0ghpYgpBpn7uOIBfWrh4lVeQmDRo6ZPohyeOH4CfbyCouu1cN8KzPDKJacOUDpVJzfA56C3DZRPEqzk1MqQSkmQ6cvjaA+5s+YVHsmFf5eFgJUdzXXwVn/FSG0+XC2tZxDpO53im5CVAUn86lMTbKGyEHXMXw8mAkWOhMHyI73jFCbUSxiP/LghvMSm8j20J20KKncXOsBgq5+OaSqlhSWYPI79IsahZwyso58u5IhH4jss5w3jx1RuZw+cCk0kaM4C8OwMnzfE8iJ1IGsWVMD5fLR+5f1iC290u3OI2N+6Eg0bGUGieUbGvzeocJmhMGu+J4w/OF14sJgb54GQPY3I6m5TbyQ1O0zWjiuNgNQckRTz/8zZqUeQrjQ1mvHjSCK+CnSa1bIiOlzGQGnjIkCsnlmAGK3E8Ayi0xeoBwstDvXDtvPf5cPn3H4nr94YvJySY58ZVWaIZ5y281S7gp7WlWy2veFNkLu+c/iAMzecGp8n1ZMGHzzcmFnDr+mVaRyDPb7avAho1mPfC6wCFDCG5mURreybb59cnNUaM4cq2+tpSKz2o8GYcC5EUuBhgQYYwCe9YW3hb1z4dNq/9h1okhvypwwdOjYtB+QaoEc4P+VFupgBMyWJUbGmb9ow3ZT7PXsgLl3zdJL6rhZrx4ilc8Wpp87e8QO5I2CGGGTj6zSBc7FkproRwhZsS3sYfdmGqVOy6VPhqx2IWDZOWYmQc6eViwcLD1Q23rWtwi4dNfHLwQ0op4JzyzPu0UmQDAD1ML4ckmleDqOmoTMidN0KYpDEpVfswmMTFeuL4uHbqetEjDuF5DSMmgitYS2qfY21csG5f8PnAfOHF2RJP0d/T6ygSpnPBUVsrt/hCZIiVYmVrGITzYNtDqzxEw8kwSWMGUAH1eSjs1UKunCsUBNfzs2cwVeERzICqJBK0qpKY3c/k0QObwC8//sC8FW+Ch0YkTHhIhkSvFOeUQ9aZM1m/GHE9csp7gO9BjdKHwsSISI5L2pQWJmEawEaYurmcc8KMRcfBC69SW5ZwZBILAMXISdEAkSzBbRO35SMPwLPZZ2TvwssBblKBtq1awme8U8sYrm74jLdxBm+1MzZLrPAYxEnSC83O9TSbQsFIWY5AaZ478hCNLfV2gC8fSl9ILx++H27dnw87N/+n+NwjnRvxiSLwpKIUFJycUOmhxGDs3EiPDcRc5WJ0yHnukLQNODWuvSa3Wi0tmQ0PmhGpvAanMWMswWq1WH2IIiI6k3bm9pX0lcjWldsujnU94SEYxVfbNv6YBLmAr0KW4IK2NhIuHMviWMLhxZdtC14Y8Fku5fxfKwSD+124gIjDc4X1i2fkRaQ8SVtv36ELjkJYPPPgUBMEcm69nV5WNt/+FF3dsIeswhq0BrVMfZcPfW1YPHmg2QPLNt9N/JvvSJ8wc3Btq/qLJxSEGhDee6ojyikADU0xtyb1zbaGsoNgQxLcCbiIILz9bNtX7wwiQFrxTrZXvB7/2k9uQnqEr0HgOzgQVWtDgaIwa5itt2AWEt5DRkwlE65SG2fT1zoovNWXD5YgjoigFk+LOJtQSiB+k0VIgZ7q+JKRqCcEF7uiAEWEPpd1oHETol8ETbCKdMaUHdd/mIVnsN40pD6RPfl/FTI0NVg58dCAP19k2756e9iCH9xQvKtfRHgw4OIYiKYjvF0QTWtF3AbhbfKKh6tTa9uL8FocvTjeEi+fb3xfKcsLX4wnnoLvHJ9q/3mv1wdzb178BG71cguGQL7IXFoEUrwRxmQpvA6Yu0ySZtw4fP93h7K7T+teCW/9p7jiJeGtdITXGxOFhyse1neFd8OseIf6K16vXy9XiM9dO3TuDkl081bSVi8UHYqPNtfDVkBCv7NtglS04/ppu+LhKoVbo7ARTjXmk3EnTn1r37dXwzao8IB36fD+V7x7KTxcMVd6Kx4JLz1TLpPw2l9622Pdq731Djxzwk9re+7X326l9hRH8V1eY/FBpShFSQptSACQeptV9DBeOv0P5VCD8qkQv2ygOLlClgkKiyF4S0Th3YsNhbd9Ld1qD34VhPfWbVjt4BGiI7xdI7ylL1F4eH43Lnxk3kYhwNdggbdYeK67V9vltY/5lht0wK7XD3elnMej54TXHBCQiTR9+2z+d27LrgeMQXq2O/5wk1ISu/w1Su/FA0W3ffXfVIIr3omT+xP0+s9uEAc+462AcPaz0a32KyY8vOWi+Ogq8YWeIzpcxXZv4jcASRiLJ/vPgWnVg78/6womUkv18XzKG26ZBR1dOv13qDYpY0Yi5zdwMsqJU490b7MouCtnPnSUOAYKS0S4AgLBzQvv6yC89lvt7vXPAJ/+dGUPC3kwhxvyzhUevmjg6mW5tkR4T7dfLmjFO5dutbTivTR9q92GW+bOjc949YLnM+A/+Bj8yxtYMae2tdffNzPCm/vEarf1Ltyi4Sduq88fHJYfa39NdHldVj1bCReuoQeLIptx46UfBeG5u7dhM2ZBZgOEG4dnf3vYRgvbiqlImsAKr5rb18yK92p7xUNxXfmTCLoyNIRQdFPC2wUB4OqG+7xlPuKYJby7QxJe+5cF+TfO7xYCl74nXliaFB+ueGn1Snen5371HSmv7tfe+MDH+dBQdKvPtb/6oVUPxOe2fFo4HALBRRALz9A4kDiyjgmO45KWsNkfPzmx4oFArp75F1dkvtQJP80/UgBPJqBb7Vzh0S0BKqWYbxFzhHfp5+m2bA7JmUl47dt1WvF2qGaO8NZfv+X4rUP1IL7ehqLbuJi+Xlk8CS8+nWc7Wu3+Uq52wo/Ca616KLwNKzy4dHJ6pd7t6dKWQhkv/RhXvPZKKaR4zcRO6OzlRgDiHiQ8uG1ObX+FlUxWsxLLZLRL/VB4x195pIRyhFa8s7LicVBGhYPAl6WVZx4ejnae8XCVu3I2iabVaI7wrpzboXOG3wmuvthf8dZfv2la8XGbyOqLS8MS3HZb216Et7EGLyP0bCds9jzD103fg5cS+Glta7/4Z5GSU+wSntbpZ/wzC69W4GLs2AZ6esCwcYSuHP/mcPTY9MuF9EAB4lYVoTZKz4BzhSdlOJvY2GOe8D7UNVePzfyr5ZWn4XYNP62NxHteVjx4Idqz8KQrTA7/oehWJ1a99Tdu0Tg/+OWjrbEovl1Z7aQbApYehefKznPexjoI95b5QhkHhP/iea4OATgEg/D+BvhUmIF2DELmVLQaaWR49jdHInqW71bBwD9nxbt6Vm7h0s6QgEnCmxDN1XNh1RQq2o/D0S9BeDilvAm6dnB97qXwPPfePSc8c2ozEweruYT6PwAAAP//JwGGwgAAEDxJREFUvVrbll1VEd3njcsToqMbFJKAY/hEd/8BkHQn/oSSAILDJxWVSwCD+OAvAAFyRfAHSDpc4g9IOniBKLkgkG4hoA8iPsWaVatqVa219qUxYQ/67FpVs2bVXmee2vucMDv443cvdzhm/NrzgqDAAmBWJgGTffO3X9vt/NG3QspmFmsnPu1OrX4aUsC564ffDD6/WH/vP93xZz4UV27FQ7qllRu7xeUbgs8v1s8Sx7MfeZfYjm9p+Wvd4o5hjmP7L3Le/G3Xdt+9/6aaz3kO7D1nq7iLsvPY6t2/3maYlnHshfXu4rkvuj1Pb22Fr5jv1Rc3uovn/yt8bk+qAhxrA2YHfyLCQ7ghrXHyslohxsWd9AbtvLFETV6z+EiA0v7lbg7Ce7BfzCwaEl55PX69tEI9kXD6jiw82pHiejTn6gjPvQONulOEt07C2321hXdgo1s//wXpRd6VGVlq6/64+UMuv/sp5xALL18wE1BMwkZTiZLj9JIzM7a05r99HQtmkSbNlzlWn/mgwyTDwVN0RHirOvGKYtrrNOHR1NSLLHiwnCK84/tlamLi7br/5gZLdh3YezYvYJVvADnGhHfgiXPMsfvpbZHrCq9OnfxX99bJf0ZW+qBgf6u2yaf7jgR8nqCx2aGfvuP9iLWPxidQgb7g5VblBNTJ92UEeOjhvzIL3sSdo8L7QFtzZ2os9YZpNzrxnku3a8cgppBcNeH17N/8Nrpd3zdyu/6KhPdqmni6n9UWsSPvdyveFl7PxVcEjCvBGLt4j52fzFLdeM5a2MQEXHvtUrd24lI3f9t104XnWvC9Ly7jGW/4VrvaEp67jqUdeMYb4DhHz4k68Ug0YxPv4ONnwx751vFhvgkc944I70lMTZqMv9rmL7eycZvE35c9eNpZg2bUdCHkFmTODj3UN/FUKi5BqRsuDcVzAs6UC9GYjOk3RYDrZz/vcMudJLxnWxMvdUblWXhDoqEvF6v7deJp70XfV1x478nehL3K+7W0/YZu8e7+LzNAHmThdd2uPTd389uugat5HHvxYi08uzwzmrntOxpyin0aoqHY7PBDf6EMeTzUSj4nPjQyNME8SjMb5yYMTm1UcnY+eAs9B17XIBDXBgnv+AThAbfKwqMaqbZU0nqzicJriTdzYtotbh+eeKvPf8hXidvkrvv6v4njCg8+AeH1H/c8fXt/kCJrb37WnaI/HCzSu/pFiml37IB84+aEoZeBRyxNi2LM9zrdccXp+4F1Ep6F+o30JipASOFU+gRIp8WVryuUbpGfmG1GwcfCo9vo0HH4kTPdHJ7xHrhlCNYdfvTMQFyEtzA68VrCI1q9vh10u54gPDQC4e2cLLxiPyl/ieqMTTsTHvU3v5WEvmf4tnyKvhycOgmh1vX0GtG7P+a3XkOTkn5GKd47jwk24zJYKwHTFl7GBp5q4XB+MmJ+LpDw8KfHaXpGW3/v8w4TqXVAqAv07NV3IH/ttU9IePSMNyI8nnrP9QiHCuBWu0DC6TtwWz9ht1pB8aa56128wsJDlbU36XfLN+R3S8yNORIsRDsmOuQefJImpuvvnqeGJyTXI+GJ+CA/SdYB50UCwS3dKRP02CFMSmAV4YqCFEfDJYEUpPjs8M/+nBhaaCUHWSue6cxKMBbechaexcmAMFSAEBIOPfOi8bIZ4Wm61sAa/DwJqT+IZkh4LFy6TebD7UPaVeSPTzyIfzZp4uVaXbdOX0xwQHRTjjUSEETru1y6m6bkwO3W8yK/FMvcFqkN0enBt2gWnnpw9rqgDmxphgeLTSEnPPN18Z7t80DmLo+52wWGhOcZp9onnn2/wyTClX3vN9+ZmhZwhx97l9eLO2i6Dky8jXP0nLi/MTHdpS5uJ/HSX98B8ay+IBx8q723/0fvPo6pfhHeJYJTg67H7+8bn3pTawAH4R13wjMluJrA6VKmqKJib7MjP9eJh5R8OHiWmjJmWK+1sPINunW2J15vUk8AE+jEc+9bdOUHt45OSAM74wiER9ewAOENiIaF93xDeI5rTHgb+DnlKxDe2slPO/zlI79Ji3dNn3o5v99aP0/XBOFxiVxHM6AZ85qhUXHYj21ReCo3gGOmTsHoDfNPK/D5SgoPogu3Tfr2u3L/raHelMWRvTLxpgjvxPN/Z8q8I/HKx4VHUzMJb24bPZdepYl3aN/fBi998S56JJh4yx0koiAL73Dft2G3P85sclKcJt6f8t5WKDBQOBCFRZWh2DuWr8zEO/36J93p1z+mOrEui4cm12aOI3vfYZ7NCK/k181a3D5haqrw8IVoz5W/1a4e+JDFUPYY1rRtPPnu7P/pJ+AHFsPCQyIVs98h4/sVaAFrCm8gpyTI65iEh/nlB7bk8CYtTLi33/i426Bvwu1pO+Nb5h2bEJ8IT2+1/aLFrVYnXmjbXeIChHd3/zMe365flNs1T7wR4W2c/7yb2zr8c5L2skG3vLWTlzqc9QPJH4j0pkub8mofFNx2/w/xrV+gmr//rFu/0PMvHm5vpE91aAfaauru6C/+SBEF1bdOjciF6aUPnDUhQRZo8uG4Y4eck7v3ZILjLxK9MAssJN4xAbKY9tNzIvXHoiHh9B2MfUFutRmDHcgXN0144MC3Wno0GBHe4V+eoZ9N6AsL3Rr7DghNReda6YGnXnPLjFsg8eEbK37rm3JAcKdZcPJNG3VVSkIt/3OAcmk5DAuzNejOMxEePA6mpgMi7rdeHxItLWDbi7nbrudA+dMJ3mgcG2f/zWd5KZtw1csQJWCqKL+SbJwTPuFvJCmQQrqZ6mqemcLz+Czvp2y3xCRb2TPyo/e+M5bSEh9uc5iK+FVLqroCrWarcOXgCah3E08hk5Se6Uh0+aD8moLDugsSbuOAsXRAWHjmyWWaVhPnnSJHyRW/RrU53rapvwmCSAmsIe/IrJv9nTESO55UUD1lq+q3dszQvoAgW5e0miK8IyS8eCSe6DRe+8GXZBh7SoVd/ZJC1m1c5HKZFV/lCLQ5s4Ej1+zow7jVlod3uURnlhmD65QH1kyRLds6epezVz/Zwuz9AURh6VYQ8q/OAd0gEFf7VXPTHvBSfXWG3ymLFjlzdFtb2TP8LfzIPvnGbRxmEFl/eUNxHwkae2okN1zNIgkX+bSkklC0/HQqpDxrCvlnLz38NvO2yZGZ0PZtRdkci7oc3Luadk+61Ss+x+zvzakr6ESALPO+xOeROst5ptbK5Jxc7iNoMPGWpwpvtK4DsImKzpcuQfuYpf7s0SjFq1NNkSBFgJbGHWrVOPUo3tc04Xmnvw6fpETAmt87faIRErJ4cyy0WSPUQnLliIzNsDrtCrg/t4ocfqWp3hfsBChwLLzdwxPv6FOYeNqFEOhq7DKlBcop6obWErveU1iIAR8WMTWEwoJx2qdF2LBVwmAUJB+dZi89golXpcbCWPHEi2Q1KDFlfoPkCQTXhHqaOV5SkIybAJ4A4Q4TzjYr9VNNjgl8c1uv75ZHhYffGP0BYton5pciumseZXboIywMEoweiNRwQWeGfFsUgGJpMDMIgP9eeuR0cT0ps7q1IrNgNUzhtyLRQKGIlJU0QK+09HEvVu9XUNE4FwPO/JZkhmsIKOd3pgP1mAROeKvVg4RbJt6WAUTXHX2qFF6CW19qxL6tfgrjZD6rqLklpwEaBuVwGj5qko/XmpucEnYclUNizj377aMivCaho2LTJZahXN0zDSQMhAJ3wIVFgNkiQbSLMkP9gndRNjXq/EbsjCqcHcKQeRCB8Hbs3uIIoomfSV47eIGchM5UEVSuwuNLrudh8CpMET4eio3WTQA6RSmKGBH1NVA3r1OuK07CW6N4HRCM3Fi0e4/KpI6tMlOGTUYFeCb10bnH7RA9ptbRsHY3TshIBxPTfwlRLvTngFqqdTaYGCy8e7YYEkL7xwX6X8MupN8Zaa2HpZJDJ83kfeFkZUDfait7OpPbXZULFvhi6YDO1N93ibHYn3YNSiVcEp7jKU0urh2UVOrPSYxIbh8tMznDAxoOCefPV67SsCouYLwzdcAu729wkUt/WFWkZGPlr4TWCmjTsBfPeIqD6EYP44z1cmUDGG+b0+EYQAzsKv3xqhhKEKBM/O0C2VvxotueOuCWiZfz2arxBSAtWeF5OzKoIMCyASvf3JwfrZyKR31aJfrWpoRSRRuZVQOJWZdKnIHRMpy6eyYjeCqs5rTODuzMFrL0yR5uIomhHo898OtUwbl0/+ES2wUBL5aJoQ443Ozlx3CrBaGnFy71GJFLNF9pMAYvVTb5PIHGva8kK1KqsMsNt3Md/5KglSzdpZmPDQQqNPnI35sTGSRb8Oii9eGIGW5lNcxIQe3J+Z3p3y1FwseQhMt+V89MAgU+RQenoMmFaIzISrMAxEzya0sWoyPhnWrEM60KMnuYNpPGQKLd7CmR8Klup7zM4qobxUAUebDit6LoN6KkUumr6xUkZQdFWMXn5yNSLhfPRPD5VOvDnGYgu0DXS/IUR8qnk3EXiLBs9BfiujCcskodXSnMzhQW4aV+LNAypmBo23Ix2W7d9IoSxcmZ8RVC3gQCtTGTGoqkvSllgD5uaTM10u6B6BXAlcJiQm3gC2Z7E2M6VgXS1da6QKhd5LPb14u4fm7PE3MsUrnVoay6TtdAy9nLe99K0Rw0QjX4NjYQV1zPGeKT/dRGAMx88NqKjeDpYRW3ZwQL0s03tW8rXpbyAWJ1orAaZQrWPi0uanTA1uGCLANSXruPBmnDlblLFhogDTxcEUmeBi43qVYCOawTnoLkDAwXceBcxZcPgAyJdD0rq5KLBqRyD9RTvELTGhnikldjsGfBIkF59DwY1mCu4t8Aq6Vc4ay5yVksA9QWADlWzmknOpS0lLDeb7TeCHRYaEYI8KYiUnjZoxmgxWfUr+Hzx+wVmngVkWPVZOfifPW7qyO/eckuM3zZHntqCk8eXwt8jeSGK1eWoLA4LjfVMnbMIi6rpVzmsF3JHuHDVIFPMtKXASvlvpiUiYbxRiLzrpaduHofgXyO1YVRX5dBmzjNkCC/0ouxvPK43mqNxhWBL7Gmk0eVtpK6rADRDWYn8YFSv7xkYC7EVl5a0xnrLIcTb+Vw4B6TUnKP8a2JK5c/WAbBtCtTBV3xRYftcXSnhlw9a5F8TawB2AjXN4r3AOpoE9emdWavPP4Hu5bQiud2n8uMIYDHlCw+lpOalqbm/pGsXk1xhM70KOcOAlIGOXtUijRcMafG6QaO4XK8LEKds6v054zKauDlgzvAUYUqRyyTwoPX5zMCHRb6joRA1ApduAivwIBXXUrja1kwOHWhmbouGVK8hCl87FzllQ7UK315OxqhVLHIKZbttghkz4yK8N/s1efOjldNeZN79klTFazr6iwAz5I/yO76OQ9YRSbiUf6UkUhbcGXEHuPBwdZVrxT/3ROYeB5SUyKqNLxJNQS1+PBMyYXkCUcJUibnd+Y4IYENr1zIMidTcCS5fCRntLzk8+6RZoQrPcM18rRWGfK95RIlKkUqd+UIFFpTnIr1XvKpO2c2rH6cZwtklPI/tbXBC8Lf9Q0AAAAASUVORK5CYII=;" vertex="1" parent="1">
          <mxGeometry x="674" y="144.75" width="85.41" height="40" as="geometry" />
        </mxCell>
        <mxCell id="KJkxDrLsRBGmN8-yk9LA-16" value="Opsigelse fra brugeren" style="points=[[0.25,0.25,0],[0.5,0,0],[0.75,0.25,0],[1,0.5,0],[0.75,0.75,0],[0.5,1,0],[0.25,0.75,0],[0,0.5,0]];shape=mxgraph.bpmn.gateway2;html=1;verticalLabelPosition=bottom;labelBackgroundColor=#ffffff;verticalAlign=top;align=center;perimeter=rhombusPerimeter;outlineConnect=0;outline=end;symbol=cancel;" vertex="1" parent="1">
          <mxGeometry x="524" y="257.77" width="50" height="50" as="geometry" />
        </mxCell>
        <mxCell id="KJkxDrLsRBGmN8-yk9LA-19" value="" style="shape=image;verticalLabelPosition=bottom;labelBackgroundColor=default;verticalAlign=top;aspect=fixed;imageAspect=0;image=data:image/png,iVBORw0KGgoAAAANSUhEUgAAAJ4AAABKCAYAAABKKu1CAAAMTWlDQ1BJQ0MgUHJvZmlsZQAASImVVwdYU8kWnltSIQQIREBK6E0QqQGkhNBC7wiiEpIAocSYEFTs6OIKrhURwbKiqyCKHRCxoa66sih217JYUFlZF9fFrrwJAXTZV7433zd3/vvPmX/OOXfm3jsA0Lv4UmkeqglAvqRAFhcSwJqUksoi9QAMaAAyQIELXyCXcmJiIgAsw+3fy+sbAFG2Vx2UWv/s/69FSyiSCwBAYiDOEMoF+RAfAgBvFUhlBQAQpZA3n1kgVeJyiHVk0EGIa5U4S4VblThDhS8P2iTEcSF+DABZnc+XZQGg0Qd5VqEgC+rQYbTASSIUSyD2h9g3P3+6EOKFENtAGzgnXanPzvhKJ+tvmhkjmnx+1ghWxTJYyIFiuTSPP/v/TMf/Lvl5iuE5rGFVz5aFxiljhnl7nDs9XInVIX4ryYiKhlgbABQXCwftlZiZrQhNVNmjNgI5F+YMMCGeKM+L5w3xcUJ+YDjEhhBnSvKiIoZsijPFwUobmD+0UlzAS4BYD+JakTwofsjmpGx63PC8NzJlXM4Q/4wvG/RBqf9ZkZvIUelj2tki3pA+5liUnZAMMRXiwEJxUhTEGhBHyXPjw4ds0oqyuVHDNjJFnDIWC4hlIklIgEofq8iUBccN2e/Klw/Hjp3MFvOihvCVguyEUFWusMcC/qD/MBasTyThJA7riOSTIoZjEYoCg1Sx42SRJDFexeN60oKAONVY3E6aFzNkjweI8kKUvBnECfLC+OGxhQVwcar08RJpQUyCyk+8KocfFqPyB98HIgAXBAIWUMCaAaaDHCDu6G3qhXeqnmDABzKQBUTAYYgZHpE82COB13hQBH6HSATkI+MCBntFoBDyn0axSk48wqmuDiBzqE+pkgueQJwPwkEevFcMKklGPEgCjyEj/odHfFgFMIY8WJX9/54fZr8wHMhEDDGK4RlZ9GFLYhAxkBhKDCba4ga4L+6NR8CrP6zOOBv3HI7jiz3hCaGT8JBwndBFuD1NXCwb5WUk6IL6wUP5yfg6P7gV1HTDA3AfqA6VcSZuABxwVzgPB/eDM7tBljvktzIrrFHaf4vgqyc0ZEdxoqCUMRR/is3okRp2Gm4jKspcf50fla8ZI/nmjvSMnp/7VfaFsA0fbYl9ix3EzmGnsAtYK9YEWNgJrBlrx44p8ciKezy44oZnixv0JxfqjF4zX56sMpNyp3qnHqePqr4C0awC5WbkTpfOlomzsgtYHPjFELF4EoHjOJazk7MbAMrvj+r19ip28LuCMNu/cIt/BcDnxMDAwNEvXNgJAPZ7wFfCkS+cDRt+WtQAOH9EoJAVqjhceSHANwcd7j59YAzMgQ2Mxxm4A2/gD4JAGIgGCSAFTIXeZ8N1LgMzwVywCJSAMrAKrANVYAvYBmrBHnAANIFWcAr8CC6Cy+A6uANXTzd4DvrAa/ABQRASQkMYiD5iglgi9ogzwkZ8kSAkAolDUpB0JAuRIApkLrIYKUPWIFXIVqQO2Y8cQU4hF5BO5DbyAOlB/kTeoxiqjuqgRqgVOh5loxw0HE1Ap6BZ6Ay0CF2CrkAr0Rp0N9qInkIvotfRLvQ52o8BTA1jYqaYA8bGuFg0loplYjJsPlaKVWA1WAPWAp/zVawL68Xe4UScgbNwB7iCQ/FEXIDPwOfjy/EqvBZvxM/gV/EHeB/+mUAjGBLsCV4EHmESIYswk1BCqCDsIBwmnIV7qZvwmkgkMonWRA+4F1OIOcQ5xOXETcS9xJPETuIjYj+JRNIn2ZN8SNEkPqmAVELaQNpNOkG6QuomvSWrkU3IzuRgcipZQi4mV5B3kY+Tr5Cfkj9QNCmWFC9KNEVImU1ZSdlOaaFconRTPlC1qNZUH2oCNYe6iFpJbaCepd6lvlJTUzNT81SLVROrLVSrVNundl7tgdo7dW11O3Wuepq6Qn2F+k71k+q31V/RaDQrmj8tlVZAW0Gro52m3ae91WBoOGrwNIQaCzSqNRo1rmi8oFPolnQOfSq9iF5BP0i/RO/VpGhaaXI1+ZrzNas1j2je1OzXYmhN0IrWytdarrVL64LWM22StpV2kLZQe4n2Nu3T2o8YGMOcwWUIGIsZ2xlnGd06RB1rHZ5Ojk6Zzh6dDp0+XW1dV90k3Vm61brHdLuYGNOKyWPmMVcyDzBvMN+PMRrDGSMas2xMw5grY97ojdXz1xPplert1buu916fpR+kn6u/Wr9J/54BbmBnEGsw02CzwVmD3rE6Y73HCsaWjj0w9hdD1NDOMM5wjuE2w3bDfiNjoxAjqdEGo9NGvcZMY3/jHONy4+PGPSYME18TsUm5yQmT31i6LA4rj1XJOsPqMzU0DTVVmG417TD9YGZtlmhWbLbX7J451Zxtnmlebt5m3mdhYhFpMdei3uIXS4ol2zLbcr3lOcs3VtZWyVZLrZqsnlnrWfOsi6zrre/a0Gz8bGbY1NhcsyXasm1zbTfZXrZD7dzssu2q7S7Zo/bu9mL7Tfad4wjjPMdJxtWMu+mg7sBxKHSod3jgyHSMcCx2bHJ8Md5ifOr41ePPjf/s5OaU57Td6c4E7QlhE4ontEz409nOWeBc7XzNheYS7LLApdnlpau9q8h1s+stN4ZbpNtStza3T+4e7jL3BvceDwuPdI+NHjfZOuwY9nL2eU+CZ4DnAs9Wz3de7l4FXge8/vB28M713uX9bKL1RNHE7RMf+Zj58H22+nT5snzTfb/37fIz9eP71fg99Df3F/rv8H/KseXkcHZzXgQ4BcgCDge84Xpx53FPBmKBIYGlgR1B2kGJQVVB94PNgrOC64P7QtxC5oScDCWEhoeuDr3JM+IJeHW8vjCPsHlhZ8LVw+PDq8IfRthFyCJaItHIsMi1kXejLKMkUU3RIJoXvTb6Xox1zIyYo7HE2JjY6tgncRPi5sadi2fET4vfFf86ISBhZcKdRJtERWJbEj0pLaku6U1yYPKa5K5J4yfNm3QxxSBFnNKcSkpNSt2R2j85aPK6yd1pbmklaTemWE+ZNeXCVIOpeVOPTaNP4087mE5IT07flf6RH82v4fdn8DI2ZvQJuIL1gudCf2G5sEfkI1ojeprpk7km81mWT9barJ5sv+yK7F4xV1wlfpkTmrMl501udO7O3IG85Ly9+eT89PwjEm1JruTMdOPps6Z3Su2lJdKuGV4z1s3ok4XLdsgR+RR5c4EO/NFvV9govlE8KPQtrC58OzNp5sFZWrMks9pn281eNvtpUXDRD3PwOYI5bXNN5y6a+2AeZ97W+cj8jPltC8wXLFnQvTBkYe0i6qLcRT8XOxWvKf5rcfLiliVGSxYuefRNyDf1JRolspKbS72XbvkW/1b8bccyl2Ubln0uFZb+VOZUVlH2cblg+U/fTfiu8ruBFZkrOla6r9y8irhKsurGar/VtWu01hStebQ2cm1jOau8tPyvddPWXahwrdiynrpesb6rMqKyeYPFhlUbPlZlV12vDqjeu9Fw47KNbzYJN13Z7L+5YYvRlrIt778Xf39ra8jWxhqrmoptxG2F255sT9p+7gf2D3U7DHaU7fi0U7Kzqzau9kydR13dLsNdK+vRekV9z+603Zf3BO5pbnBo2LqXubdsH9in2Pfb/vT9Nw6EH2g7yD7YcMjy0MbDjMOljUjj7Ma+puymruaU5s4jYUfaWrxbDh91PLqz1bS1+pjusZXHqceXHB84UXSi/6T0ZO+prFOP2qa13Tk96fS1M7FnOs6Gnz3/Y/CPp89xzp0473O+9YLXhSM/sX9quuh+sbHdrf3wz24/H+5w72i85HGp+bLn5ZbOiZ3Hr/hdOXU18OqP13jXLl6Put55I/HGrZtpN7tuCW89u513++Uvhb98uLPwLuFu6T3NexX3De/X/Gr7694u965jDwIftD+Mf3jnkeDR88fyxx+7lzyhPal4avK07pnzs9ae4J7Lv03+rfu59PmH3pLftX7f+MLmxaE//P9o75vU1/1S9nLgz+Wv9F/t/Mv1r7b+mP77r/Nff3hT+lb/be079rtz75PfP/0w8yPpY+Un208tn8M/3x3IHxiQ8mX8wV8BDCiPNpkA/LkTAFoKAAx4bqROVp0PBwuiOtMOIvCfsOoMOVjcAWiA//SxvfDv5iYA+7YDYAX16WkAxNAASPAEqIvLSB0+yw2eO5WFCM8G38d8ysjPAP+mqM6kX/k9ugVKVVcwuv0Xd2qDAuKWvdsAAACKZVhJZk1NACoAAAAIAAQBGgAFAAAAAQAAAD4BGwAFAAAAAQAAAEYBKAADAAAAAQACAACHaQAEAAAAAQAAAE4AAAAAAAAAkAAAAAEAAACQAAAAAQADkoYABwAAABIAAAB4oAIABAAAAAEAAACeoAMABAAAAAEAAABKAAAAAEFTQ0lJAAAAU2NyZWVuc2hvdG6i5usAAAAJcEhZcwAAFiUAABYlAUlSJPAAAAHVaVRYdFhNTDpjb20uYWRvYmUueG1wAAAAAAA8eDp4bXBtZXRhIHhtbG5zOng9ImFkb2JlOm5zOm1ldGEvIiB4OnhtcHRrPSJYTVAgQ29yZSA2LjAuMCI+CiAgIDxyZGY6UkRGIHhtbG5zOnJkZj0iaHR0cDovL3d3dy53My5vcmcvMTk5OS8wMi8yMi1yZGYtc3ludGF4LW5zIyI+CiAgICAgIDxyZGY6RGVzY3JpcHRpb24gcmRmOmFib3V0PSIiCiAgICAgICAgICAgIHhtbG5zOmV4aWY9Imh0dHA6Ly9ucy5hZG9iZS5jb20vZXhpZi8xLjAvIj4KICAgICAgICAgPGV4aWY6UGl4ZWxZRGltZW5zaW9uPjc0PC9leGlmOlBpeGVsWURpbWVuc2lvbj4KICAgICAgICAgPGV4aWY6UGl4ZWxYRGltZW5zaW9uPjE1ODwvZXhpZjpQaXhlbFhEaW1lbnNpb24+CiAgICAgICAgIDxleGlmOlVzZXJDb21tZW50PlNjcmVlbnNob3Q8L2V4aWY6VXNlckNvbW1lbnQ+CiAgICAgIDwvcmRmOkRlc2NyaXB0aW9uPgogICA8L3JkZjpSREY+CjwveDp4bXBtZXRhPgrhJSkqAAAAHGlET1QAAAACAAAAAAAAACUAAAAoAAAAJQAAACUAAA+1HNRVNwAAD4FJREFUeAHMW8uOHlcR7t6QhAVOwsIzRILEjteePzwBudiepwjkHjsYJEBIUSQ2wA7EAgy+zZiHiMd2LrzBzLAE4kuCyEwSCZtsEtiYqjpVdarqXLpn4khpZf6uy1dfVXd/c7r7H2c89/wHd4faNtaCGEsJLQLXQjUeyy0o5qLPnIkrFeIn+aN0CITBjZRuSO94KPNIF580nuuHjlRwwuVNnTUdxjn+pNoatAEq3dh1visOtI6qltOYGq6kd+qw712cBEpHsn0peUw7kvAaPYqyKq4a1GO3J6jgw0AoD24ugYTlQtxdW9wqbMW1dwRIFxNnUzJ5qGARztSFNLkT6YxpABthrLsLOUnnWSVCzOmjEtJsKze2ElDZTLEQiRxABjeee6Gx4iHYAKm29tHExAScCgrhMGmLCKVvJhShBJkrFYmvyBZXK46FlOsBEnv9QmtnPn3AE6iKGaUk4CSc9iWPy1dqcb5yqwQroaIuYnpCxOKAT8ecg1l4OVb0dIEvjLMEMI66arh2zpkBiXx7vsjNHpBo5syUkxgGBJzMiWGxiTXgcieTMKbmTUz4MES2ycWDsqm6cLmDBVKIA0VcJ3KtxvMvvi9zEcLdvjDSeqYyfLMuCHHZopqNU8M4bnjnlEUTaS1gXHF8CgCjx1XkTMCYls7ZkxgAGIxcFAmJT5wSbDWo5hkMOeQqIBpQw7GLI2JElJuJABCtlVdihfCkgeylUfLxkRE3eoTkUIU1ZTifnRbS98j4wiKCFotBz4AQGnBdIQrlFB/lO6BOqnqhZDjcm1ormPKie6wrJL6Y56DhF1iqhQ5Tt1Mo0DmUR41EF1zp0RZeo0AKcY+CsTAdgkCcCRitt4UazAZxca3nzRiylEeNAGB3Ii1FJMSZWHfwQoB7Wx9PUgtn45GDcoaUze55kRq6Y5nayT4M0BI1cmUlVJ2FcBUwMGXh1fO5mVgdHDa3aVnJbEwRGpSRNZA6BdeihFdGKvZUGwgKEARmQLCMes/47Y9tZWbfmpv2es/KZZD0wRHF9j3RY3wuKyES6WFq56GCb87B9eP5l24FjGExpsxU3c/FYXETaxLGLPpxToZGV2zCNmsh0cyFLhM47EcPHRM4ZWWcmzMm0Z/i6+WNINJ82oDuTNkTSx6b2Afu+nyCh32tv+lrkMlsckJvFV6N1DEZgL5wIMDELb4RthC1q1gb5FNCIRtXBj1pch6Kk6i1MQOJOmUmR2sSw4BJHNMyLk2DjsxVIaiEmCXtKC8g5BHbm1pj0hozNTKJCWVYtAouDhRxLoQ4TXjh5VvUR5sZYryItbiBZDYnRgynzrY/cdlASZQjTZwkkA1scXOlWoxwmOJ4ivoi4OqVHA2EWkJSvQQCT3AdjziAyS87wmOSYuJ+kg8ANUwtJrwu55x8mD4slX7vMOy4GIx2gYVHlSEpbHgKNKWGP+eINalU6gLOSXn4pNPLKUHEU65gAWgAjUqwEnIl4gCu3gsJOKNcakh1tXWZBB5X6pyQy9VqARwnkao8r0QUmUEmlE3AV0o0P5nzgDwHMPiUUiaDkwEzXnjlpuMoWEJBYM3uLByAGitjJmIr8IUhPdxhnQM4rMS+vqTnycsLlrT6jnJPN0QtbLM3zdQYrBHGdnRE3D99sdUBN1MmYUxzOMnUnBjt81kcv5QQk3NgxSuEx609DoIhMPWazjSVnjbjbdfCOQlnQsVBeqZiXB8w1RUBRSo61aZ3zKO//Pj9FF5+/L5h+fB9ZL955hMVLpabrmYcIaYuVBdPdQryp8BdEB1IcM71MTgplV8sk0r1PqB8MUx+7bxBg1Zv5eAh9iA8LU2GHIUcLUVtW+kQ6lqu8jUAtQMVKNTazhIu9tUeEkQGtiVUEOQACQzEJiJD32477/13QOHRZvhkTgyJbeu6X9oaHleDTpFLfxOncJErqtMsDuecXNAI9+YWoWOpHLMKj/jgQxK5U8VqNQeoJU/DIGOnAOkn0ghpYgpBpn7uOIBfWrh4lVeQmDRo6ZPohyeOH4CfbyCouu1cN8KzPDKJacOUDpVJzfA56C3DZRPEqzk1MqQSkmQ6cvjaA+5s+YVHsmFf5eFgJUdzXXwVn/FSG0+XC2tZxDpO53im5CVAUn86lMTbKGyEHXMXw8mAkWOhMHyI73jFCbUSxiP/LghvMSm8j20J20KKncXOsBgq5+OaSqlhSWYPI79IsahZwyso58u5IhH4jss5w3jx1RuZw+cCk0kaM4C8OwMnzfE8iJ1IGsWVMD5fLR+5f1iC290u3OI2N+6Eg0bGUGieUbGvzeocJmhMGu+J4w/OF14sJgb54GQPY3I6m5TbyQ1O0zWjiuNgNQckRTz/8zZqUeQrjQ1mvHjSCK+CnSa1bIiOlzGQGnjIkCsnlmAGK3E8Ayi0xeoBwstDvXDtvPf5cPn3H4nr94YvJySY58ZVWaIZ5y281S7gp7WlWy2veFNkLu+c/iAMzecGp8n1ZMGHzzcmFnDr+mVaRyDPb7avAho1mPfC6wCFDCG5mURreybb59cnNUaM4cq2+tpSKz2o8GYcC5EUuBhgQYYwCe9YW3hb1z4dNq/9h1okhvypwwdOjYtB+QaoEc4P+VFupgBMyWJUbGmb9ow3ZT7PXsgLl3zdJL6rhZrx4ilc8Wpp87e8QO5I2CGGGTj6zSBc7FkproRwhZsS3sYfdmGqVOy6VPhqx2IWDZOWYmQc6eViwcLD1Q23rWtwi4dNfHLwQ0op4JzyzPu0UmQDAD1ML4ckmleDqOmoTMidN0KYpDEpVfswmMTFeuL4uHbqetEjDuF5DSMmgitYS2qfY21csG5f8PnAfOHF2RJP0d/T6ygSpnPBUVsrt/hCZIiVYmVrGITzYNtDqzxEw8kwSWMGUAH1eSjs1UKunCsUBNfzs2cwVeERzICqJBK0qpKY3c/k0QObwC8//sC8FW+Ch0YkTHhIhkSvFOeUQ9aZM1m/GHE9csp7gO9BjdKHwsSISI5L2pQWJmEawEaYurmcc8KMRcfBC69SW5ZwZBILAMXISdEAkSzBbRO35SMPwLPZZ2TvwssBblKBtq1awme8U8sYrm74jLdxBm+1MzZLrPAYxEnSC83O9TSbQsFIWY5AaZ478hCNLfV2gC8fSl9ILx++H27dnw87N/+n+NwjnRvxiSLwpKIUFJycUOmhxGDs3EiPDcRc5WJ0yHnukLQNODWuvSa3Wi0tmQ0PmhGpvAanMWMswWq1WH2IIiI6k3bm9pX0lcjWldsujnU94SEYxVfbNv6YBLmAr0KW4IK2NhIuHMviWMLhxZdtC14Y8Fku5fxfKwSD+124gIjDc4X1i2fkRaQ8SVtv36ELjkJYPPPgUBMEcm69nV5WNt/+FF3dsIeswhq0BrVMfZcPfW1YPHmg2QPLNt9N/JvvSJ8wc3Btq/qLJxSEGhDee6ojyikADU0xtyb1zbaGsoNgQxLcCbiIILz9bNtX7wwiQFrxTrZXvB7/2k9uQnqEr0HgOzgQVWtDgaIwa5itt2AWEt5DRkwlE65SG2fT1zoovNWXD5YgjoigFk+LOJtQSiB+k0VIgZ7q+JKRqCcEF7uiAEWEPpd1oHETol8ETbCKdMaUHdd/mIVnsN40pD6RPfl/FTI0NVg58dCAP19k2756e9iCH9xQvKtfRHgw4OIYiKYjvF0QTWtF3AbhbfKKh6tTa9uL8FocvTjeEi+fb3xfKcsLX4wnnoLvHJ9q/3mv1wdzb178BG71cguGQL7IXFoEUrwRxmQpvA6Yu0ySZtw4fP93h7K7T+teCW/9p7jiJeGtdITXGxOFhyse1neFd8OseIf6K16vXy9XiM9dO3TuDkl081bSVi8UHYqPNtfDVkBCv7NtglS04/ppu+LhKoVbo7ARTjXmk3EnTn1r37dXwzao8IB36fD+V7x7KTxcMVd6Kx4JLz1TLpPw2l9622Pdq731Djxzwk9re+7X326l9hRH8V1eY/FBpShFSQptSACQeptV9DBeOv0P5VCD8qkQv2ygOLlClgkKiyF4S0Th3YsNhbd9Ld1qD34VhPfWbVjt4BGiI7xdI7ylL1F4eH43Lnxk3kYhwNdggbdYeK67V9vltY/5lht0wK7XD3elnMej54TXHBCQiTR9+2z+d27LrgeMQXq2O/5wk1ISu/w1Su/FA0W3ffXfVIIr3omT+xP0+s9uEAc+462AcPaz0a32KyY8vOWi+Ogq8YWeIzpcxXZv4jcASRiLJ/vPgWnVg78/6womUkv18XzKG26ZBR1dOv13qDYpY0Yi5zdwMsqJU490b7MouCtnPnSUOAYKS0S4AgLBzQvv6yC89lvt7vXPAJ/+dGUPC3kwhxvyzhUevmjg6mW5tkR4T7dfLmjFO5dutbTivTR9q92GW+bOjc949YLnM+A/+Bj8yxtYMae2tdffNzPCm/vEarf1Ltyi4Sduq88fHJYfa39NdHldVj1bCReuoQeLIptx46UfBeG5u7dhM2ZBZgOEG4dnf3vYRgvbiqlImsAKr5rb18yK92p7xUNxXfmTCLoyNIRQdFPC2wUB4OqG+7xlPuKYJby7QxJe+5cF+TfO7xYCl74nXliaFB+ueGn1Snen5371HSmv7tfe+MDH+dBQdKvPtb/6oVUPxOe2fFo4HALBRRALz9A4kDiyjgmO45KWsNkfPzmx4oFArp75F1dkvtQJP80/UgBPJqBb7Vzh0S0BKqWYbxFzhHfp5+m2bA7JmUl47dt1WvF2qGaO8NZfv+X4rUP1IL7ehqLbuJi+Xlk8CS8+nWc7Wu3+Uq52wo/Ca616KLwNKzy4dHJ6pd7t6dKWQhkv/RhXvPZKKaR4zcRO6OzlRgDiHiQ8uG1ObX+FlUxWsxLLZLRL/VB4x195pIRyhFa8s7LicVBGhYPAl6WVZx4ejnae8XCVu3I2iabVaI7wrpzboXOG3wmuvthf8dZfv2la8XGbyOqLS8MS3HZb216Et7EGLyP0bCds9jzD103fg5cS+Glta7/4Z5GSU+wSntbpZ/wzC69W4GLs2AZ6esCwcYSuHP/mcPTY9MuF9EAB4lYVoTZKz4BzhSdlOJvY2GOe8D7UNVePzfyr5ZWn4XYNP62NxHteVjx4Idqz8KQrTA7/oehWJ1a99Tdu0Tg/+OWjrbEovl1Z7aQbApYehefKznPexjoI95b5QhkHhP/iea4OATgEg/D+BvhUmIF2DELmVLQaaWR49jdHInqW71bBwD9nxbt6Vm7h0s6QgEnCmxDN1XNh1RQq2o/D0S9BeDilvAm6dnB97qXwPPfePSc8c2ozEweruYT6PwAAAP//JwGGwgAAEDxJREFUvVrbll1VEd3njcsToqMbFJKAY/hEd/8BkHQn/oSSAILDJxWVSwCD+OAvAAFyRfAHSDpc4g9IOniBKLkgkG4hoA8iPsWaVatqVa219qUxYQ/67FpVs2bVXmee2vucMDv443cvdzhm/NrzgqDAAmBWJgGTffO3X9vt/NG3QspmFmsnPu1OrX4aUsC564ffDD6/WH/vP93xZz4UV27FQ7qllRu7xeUbgs8v1s8Sx7MfeZfYjm9p+Wvd4o5hjmP7L3Le/G3Xdt+9/6aaz3kO7D1nq7iLsvPY6t2/3maYlnHshfXu4rkvuj1Pb22Fr5jv1Rc3uovn/yt8bk+qAhxrA2YHfyLCQ7ghrXHyslohxsWd9AbtvLFETV6z+EiA0v7lbg7Ce7BfzCwaEl55PX69tEI9kXD6jiw82pHiejTn6gjPvQONulOEt07C2321hXdgo1s//wXpRd6VGVlq6/64+UMuv/sp5xALL18wE1BMwkZTiZLj9JIzM7a05r99HQtmkSbNlzlWn/mgwyTDwVN0RHirOvGKYtrrNOHR1NSLLHiwnCK84/tlamLi7br/5gZLdh3YezYvYJVvADnGhHfgiXPMsfvpbZHrCq9OnfxX99bJf0ZW+qBgf6u2yaf7jgR8nqCx2aGfvuP9iLWPxidQgb7g5VblBNTJ92UEeOjhvzIL3sSdo8L7QFtzZ2os9YZpNzrxnku3a8cgppBcNeH17N/8Nrpd3zdyu/6KhPdqmni6n9UWsSPvdyveFl7PxVcEjCvBGLt4j52fzFLdeM5a2MQEXHvtUrd24lI3f9t104XnWvC9Ly7jGW/4VrvaEp67jqUdeMYb4DhHz4k68Ug0YxPv4ONnwx751vFhvgkc944I70lMTZqMv9rmL7eycZvE35c9eNpZg2bUdCHkFmTODj3UN/FUKi5BqRsuDcVzAs6UC9GYjOk3RYDrZz/vcMudJLxnWxMvdUblWXhDoqEvF6v7deJp70XfV1x478nehL3K+7W0/YZu8e7+LzNAHmThdd2uPTd389uugat5HHvxYi08uzwzmrntOxpyin0aoqHY7PBDf6EMeTzUSj4nPjQyNME8SjMb5yYMTm1UcnY+eAs9B17XIBDXBgnv+AThAbfKwqMaqbZU0nqzicJriTdzYtotbh+eeKvPf8hXidvkrvv6v4njCg8+AeH1H/c8fXt/kCJrb37WnaI/HCzSu/pFiml37IB84+aEoZeBRyxNi2LM9zrdccXp+4F1Ep6F+o30JipASOFU+gRIp8WVryuUbpGfmG1GwcfCo9vo0HH4kTPdHJ7xHrhlCNYdfvTMQFyEtzA68VrCI1q9vh10u54gPDQC4e2cLLxiPyl/ieqMTTsTHvU3v5WEvmf4tnyKvhycOgmh1vX0GtG7P+a3XkOTkn5GKd47jwk24zJYKwHTFl7GBp5q4XB+MmJ+LpDw8KfHaXpGW3/v8w4TqXVAqAv07NV3IH/ttU9IePSMNyI8nnrP9QiHCuBWu0DC6TtwWz9ht1pB8aa56128wsJDlbU36XfLN+R3S8yNORIsRDsmOuQefJImpuvvnqeGJyTXI+GJ+CA/SdYB50UCwS3dKRP02CFMSmAV4YqCFEfDJYEUpPjs8M/+nBhaaCUHWSue6cxKMBbechaexcmAMFSAEBIOPfOi8bIZ4Wm61sAa/DwJqT+IZkh4LFy6TebD7UPaVeSPTzyIfzZp4uVaXbdOX0xwQHRTjjUSEETru1y6m6bkwO3W8yK/FMvcFqkN0enBt2gWnnpw9rqgDmxphgeLTSEnPPN18Z7t80DmLo+52wWGhOcZp9onnn2/wyTClX3vN9+ZmhZwhx97l9eLO2i6Dky8jXP0nLi/MTHdpS5uJ/HSX98B8ay+IBx8q723/0fvPo6pfhHeJYJTg67H7+8bn3pTawAH4R13wjMluJrA6VKmqKJib7MjP9eJh5R8OHiWmjJmWK+1sPINunW2J15vUk8AE+jEc+9bdOUHt45OSAM74wiER9ewAOENiIaF93xDeI5rTHgb+DnlKxDe2slPO/zlI79Ji3dNn3o5v99aP0/XBOFxiVxHM6AZ85qhUXHYj21ReCo3gGOmTsHoDfNPK/D5SgoPogu3Tfr2u3L/raHelMWRvTLxpgjvxPN/Z8q8I/HKx4VHUzMJb24bPZdepYl3aN/fBi998S56JJh4yx0koiAL73Dft2G3P85sclKcJt6f8t5WKDBQOBCFRZWh2DuWr8zEO/36J93p1z+mOrEui4cm12aOI3vfYZ7NCK/k181a3D5haqrw8IVoz5W/1a4e+JDFUPYY1rRtPPnu7P/pJ+AHFsPCQyIVs98h4/sVaAFrCm8gpyTI65iEh/nlB7bk8CYtTLi33/i426Bvwu1pO+Nb5h2bEJ8IT2+1/aLFrVYnXmjbXeIChHd3/zMe365flNs1T7wR4W2c/7yb2zr8c5L2skG3vLWTlzqc9QPJH4j0pkub8mofFNx2/w/xrV+gmr//rFu/0PMvHm5vpE91aAfaauru6C/+SBEF1bdOjciF6aUPnDUhQRZo8uG4Y4eck7v3ZILjLxK9MAssJN4xAbKY9tNzIvXHoiHh9B2MfUFutRmDHcgXN0144MC3Wno0GBHe4V+eoZ9N6AsL3Rr7DghNReda6YGnXnPLjFsg8eEbK37rm3JAcKdZcPJNG3VVSkIt/3OAcmk5DAuzNejOMxEePA6mpgMi7rdeHxItLWDbi7nbrudA+dMJ3mgcG2f/zWd5KZtw1csQJWCqKL+SbJwTPuFvJCmQQrqZ6mqemcLz+Czvp2y3xCRb2TPyo/e+M5bSEh9uc5iK+FVLqroCrWarcOXgCah3E08hk5Se6Uh0+aD8moLDugsSbuOAsXRAWHjmyWWaVhPnnSJHyRW/RrU53rapvwmCSAmsIe/IrJv9nTESO55UUD1lq+q3dszQvoAgW5e0miK8IyS8eCSe6DRe+8GXZBh7SoVd/ZJC1m1c5HKZFV/lCLQ5s4Ej1+zow7jVlod3uURnlhmD65QH1kyRLds6epezVz/Zwuz9AURh6VYQ8q/OAd0gEFf7VXPTHvBSfXWG3ymLFjlzdFtb2TP8LfzIPvnGbRxmEFl/eUNxHwkae2okN1zNIgkX+bSkklC0/HQqpDxrCvlnLz38NvO2yZGZ0PZtRdkci7oc3Luadk+61Ss+x+zvzakr6ESALPO+xOeROst5ptbK5Jxc7iNoMPGWpwpvtK4DsImKzpcuQfuYpf7s0SjFq1NNkSBFgJbGHWrVOPUo3tc04Xmnvw6fpETAmt87faIRErJ4cyy0WSPUQnLliIzNsDrtCrg/t4ocfqWp3hfsBChwLLzdwxPv6FOYeNqFEOhq7DKlBcop6obWErveU1iIAR8WMTWEwoJx2qdF2LBVwmAUJB+dZi89golXpcbCWPHEi2Q1KDFlfoPkCQTXhHqaOV5SkIybAJ4A4Q4TzjYr9VNNjgl8c1uv75ZHhYffGP0BYton5pciumseZXboIywMEoweiNRwQWeGfFsUgGJpMDMIgP9eeuR0cT0ps7q1IrNgNUzhtyLRQKGIlJU0QK+09HEvVu9XUNE4FwPO/JZkhmsIKOd3pgP1mAROeKvVg4RbJt6WAUTXHX2qFF6CW19qxL6tfgrjZD6rqLklpwEaBuVwGj5qko/XmpucEnYclUNizj377aMivCaho2LTJZahXN0zDSQMhAJ3wIVFgNkiQbSLMkP9gndRNjXq/EbsjCqcHcKQeRCB8Hbs3uIIoomfSV47eIGchM5UEVSuwuNLrudh8CpMET4eio3WTQA6RSmKGBH1NVA3r1OuK07CW6N4HRCM3Fi0e4/KpI6tMlOGTUYFeCb10bnH7RA9ptbRsHY3TshIBxPTfwlRLvTngFqqdTaYGCy8e7YYEkL7xwX6X8MupN8Zaa2HpZJDJ83kfeFkZUDfait7OpPbXZULFvhi6YDO1N93ibHYn3YNSiVcEp7jKU0urh2UVOrPSYxIbh8tMznDAxoOCefPV67SsCouYLwzdcAu729wkUt/WFWkZGPlr4TWCmjTsBfPeIqD6EYP44z1cmUDGG+b0+EYQAzsKv3xqhhKEKBM/O0C2VvxotueOuCWiZfz2arxBSAtWeF5OzKoIMCyASvf3JwfrZyKR31aJfrWpoRSRRuZVQOJWZdKnIHRMpy6eyYjeCqs5rTODuzMFrL0yR5uIomhHo898OtUwbl0/+ES2wUBL5aJoQ443Ozlx3CrBaGnFy71GJFLNF9pMAYvVTb5PIHGva8kK1KqsMsNt3Md/5KglSzdpZmPDQQqNPnI35sTGSRb8Oii9eGIGW5lNcxIQe3J+Z3p3y1FwseQhMt+V89MAgU+RQenoMmFaIzISrMAxEzya0sWoyPhnWrEM60KMnuYNpPGQKLd7CmR8Klup7zM4qobxUAUebDit6LoN6KkUumr6xUkZQdFWMXn5yNSLhfPRPD5VOvDnGYgu0DXS/IUR8qnk3EXiLBs9BfiujCcskodXSnMzhQW4aV+LNAypmBo23Ix2W7d9IoSxcmZ8RVC3gQCtTGTGoqkvSllgD5uaTM10u6B6BXAlcJiQm3gC2Z7E2M6VgXS1da6QKhd5LPb14u4fm7PE3MsUrnVoay6TtdAy9nLe99K0Rw0QjX4NjYQV1zPGeKT/dRGAMx88NqKjeDpYRW3ZwQL0s03tW8rXpbyAWJ1orAaZQrWPi0uanTA1uGCLANSXruPBmnDlblLFhogDTxcEUmeBi43qVYCOawTnoLkDAwXceBcxZcPgAyJdD0rq5KLBqRyD9RTvELTGhnikldjsGfBIkF59DwY1mCu4t8Aq6Vc4ay5yVksA9QWADlWzmknOpS0lLDeb7TeCHRYaEYI8KYiUnjZoxmgxWfUr+Hzx+wVmngVkWPVZOfifPW7qyO/eckuM3zZHntqCk8eXwt8jeSGK1eWoLA4LjfVMnbMIi6rpVzmsF3JHuHDVIFPMtKXASvlvpiUiYbxRiLzrpaduHofgXyO1YVRX5dBmzjNkCC/0ouxvPK43mqNxhWBL7Gmk0eVtpK6rADRDWYn8YFSv7xkYC7EVl5a0xnrLIcTb+Vw4B6TUnKP8a2JK5c/WAbBtCtTBV3xRYftcXSnhlw9a5F8TawB2AjXN4r3AOpoE9emdWavPP4Hu5bQiud2n8uMIYDHlCw+lpOalqbm/pGsXk1xhM70KOcOAlIGOXtUijRcMafG6QaO4XK8LEKds6v054zKauDlgzvAUYUqRyyTwoPX5zMCHRb6joRA1ApduAivwIBXXUrja1kwOHWhmbouGVK8hCl87FzllQ7UK315OxqhVLHIKZbttghkz4yK8N/s1efOjldNeZN79klTFazr6iwAz5I/yO76OQ9YRSbiUf6UkUhbcGXEHuPBwdZVrxT/3ROYeB5SUyKqNLxJNQS1+PBMyYXkCUcJUibnd+Y4IYENr1zIMidTcCS5fCRntLzk8+6RZoQrPcM18rRWGfK95RIlKkUqd+UIFFpTnIr1XvKpO2c2rH6cZwtklPI/tbXBC8Lf9Q0AAAAASUVORK5CYII=;" vertex="1" parent="1">
          <mxGeometry x="674" y="274.75" width="85.41" height="40" as="geometry" />
        </mxCell>
        <mxCell id="KJkxDrLsRBGmN8-yk9LA-20" value="Opsigelses bekræftelse (pr. d.d.)" style="html=1;verticalLabelPosition=bottom;align=center;labelBackgroundColor=#ffffff;verticalAlign=top;strokeWidth=2;strokeColor=#0080F0;shadow=0;dashed=0;shape=mxgraph.ios7.icons.mail;" vertex="1" parent="1">
          <mxGeometry x="884" y="286.5" width="30" height="16.5" as="geometry" />
        </mxCell>
        <mxCell id="KJkxDrLsRBGmN8-yk9LA-21" value="Deaktivere relevante pin-kode i slutningen af måneden" style="aspect=fixed;sketch=0;html=1;dashed=0;whitespace=wrap;verticalLabelPosition=bottom;verticalAlign=top;fillColor=#2875E2;strokeColor=#ffffff;points=[[0.005,0.63,0],[0.1,0.2,0],[0.9,0.2,0],[0.5,0,0],[0.995,0.63,0],[0.72,0.99,0],[0.5,1,0],[0.28,0.99,0]];shape=mxgraph.kubernetes.icon2;kubernetesLabel=1;prIcon=api" vertex="1" parent="1">
          <mxGeometry x="1164" y="257.77" width="50" height="48" as="geometry" />
        </mxCell>
        <mxCell id="KJkxDrLsRBGmN8-yk9LA-25" style="edgeStyle=orthogonalEdgeStyle;rounded=0;orthogonalLoop=1;jettySize=auto;html=1;" edge="1" parent="1" source="KJkxDrLsRBGmN8-yk9LA-23">
          <mxGeometry relative="1" as="geometry">
            <mxPoint x="654" y="399.75" as="targetPoint" />
          </mxGeometry>
        </mxCell>
        <mxCell id="KJkxDrLsRBGmN8-yk9LA-23" value="Manglende betaling" style="shape=image;verticalLabelPosition=bottom;labelBackgroundColor=default;verticalAlign=top;aspect=fixed;imageAspect=0;image=data:image/png,iVBORw0KGgoAAAANSUhEUgAAAHAAAABwCAYAAADG4PRLAAAMTWlDQ1BJQ0MgUHJvZmlsZQAASImVVwdYU8kWnltSIQQIREBK6E0QqQGkhNBC7wiiEpIAocSYEFTs6OIKrhURwbKiqyCKHRCxoa66sih217JYUFlZF9fFrrwJAXTZV7433zd3/vvPmX/OOXfm3jsA0Lv4UmkeqglAvqRAFhcSwJqUksoi9QAMaAAyQIELXyCXcmJiIgAsw+3fy+sbAFG2Vx2UWv/s/69FSyiSCwBAYiDOEMoF+RAfAgBvFUhlBQAQpZA3n1kgVeJyiHVk0EGIa5U4S4VblThDhS8P2iTEcSF+DABZnc+XZQGg0Qd5VqEgC+rQYbTASSIUSyD2h9g3P3+6EOKFENtAGzgnXanPzvhKJ+tvmhkjmnx+1ghWxTJYyIFiuTSPP/v/TMf/Lvl5iuE5rGFVz5aFxiljhnl7nDs9XInVIX4ryYiKhlgbABQXCwftlZiZrQhNVNmjNgI5F+YMMCGeKM+L5w3xcUJ+YDjEhhBnSvKiIoZsijPFwUobmD+0UlzAS4BYD+JakTwofsjmpGx63PC8NzJlXM4Q/4wvG/RBqf9ZkZvIUelj2tki3pA+5liUnZAMMRXiwEJxUhTEGhBHyXPjw4ds0oqyuVHDNjJFnDIWC4hlIklIgEofq8iUBccN2e/Klw/Hjp3MFvOihvCVguyEUFWusMcC/qD/MBasTyThJA7riOSTIoZjEYoCg1Sx42SRJDFexeN60oKAONVY3E6aFzNkjweI8kKUvBnECfLC+OGxhQVwcar08RJpQUyCyk+8KocfFqPyB98HIgAXBAIWUMCaAaaDHCDu6G3qhXeqnmDABzKQBUTAYYgZHpE82COB13hQBH6HSATkI+MCBntFoBDyn0axSk48wqmuDiBzqE+pkgueQJwPwkEevFcMKklGPEgCjyEj/odHfFgFMIY8WJX9/54fZr8wHMhEDDGK4RlZ9GFLYhAxkBhKDCba4ga4L+6NR8CrP6zOOBv3HI7jiz3hCaGT8JBwndBFuD1NXCwb5WUk6IL6wUP5yfg6P7gV1HTDA3AfqA6VcSZuABxwVzgPB/eDM7tBljvktzIrrFHaf4vgqyc0ZEdxoqCUMRR/is3okRp2Gm4jKspcf50fla8ZI/nmjvSMnp/7VfaFsA0fbYl9ix3EzmGnsAtYK9YEWNgJrBlrx44p8ciKezy44oZnixv0JxfqjF4zX56sMpNyp3qnHqePqr4C0awC5WbkTpfOlomzsgtYHPjFELF4EoHjOJazk7MbAMrvj+r19ip28LuCMNu/cIt/BcDnxMDAwNEvXNgJAPZ7wFfCkS+cDRt+WtQAOH9EoJAVqjhceSHANwcd7j59YAzMgQ2Mxxm4A2/gD4JAGIgGCSAFTIXeZ8N1LgMzwVywCJSAMrAKrANVYAvYBmrBHnAANIFWcAr8CC6Cy+A6uANXTzd4DvrAa/ABQRASQkMYiD5iglgi9ogzwkZ8kSAkAolDUpB0JAuRIApkLrIYKUPWIFXIVqQO2Y8cQU4hF5BO5DbyAOlB/kTeoxiqjuqgRqgVOh5loxw0HE1Ap6BZ6Ay0CF2CrkAr0Rp0N9qInkIvotfRLvQ52o8BTA1jYqaYA8bGuFg0loplYjJsPlaKVWA1WAPWAp/zVawL68Xe4UScgbNwB7iCQ/FEXIDPwOfjy/EqvBZvxM/gV/EHeB/+mUAjGBLsCV4EHmESIYswk1BCqCDsIBwmnIV7qZvwmkgkMonWRA+4F1OIOcQ5xOXETcS9xJPETuIjYj+JRNIn2ZN8SNEkPqmAVELaQNpNOkG6QuomvSWrkU3IzuRgcipZQi4mV5B3kY+Tr5Cfkj9QNCmWFC9KNEVImU1ZSdlOaaFconRTPlC1qNZUH2oCNYe6iFpJbaCepd6lvlJTUzNT81SLVROrLVSrVNundl7tgdo7dW11O3Wuepq6Qn2F+k71k+q31V/RaDQrmj8tlVZAW0Gro52m3ae91WBoOGrwNIQaCzSqNRo1rmi8oFPolnQOfSq9iF5BP0i/RO/VpGhaaXI1+ZrzNas1j2je1OzXYmhN0IrWytdarrVL64LWM22StpV2kLZQe4n2Nu3T2o8YGMOcwWUIGIsZ2xlnGd06RB1rHZ5Ojk6Zzh6dDp0+XW1dV90k3Vm61brHdLuYGNOKyWPmMVcyDzBvMN+PMRrDGSMas2xMw5grY97ojdXz1xPplert1buu916fpR+kn6u/Wr9J/54BbmBnEGsw02CzwVmD3rE6Y73HCsaWjj0w9hdD1NDOMM5wjuE2w3bDfiNjoxAjqdEGo9NGvcZMY3/jHONy4+PGPSYME18TsUm5yQmT31i6LA4rj1XJOsPqMzU0DTVVmG417TD9YGZtlmhWbLbX7J451Zxtnmlebt5m3mdhYhFpMdei3uIXS4ol2zLbcr3lOcs3VtZWyVZLrZqsnlnrWfOsi6zrre/a0Gz8bGbY1NhcsyXasm1zbTfZXrZD7dzssu2q7S7Zo/bu9mL7Tfad4wjjPMdJxtWMu+mg7sBxKHSod3jgyHSMcCx2bHJ8Md5ifOr41ePPjf/s5OaU57Td6c4E7QlhE4ontEz409nOWeBc7XzNheYS7LLApdnlpau9q8h1s+stN4ZbpNtStza3T+4e7jL3BvceDwuPdI+NHjfZOuwY9nL2eU+CZ4DnAs9Wz3de7l4FXge8/vB28M713uX9bKL1RNHE7RMf+Zj58H22+nT5snzTfb/37fIz9eP71fg99Df3F/rv8H/KseXkcHZzXgQ4BcgCDge84Xpx53FPBmKBIYGlgR1B2kGJQVVB94PNgrOC64P7QtxC5oScDCWEhoeuDr3JM+IJeHW8vjCPsHlhZ8LVw+PDq8IfRthFyCJaItHIsMi1kXejLKMkUU3RIJoXvTb6Xox1zIyYo7HE2JjY6tgncRPi5sadi2fET4vfFf86ISBhZcKdRJtERWJbEj0pLaku6U1yYPKa5K5J4yfNm3QxxSBFnNKcSkpNSt2R2j85aPK6yd1pbmklaTemWE+ZNeXCVIOpeVOPTaNP4087mE5IT07flf6RH82v4fdn8DI2ZvQJuIL1gudCf2G5sEfkI1ojeprpk7km81mWT9barJ5sv+yK7F4xV1wlfpkTmrMl501udO7O3IG85Ly9+eT89PwjEm1JruTMdOPps6Z3Su2lJdKuGV4z1s3ok4XLdsgR+RR5c4EO/NFvV9govlE8KPQtrC58OzNp5sFZWrMks9pn281eNvtpUXDRD3PwOYI5bXNN5y6a+2AeZ97W+cj8jPltC8wXLFnQvTBkYe0i6qLcRT8XOxWvKf5rcfLiliVGSxYuefRNyDf1JRolspKbS72XbvkW/1b8bccyl2Ubln0uFZb+VOZUVlH2cblg+U/fTfiu8ruBFZkrOla6r9y8irhKsurGar/VtWu01hStebQ2cm1jOau8tPyvddPWXahwrdiynrpesb6rMqKyeYPFhlUbPlZlV12vDqjeu9Fw47KNbzYJN13Z7L+5YYvRlrIt778Xf39ra8jWxhqrmoptxG2F255sT9p+7gf2D3U7DHaU7fi0U7Kzqzau9kydR13dLsNdK+vRekV9z+603Zf3BO5pbnBo2LqXubdsH9in2Pfb/vT9Nw6EH2g7yD7YcMjy0MbDjMOljUjj7Ma+puymruaU5s4jYUfaWrxbDh91PLqz1bS1+pjusZXHqceXHB84UXSi/6T0ZO+prFOP2qa13Tk96fS1M7FnOs6Gnz3/Y/CPp89xzp0473O+9YLXhSM/sX9quuh+sbHdrf3wz24/H+5w72i85HGp+bLn5ZbOiZ3Hr/hdOXU18OqP13jXLl6Put55I/HGrZtpN7tuCW89u513++Uvhb98uLPwLuFu6T3NexX3De/X/Gr7694u965jDwIftD+Mf3jnkeDR88fyxx+7lzyhPal4avK07pnzs9ae4J7Lv03+rfu59PmH3pLftX7f+MLmxaE//P9o75vU1/1S9nLgz+Wv9F/t/Mv1r7b+mP77r/Nff3hT+lb/be079rtz75PfP/0w8yPpY+Un208tn8M/3x3IHxiQ8mX8wV8BDCiPNpkA/LkTAFoKAAx4bqROVp0PBwuiOtMOIvCfsOoMOVjcAWiA//SxvfDv5iYA+7YDYAX16WkAxNAASPAEqIvLSB0+yw2eO5WFCM8G38d8ysjPAP+mqM6kX/k9ugVKVVcwuv0Xd2qDAuKWvdsAAACKZVhJZk1NACoAAAAIAAQBGgAFAAAAAQAAAD4BGwAFAAAAAQAAAEYBKAADAAAAAQACAACHaQAEAAAAAQAAAE4AAAAAAAAAkAAAAAEAAACQAAAAAQADkoYABwAAABIAAAB4oAIABAAAAAEAAABwoAMABAAAAAEAAABwAAAAAEFTQ0lJAAAAU2NyZWVuc2hvdO+lkOYAAAAJcEhZcwAAFiUAABYlAUlSJPAAAAHWaVRYdFhNTDpjb20uYWRvYmUueG1wAAAAAAA8eDp4bXBtZXRhIHhtbG5zOng9ImFkb2JlOm5zOm1ldGEvIiB4OnhtcHRrPSJYTVAgQ29yZSA2LjAuMCI+CiAgIDxyZGY6UkRGIHhtbG5zOnJkZj0iaHR0cDovL3d3dy53My5vcmcvMTk5OS8wMi8yMi1yZGYtc3ludGF4LW5zIyI+CiAgICAgIDxyZGY6RGVzY3JpcHRpb24gcmRmOmFib3V0PSIiCiAgICAgICAgICAgIHhtbG5zOmV4aWY9Imh0dHA6Ly9ucy5hZG9iZS5jb20vZXhpZi8xLjAvIj4KICAgICAgICAgPGV4aWY6UGl4ZWxZRGltZW5zaW9uPjExMjwvZXhpZjpQaXhlbFlEaW1lbnNpb24+CiAgICAgICAgIDxleGlmOlBpeGVsWERpbWVuc2lvbj4xMTI8L2V4aWY6UGl4ZWxYRGltZW5zaW9uPgogICAgICAgICA8ZXhpZjpVc2VyQ29tbWVudD5TY3JlZW5zaG90PC9leGlmOlVzZXJDb21tZW50PgogICAgICA8L3JkZjpEZXNjcmlwdGlvbj4KICAgPC9yZGY6UkRGPgo8L3g6eG1wbWV0YT4KwyI/xwAAABxpRE9UAAAAAgAAAAAAAAA4AAAAKAAAADgAAAA4AAAFYaeVZwoAAAUtSURBVHgB7JxfaBxFHMe/M3u3e2n+3CVF0aoVa4yx7Yvog1AFUdvSUg0UX0Ko0ictSW01FMEKiZFatahtodGX+lBRkIItvoiCfamlIvSh4J9qa+uDgramSe7y5/budteZrSS53Ho7m1zWmWMGArczv5n5zfeT+bt/iMcCdFBWAaIBKsvOd3xBAHmfdRwHnufCdXUHjvIvQCkBpZT9GSAkSs5gW2GAruvCtgsoFAooFkvBpenYSAokkwmYpgnLMn2okTL/axwKkIObnJxm8OyFlK/zCCpgWRYaGxsig6wKcHo6j6mpaTZU6mFSkMOizAgbUxsblyGVsoTLCQTIgU1MTPpDpnBJ2rBmCnCATU2NQuVVAOTwstkJNs8VhQrQRkujgGkm0dLSHFp4BcBcbkL3vFDZ4jEQ6YllAPmcNzk5FY93uhYhBfhQWm1OnAHIV5ujo+N6wSIka3xGfGHT2pr+z9XpDMBcji9a9FYhPjTiNTU0pPzVaVAOHyDvfdevjwWl6zgJFOAnNq2tmcBe6APUc58ElEJc4PtD3hPnBx/g+HhWH4/NV0aya37slk63VHhF2PDpjYyMViToCPkUWL68reIAnJRKJY+vPnWQXwG+GjUMo8xRwu4weNlsrixSX8ipQDrdjGQyWeYcA2gzgBNlkfpCTgVaWpr8209zvSP5vO3x4zMd5FegubnJv3c411MNcK4akv/WACUHFOaeBhimkOTpGqDkgMLc0wDDFJI8XQOUHFCYexpgmEKSp2uAkgMKc08DDFNI8vS6B+iNjaHw5dfwLlz0UZDODpgbHwPJZCRHI+ZeXQMsfHUKGD4MUsqXqeElG4DeXTCfeLQsXsWLugVYPPsd8MYgwF62CQyEwts7BPOhBwOTVYmsT4DsQWR723bQsT+rcnBbV8A6dhQVd0Sr5pIrsS4Bli5egvdin5DS5OAwEu2rhGxlNKpLgPap06Dv7hPS29m0FbTjngpbwh5VSK7pBLtXU5EmU0T9AGTPr9qffwHvzBnQyxdA3MW/x+ElUvC2bIW1vQfsuQWZuM34oj5A/pLp8RPA8U9B89mZhtXyh3P/OqSGXpVyrlQaoPv3CApD+2Fc/r6WvALLcnv7YW1aH5j2f0YqC9C5eg2l3f2g2aux6Oes7ERq+GAsdUWpREmALntep7ijL3SbEEWIMFs+H5onT4aZxZ6uJEB7YB/oudOxiqUB1kju4jffAm8O1qg08WKcO+9D6sh74hlislSuB+affwHG77/EJM9sNe7OPbA2Pj4bIckvpQCWfvoZ3p5dsUvnPvAIrMFX9DZiscrbR4+BnvhkscUI5/c38l1Pw3qmW2/khVWrYpjvewnGbz9WsZhN4uK767eAtN8Fwj5jFSmwtycpO0pL8KM09tUkmYNSQ6jdvQ00dy1cT8K+OfbWO0isZgDqPCgFsPDUk0JnnM4d9yL1/qE6R3ejeWoB7OoCccI/uuDc3oHUB4c1QNkUsHueBR3/K9wtNoRi/wEk164Ot1XcQqkemN/ZD+PKD0KSe4YFdwNfxKwKXMSQNvZqclsGidtulX6hUq3BSgG0P/wI9LOPq7UncppHk3Db14A8vA7m5g0gEb4KGLmyJcigFMDSpSvwdu9YAhluFOk1ZOB198Dq2iztvm9+45UCyJ23n+sF/ePX+e2o6bVz91qYrw+ACnwZsKYVL6Aw5QAWz50HBl5eQFOjZXHTN8M48DYSK26JljFma+UAcn3ye1+Dcf7skkvl3rQS5pFDIMvYg8CShiCA/wAAAP//CCx5ygAABUlJREFU7VxdaBxVFP7ubGZn87ebxKBSH9TG+g8Vf1Ck4h/oi9CAFB9EQV+KGqkixSoxUokPglXbkFYflFJrHy1VQq0BfbHogyBiFGNSHyq1FpufzSbdndmduc5Zsymzs7uzSWZm527vfZm955x77pnv49y5P7PDcjmdZzKLiGrhF7IwXtgB5d/TgYdo3nYvEsNDgfez1g46OzugaXFHcxZ1Ainawt//wNz5KpT0OUfwgVR2vwP1js2BuF6vU2EJpBu3FjIw3tiN2KmJ9eJQs711VR+0j0Zr2jRKKTSBRdBME/oXx8GOHAbLzgeGI9v7IVr6rgnM/1odi0/g8p3znA7j+Dj4dyehTE2AWfm1YlKxnfn4U0g882RFXSOFTUOgA0TDQOHsOfDzs+Czsw4VVbhlgU//CWV8DKyQc+krCcxrb0FiZE8lVUNlzUlgnZDmJ34DXttpM2p6trC6roR2+KCnXdgGlzSBBHZu+4uInZnyxJ3HNMSPHfO0C9vgkidQ3z4A5cy0J+6SQE+IwjfI/2IPoa/XOYQmL4d25FD4QXr0KG4G6jryv/4OPuOepHjc8/Ik5hSUr+1JjKl7mRf15sZbkdj3bl22YRqJRyCt+z7+FGzsaN3g+wGoXEb4gSLnyA2+hdjP3/vhbVU+2J4RtNywaVVtwjAWKgP1sRNQDrwfBi6OPsyrb0JiNPx+HUFUqQhFYO65HYj9NVnlVoIT88FhxO+5M7gO1uFZKAKNrVtDfe4RruZdDyDx5q51QBxsU7EI7O+ve+vLD9is7g2IHxgB62j3w10gPoQiMPe8PYSeDmcItVJXQN37HpTeywIB3i+nQhGo26cNymjwG8rmps3QhnaBdXf7hXNgfoQiELSMGBpG7KeTgQDCW7vAtz0BbVs/wFggffjtVCwC6e5pIX/wM7AvP/flecgVFVbfzWD3bYH22KNA3Pl+id+A++1PPAJLCNCZn72VZp2fKUlWrtbkH4h9dXSlXuuH9cogtAe31DKJtE5cAmvAWpiaBn95oIbFRRX7YD9artt4USDYr6YkkJ6V+tPPQpk7W5MOq2cDtEOf1LSJurI5CbRRN374Eext+31OblXmgCmAvcOi3n17Zb0g0qYlkPA3xr8F9u8Dy2cddHC1FRh4CfGH73fIRaw0NYFECJ+fh3HiG/DJ/1+bYDdeD/WRh6B0pUTkyxVz0xPouuMmE0gCBSdUEigJFBwBwcOXGSgJFBwBwcOXGSgJFBwBwcOXGSgJFBwBwcOvmIG6rvOFheh+5EBwzH0NP5nssM+gnYfQzDAMnk5nfO1IOgsGgVSqE6qqOpyzQqHA5+bSDqGsRBOB7u4UYrGYIzhmWRafmZlzCGUlmgj09va4AmPcLun0AvL5gkspBdFBQFVbkEolXQEVCcxmc1hauuBSSkF0EGhvb0Nra8IVUJFAexjF7Gxw311x9SoFq0agp6cLimK/GlJWigSSLJNZgr2kKFPLahQQSCQ0dFT5z8YKgZSFNBu1H4lRiFnGsIwAs98ap9lnpewjkxUCqWJ/+A6Li0v0U5aIIECZRxlYrTgIJCMikIiUpfEI1Bo6S9G5CCQF7czk8/5+f6zUobzWh0A8riKZ7PQ0rkggtaJlBS0vZAkfgXoyrxRVVQLJgIZSIlJObEpwBXulCQut92o988ojqEkgGds7bXYmZmU2liPnc51Ia2trrTrbrNadJ4GlhrTM0HUD9umF3HYrgbLOK22P0fEQfQe72jLBq4u6CSx3ZNp/viRSKUNlqR8BRWFFsspPFer34LRcM4FON7LWKAQkgY1C3qd+/wOYSzT8956LawAAAABJRU5ErkJggg==;" vertex="1" parent="1">
          <mxGeometry x="524" y="369.75" width="50" height="50" as="geometry" />
        </mxCell>
        <mxCell id="KJkxDrLsRBGmN8-yk9LA-24" value="Håndteres af stripe" style="shape=image;verticalLabelPosition=bottom;labelBackgroundColor=default;verticalAlign=top;aspect=fixed;imageAspect=0;image=data:image/png,iVBORw0KGgoAAAANSUhEUgAAAJ4AAABKCAYAAABKKu1CAAAMTWlDQ1BJQ0MgUHJvZmlsZQAASImVVwdYU8kWnltSIQQIREBK6E0QqQGkhNBC7wiiEpIAocSYEFTs6OIKrhURwbKiqyCKHRCxoa66sih217JYUFlZF9fFrrwJAXTZV7433zd3/vvPmX/OOXfm3jsA0Lv4UmkeqglAvqRAFhcSwJqUksoi9QAMaAAyQIELXyCXcmJiIgAsw+3fy+sbAFG2Vx2UWv/s/69FSyiSCwBAYiDOEMoF+RAfAgBvFUhlBQAQpZA3n1kgVeJyiHVk0EGIa5U4S4VblThDhS8P2iTEcSF+DABZnc+XZQGg0Qd5VqEgC+rQYbTASSIUSyD2h9g3P3+6EOKFENtAGzgnXanPzvhKJ+tvmhkjmnx+1ghWxTJYyIFiuTSPP/v/TMf/Lvl5iuE5rGFVz5aFxiljhnl7nDs9XInVIX4ryYiKhlgbABQXCwftlZiZrQhNVNmjNgI5F+YMMCGeKM+L5w3xcUJ+YDjEhhBnSvKiIoZsijPFwUobmD+0UlzAS4BYD+JakTwofsjmpGx63PC8NzJlXM4Q/4wvG/RBqf9ZkZvIUelj2tki3pA+5liUnZAMMRXiwEJxUhTEGhBHyXPjw4ds0oqyuVHDNjJFnDIWC4hlIklIgEofq8iUBccN2e/Klw/Hjp3MFvOihvCVguyEUFWusMcC/qD/MBasTyThJA7riOSTIoZjEYoCg1Sx42SRJDFexeN60oKAONVY3E6aFzNkjweI8kKUvBnECfLC+OGxhQVwcar08RJpQUyCyk+8KocfFqPyB98HIgAXBAIWUMCaAaaDHCDu6G3qhXeqnmDABzKQBUTAYYgZHpE82COB13hQBH6HSATkI+MCBntFoBDyn0axSk48wqmuDiBzqE+pkgueQJwPwkEevFcMKklGPEgCjyEj/odHfFgFMIY8WJX9/54fZr8wHMhEDDGK4RlZ9GFLYhAxkBhKDCba4ga4L+6NR8CrP6zOOBv3HI7jiz3hCaGT8JBwndBFuD1NXCwb5WUk6IL6wUP5yfg6P7gV1HTDA3AfqA6VcSZuABxwVzgPB/eDM7tBljvktzIrrFHaf4vgqyc0ZEdxoqCUMRR/is3okRp2Gm4jKspcf50fla8ZI/nmjvSMnp/7VfaFsA0fbYl9ix3EzmGnsAtYK9YEWNgJrBlrx44p8ciKezy44oZnixv0JxfqjF4zX56sMpNyp3qnHqePqr4C0awC5WbkTpfOlomzsgtYHPjFELF4EoHjOJazk7MbAMrvj+r19ip28LuCMNu/cIt/BcDnxMDAwNEvXNgJAPZ7wFfCkS+cDRt+WtQAOH9EoJAVqjhceSHANwcd7j59YAzMgQ2Mxxm4A2/gD4JAGIgGCSAFTIXeZ8N1LgMzwVywCJSAMrAKrANVYAvYBmrBHnAANIFWcAr8CC6Cy+A6uANXTzd4DvrAa/ABQRASQkMYiD5iglgi9ogzwkZ8kSAkAolDUpB0JAuRIApkLrIYKUPWIFXIVqQO2Y8cQU4hF5BO5DbyAOlB/kTeoxiqjuqgRqgVOh5loxw0HE1Ap6BZ6Ay0CF2CrkAr0Rp0N9qInkIvotfRLvQ52o8BTA1jYqaYA8bGuFg0loplYjJsPlaKVWA1WAPWAp/zVawL68Xe4UScgbNwB7iCQ/FEXIDPwOfjy/EqvBZvxM/gV/EHeB/+mUAjGBLsCV4EHmESIYswk1BCqCDsIBwmnIV7qZvwmkgkMonWRA+4F1OIOcQ5xOXETcS9xJPETuIjYj+JRNIn2ZN8SNEkPqmAVELaQNpNOkG6QuomvSWrkU3IzuRgcipZQi4mV5B3kY+Tr5Cfkj9QNCmWFC9KNEVImU1ZSdlOaaFconRTPlC1qNZUH2oCNYe6iFpJbaCepd6lvlJTUzNT81SLVROrLVSrVNundl7tgdo7dW11O3Wuepq6Qn2F+k71k+q31V/RaDQrmj8tlVZAW0Gro52m3ae91WBoOGrwNIQaCzSqNRo1rmi8oFPolnQOfSq9iF5BP0i/RO/VpGhaaXI1+ZrzNas1j2je1OzXYmhN0IrWytdarrVL64LWM22StpV2kLZQe4n2Nu3T2o8YGMOcwWUIGIsZ2xlnGd06RB1rHZ5Ojk6Zzh6dDp0+XW1dV90k3Vm61brHdLuYGNOKyWPmMVcyDzBvMN+PMRrDGSMas2xMw5grY97ojdXz1xPplert1buu916fpR+kn6u/Wr9J/54BbmBnEGsw02CzwVmD3rE6Y73HCsaWjj0w9hdD1NDOMM5wjuE2w3bDfiNjoxAjqdEGo9NGvcZMY3/jHONy4+PGPSYME18TsUm5yQmT31i6LA4rj1XJOsPqMzU0DTVVmG417TD9YGZtlmhWbLbX7J451Zxtnmlebt5m3mdhYhFpMdei3uIXS4ol2zLbcr3lOcs3VtZWyVZLrZqsnlnrWfOsi6zrre/a0Gz8bGbY1NhcsyXasm1zbTfZXrZD7dzssu2q7S7Zo/bu9mL7Tfad4wjjPMdJxtWMu+mg7sBxKHSod3jgyHSMcCx2bHJ8Md5ifOr41ePPjf/s5OaU57Td6c4E7QlhE4ontEz409nOWeBc7XzNheYS7LLApdnlpau9q8h1s+stN4ZbpNtStza3T+4e7jL3BvceDwuPdI+NHjfZOuwY9nL2eU+CZ4DnAs9Wz3de7l4FXge8/vB28M713uX9bKL1RNHE7RMf+Zj58H22+nT5snzTfb/37fIz9eP71fg99Df3F/rv8H/KseXkcHZzXgQ4BcgCDge84Xpx53FPBmKBIYGlgR1B2kGJQVVB94PNgrOC64P7QtxC5oScDCWEhoeuDr3JM+IJeHW8vjCPsHlhZ8LVw+PDq8IfRthFyCJaItHIsMi1kXejLKMkUU3RIJoXvTb6Xox1zIyYo7HE2JjY6tgncRPi5sadi2fET4vfFf86ISBhZcKdRJtERWJbEj0pLaku6U1yYPKa5K5J4yfNm3QxxSBFnNKcSkpNSt2R2j85aPK6yd1pbmklaTemWE+ZNeXCVIOpeVOPTaNP4087mE5IT07flf6RH82v4fdn8DI2ZvQJuIL1gudCf2G5sEfkI1ojeprpk7km81mWT9barJ5sv+yK7F4xV1wlfpkTmrMl501udO7O3IG85Ly9+eT89PwjEm1JruTMdOPps6Z3Su2lJdKuGV4z1s3ok4XLdsgR+RR5c4EO/NFvV9govlE8KPQtrC58OzNp5sFZWrMks9pn281eNvtpUXDRD3PwOYI5bXNN5y6a+2AeZ97W+cj8jPltC8wXLFnQvTBkYe0i6qLcRT8XOxWvKf5rcfLiliVGSxYuefRNyDf1JRolspKbS72XbvkW/1b8bccyl2Ubln0uFZb+VOZUVlH2cblg+U/fTfiu8ruBFZkrOla6r9y8irhKsurGar/VtWu01hStebQ2cm1jOau8tPyvddPWXahwrdiynrpesb6rMqKyeYPFhlUbPlZlV12vDqjeu9Fw47KNbzYJN13Z7L+5YYvRlrIt778Xf39ra8jWxhqrmoptxG2F255sT9p+7gf2D3U7DHaU7fi0U7Kzqzau9kydR13dLsNdK+vRekV9z+603Zf3BO5pbnBo2LqXubdsH9in2Pfb/vT9Nw6EH2g7yD7YcMjy0MbDjMOljUjj7Ma+puymruaU5s4jYUfaWrxbDh91PLqz1bS1+pjusZXHqceXHB84UXSi/6T0ZO+prFOP2qa13Tk96fS1M7FnOs6Gnz3/Y/CPp89xzp0473O+9YLXhSM/sX9quuh+sbHdrf3wz24/H+5w72i85HGp+bLn5ZbOiZ3Hr/hdOXU18OqP13jXLl6Put55I/HGrZtpN7tuCW89u513++Uvhb98uLPwLuFu6T3NexX3De/X/Gr7694u965jDwIftD+Mf3jnkeDR88fyxx+7lzyhPal4avK07pnzs9ae4J7Lv03+rfu59PmH3pLftX7f+MLmxaE//P9o75vU1/1S9nLgz+Wv9F/t/Mv1r7b+mP77r/Nff3hT+lb/be079rtz75PfP/0w8yPpY+Un208tn8M/3x3IHxiQ8mX8wV8BDCiPNpkA/LkTAFoKAAx4bqROVp0PBwuiOtMOIvCfsOoMOVjcAWiA//SxvfDv5iYA+7YDYAX16WkAxNAASPAEqIvLSB0+yw2eO5WFCM8G38d8ysjPAP+mqM6kX/k9ugVKVVcwuv0Xd2qDAuKWvdsAAACKZVhJZk1NACoAAAAIAAQBGgAFAAAAAQAAAD4BGwAFAAAAAQAAAEYBKAADAAAAAQACAACHaQAEAAAAAQAAAE4AAAAAAAAAkAAAAAEAAACQAAAAAQADkoYABwAAABIAAAB4oAIABAAAAAEAAACeoAMABAAAAAEAAABKAAAAAEFTQ0lJAAAAU2NyZWVuc2hvdG6i5usAAAAJcEhZcwAAFiUAABYlAUlSJPAAAAHVaVRYdFhNTDpjb20uYWRvYmUueG1wAAAAAAA8eDp4bXBtZXRhIHhtbG5zOng9ImFkb2JlOm5zOm1ldGEvIiB4OnhtcHRrPSJYTVAgQ29yZSA2LjAuMCI+CiAgIDxyZGY6UkRGIHhtbG5zOnJkZj0iaHR0cDovL3d3dy53My5vcmcvMTk5OS8wMi8yMi1yZGYtc3ludGF4LW5zIyI+CiAgICAgIDxyZGY6RGVzY3JpcHRpb24gcmRmOmFib3V0PSIiCiAgICAgICAgICAgIHhtbG5zOmV4aWY9Imh0dHA6Ly9ucy5hZG9iZS5jb20vZXhpZi8xLjAvIj4KICAgICAgICAgPGV4aWY6UGl4ZWxZRGltZW5zaW9uPjc0PC9leGlmOlBpeGVsWURpbWVuc2lvbj4KICAgICAgICAgPGV4aWY6UGl4ZWxYRGltZW5zaW9uPjE1ODwvZXhpZjpQaXhlbFhEaW1lbnNpb24+CiAgICAgICAgIDxleGlmOlVzZXJDb21tZW50PlNjcmVlbnNob3Q8L2V4aWY6VXNlckNvbW1lbnQ+CiAgICAgIDwvcmRmOkRlc2NyaXB0aW9uPgogICA8L3JkZjpSREY+CjwveDp4bXBtZXRhPgrhJSkqAAAAHGlET1QAAAACAAAAAAAAACUAAAAoAAAAJQAAACUAAA+1HNRVNwAAD4FJREFUeAHMW8uOHlcR7t6QhAVOwsIzRILEjteePzwBudiepwjkHjsYJEBIUSQ2wA7EAgy+zZiHiMd2LrzBzLAE4kuCyEwSCZtsEtiYqjpVdarqXLpn4khpZf6uy1dfVXd/c7r7H2c89/wHd4faNtaCGEsJLQLXQjUeyy0o5qLPnIkrFeIn+aN0CITBjZRuSO94KPNIF580nuuHjlRwwuVNnTUdxjn+pNoatAEq3dh1visOtI6qltOYGq6kd+qw712cBEpHsn0peUw7kvAaPYqyKq4a1GO3J6jgw0AoD24ugYTlQtxdW9wqbMW1dwRIFxNnUzJ5qGARztSFNLkT6YxpABthrLsLOUnnWSVCzOmjEtJsKze2ElDZTLEQiRxABjeee6Gx4iHYAKm29tHExAScCgrhMGmLCKVvJhShBJkrFYmvyBZXK46FlOsBEnv9QmtnPn3AE6iKGaUk4CSc9iWPy1dqcb5yqwQroaIuYnpCxOKAT8ecg1l4OVb0dIEvjLMEMI66arh2zpkBiXx7vsjNHpBo5syUkxgGBJzMiWGxiTXgcieTMKbmTUz4MES2ycWDsqm6cLmDBVKIA0VcJ3KtxvMvvi9zEcLdvjDSeqYyfLMuCHHZopqNU8M4bnjnlEUTaS1gXHF8CgCjx1XkTMCYls7ZkxgAGIxcFAmJT5wSbDWo5hkMOeQqIBpQw7GLI2JElJuJABCtlVdihfCkgeylUfLxkRE3eoTkUIU1ZTifnRbS98j4wiKCFotBz4AQGnBdIQrlFB/lO6BOqnqhZDjcm1ormPKie6wrJL6Y56DhF1iqhQ5Tt1Mo0DmUR41EF1zp0RZeo0AKcY+CsTAdgkCcCRitt4UazAZxca3nzRiylEeNAGB3Ii1FJMSZWHfwQoB7Wx9PUgtn45GDcoaUze55kRq6Y5nayT4M0BI1cmUlVJ2FcBUwMGXh1fO5mVgdHDa3aVnJbEwRGpSRNZA6BdeihFdGKvZUGwgKEARmQLCMes/47Y9tZWbfmpv2es/KZZD0wRHF9j3RY3wuKyES6WFq56GCb87B9eP5l24FjGExpsxU3c/FYXETaxLGLPpxToZGV2zCNmsh0cyFLhM47EcPHRM4ZWWcmzMm0Z/i6+WNINJ82oDuTNkTSx6b2Afu+nyCh32tv+lrkMlsckJvFV6N1DEZgL5wIMDELb4RthC1q1gb5FNCIRtXBj1pch6Kk6i1MQOJOmUmR2sSw4BJHNMyLk2DjsxVIaiEmCXtKC8g5BHbm1pj0hozNTKJCWVYtAouDhRxLoQ4TXjh5VvUR5sZYryItbiBZDYnRgynzrY/cdlASZQjTZwkkA1scXOlWoxwmOJ4ivoi4OqVHA2EWkJSvQQCT3AdjziAyS87wmOSYuJ+kg8ANUwtJrwu55x8mD4slX7vMOy4GIx2gYVHlSEpbHgKNKWGP+eINalU6gLOSXn4pNPLKUHEU65gAWgAjUqwEnIl4gCu3gsJOKNcakh1tXWZBB5X6pyQy9VqARwnkao8r0QUmUEmlE3AV0o0P5nzgDwHMPiUUiaDkwEzXnjlpuMoWEJBYM3uLByAGitjJmIr8IUhPdxhnQM4rMS+vqTnycsLlrT6jnJPN0QtbLM3zdQYrBHGdnRE3D99sdUBN1MmYUxzOMnUnBjt81kcv5QQk3NgxSuEx609DoIhMPWazjSVnjbjbdfCOQlnQsVBeqZiXB8w1RUBRSo61aZ3zKO//Pj9FF5+/L5h+fB9ZL955hMVLpabrmYcIaYuVBdPdQryp8BdEB1IcM71MTgplV8sk0r1PqB8MUx+7bxBg1Zv5eAh9iA8LU2GHIUcLUVtW+kQ6lqu8jUAtQMVKNTazhIu9tUeEkQGtiVUEOQACQzEJiJD32477/13QOHRZvhkTgyJbeu6X9oaHleDTpFLfxOncJErqtMsDuecXNAI9+YWoWOpHLMKj/jgQxK5U8VqNQeoJU/DIGOnAOkn0ghpYgpBpn7uOIBfWrh4lVeQmDRo6ZPohyeOH4CfbyCouu1cN8KzPDKJacOUDpVJzfA56C3DZRPEqzk1MqQSkmQ6cvjaA+5s+YVHsmFf5eFgJUdzXXwVn/FSG0+XC2tZxDpO53im5CVAUn86lMTbKGyEHXMXw8mAkWOhMHyI73jFCbUSxiP/LghvMSm8j20J20KKncXOsBgq5+OaSqlhSWYPI79IsahZwyso58u5IhH4jss5w3jx1RuZw+cCk0kaM4C8OwMnzfE8iJ1IGsWVMD5fLR+5f1iC290u3OI2N+6Eg0bGUGieUbGvzeocJmhMGu+J4w/OF14sJgb54GQPY3I6m5TbyQ1O0zWjiuNgNQckRTz/8zZqUeQrjQ1mvHjSCK+CnSa1bIiOlzGQGnjIkCsnlmAGK3E8Ayi0xeoBwstDvXDtvPf5cPn3H4nr94YvJySY58ZVWaIZ5y281S7gp7WlWy2veFNkLu+c/iAMzecGp8n1ZMGHzzcmFnDr+mVaRyDPb7avAho1mPfC6wCFDCG5mURreybb59cnNUaM4cq2+tpSKz2o8GYcC5EUuBhgQYYwCe9YW3hb1z4dNq/9h1okhvypwwdOjYtB+QaoEc4P+VFupgBMyWJUbGmb9ow3ZT7PXsgLl3zdJL6rhZrx4ilc8Wpp87e8QO5I2CGGGTj6zSBc7FkproRwhZsS3sYfdmGqVOy6VPhqx2IWDZOWYmQc6eViwcLD1Q23rWtwi4dNfHLwQ0op4JzyzPu0UmQDAD1ML4ckmleDqOmoTMidN0KYpDEpVfswmMTFeuL4uHbqetEjDuF5DSMmgitYS2qfY21csG5f8PnAfOHF2RJP0d/T6ygSpnPBUVsrt/hCZIiVYmVrGITzYNtDqzxEw8kwSWMGUAH1eSjs1UKunCsUBNfzs2cwVeERzICqJBK0qpKY3c/k0QObwC8//sC8FW+Ch0YkTHhIhkSvFOeUQ9aZM1m/GHE9csp7gO9BjdKHwsSISI5L2pQWJmEawEaYurmcc8KMRcfBC69SW5ZwZBILAMXISdEAkSzBbRO35SMPwLPZZ2TvwssBblKBtq1awme8U8sYrm74jLdxBm+1MzZLrPAYxEnSC83O9TSbQsFIWY5AaZ478hCNLfV2gC8fSl9ILx++H27dnw87N/+n+NwjnRvxiSLwpKIUFJycUOmhxGDs3EiPDcRc5WJ0yHnukLQNODWuvSa3Wi0tmQ0PmhGpvAanMWMswWq1WH2IIiI6k3bm9pX0lcjWldsujnU94SEYxVfbNv6YBLmAr0KW4IK2NhIuHMviWMLhxZdtC14Y8Fku5fxfKwSD+124gIjDc4X1i2fkRaQ8SVtv36ELjkJYPPPgUBMEcm69nV5WNt/+FF3dsIeswhq0BrVMfZcPfW1YPHmg2QPLNt9N/JvvSJ8wc3Btq/qLJxSEGhDee6ojyikADU0xtyb1zbaGsoNgQxLcCbiIILz9bNtX7wwiQFrxTrZXvB7/2k9uQnqEr0HgOzgQVWtDgaIwa5itt2AWEt5DRkwlE65SG2fT1zoovNWXD5YgjoigFk+LOJtQSiB+k0VIgZ7q+JKRqCcEF7uiAEWEPpd1oHETol8ETbCKdMaUHdd/mIVnsN40pD6RPfl/FTI0NVg58dCAP19k2756e9iCH9xQvKtfRHgw4OIYiKYjvF0QTWtF3AbhbfKKh6tTa9uL8FocvTjeEi+fb3xfKcsLX4wnnoLvHJ9q/3mv1wdzb178BG71cguGQL7IXFoEUrwRxmQpvA6Yu0ySZtw4fP93h7K7T+teCW/9p7jiJeGtdITXGxOFhyse1neFd8OseIf6K16vXy9XiM9dO3TuDkl081bSVi8UHYqPNtfDVkBCv7NtglS04/ppu+LhKoVbo7ARTjXmk3EnTn1r37dXwzao8IB36fD+V7x7KTxcMVd6Kx4JLz1TLpPw2l9622Pdq731Djxzwk9re+7X326l9hRH8V1eY/FBpShFSQptSACQeptV9DBeOv0P5VCD8qkQv2ygOLlClgkKiyF4S0Th3YsNhbd9Ld1qD34VhPfWbVjt4BGiI7xdI7ylL1F4eH43Lnxk3kYhwNdggbdYeK67V9vltY/5lht0wK7XD3elnMej54TXHBCQiTR9+2z+d27LrgeMQXq2O/5wk1ISu/w1Su/FA0W3ffXfVIIr3omT+xP0+s9uEAc+462AcPaz0a32KyY8vOWi+Ogq8YWeIzpcxXZv4jcASRiLJ/vPgWnVg78/6womUkv18XzKG26ZBR1dOv13qDYpY0Yi5zdwMsqJU490b7MouCtnPnSUOAYKS0S4AgLBzQvv6yC89lvt7vXPAJ/+dGUPC3kwhxvyzhUevmjg6mW5tkR4T7dfLmjFO5dutbTivTR9q92GW+bOjc949YLnM+A/+Bj8yxtYMae2tdffNzPCm/vEarf1Ltyi4Sduq88fHJYfa39NdHldVj1bCReuoQeLIptx46UfBeG5u7dhM2ZBZgOEG4dnf3vYRgvbiqlImsAKr5rb18yK92p7xUNxXfmTCLoyNIRQdFPC2wUB4OqG+7xlPuKYJby7QxJe+5cF+TfO7xYCl74nXliaFB+ueGn1Snen5371HSmv7tfe+MDH+dBQdKvPtb/6oVUPxOe2fFo4HALBRRALz9A4kDiyjgmO45KWsNkfPzmx4oFArp75F1dkvtQJP80/UgBPJqBb7Vzh0S0BKqWYbxFzhHfp5+m2bA7JmUl47dt1WvF2qGaO8NZfv+X4rUP1IL7ehqLbuJi+Xlk8CS8+nWc7Wu3+Uq52wo/Ca616KLwNKzy4dHJ6pd7t6dKWQhkv/RhXvPZKKaR4zcRO6OzlRgDiHiQ8uG1ObX+FlUxWsxLLZLRL/VB4x195pIRyhFa8s7LicVBGhYPAl6WVZx4ejnae8XCVu3I2iabVaI7wrpzboXOG3wmuvthf8dZfv2la8XGbyOqLS8MS3HZb216Et7EGLyP0bCds9jzD103fg5cS+Glta7/4Z5GSU+wSntbpZ/wzC69W4GLs2AZ6esCwcYSuHP/mcPTY9MuF9EAB4lYVoTZKz4BzhSdlOJvY2GOe8D7UNVePzfyr5ZWn4XYNP62NxHteVjx4Idqz8KQrTA7/oehWJ1a99Tdu0Tg/+OWjrbEovl1Z7aQbApYehefKznPexjoI95b5QhkHhP/iea4OATgEg/D+BvhUmIF2DELmVLQaaWR49jdHInqW71bBwD9nxbt6Vm7h0s6QgEnCmxDN1XNh1RQq2o/D0S9BeDilvAm6dnB97qXwPPfePSc8c2ozEweruYT6PwAAAP//JwGGwgAAEDxJREFUvVrbll1VEd3njcsToqMbFJKAY/hEd/8BkHQn/oSSAILDJxWVSwCD+OAvAAFyRfAHSDpc4g9IOniBKLkgkG4hoA8iPsWaVatqVa219qUxYQ/67FpVs2bVXmee2vucMDv443cvdzhm/NrzgqDAAmBWJgGTffO3X9vt/NG3QspmFmsnPu1OrX4aUsC564ffDD6/WH/vP93xZz4UV27FQ7qllRu7xeUbgs8v1s8Sx7MfeZfYjm9p+Wvd4o5hjmP7L3Le/G3Xdt+9/6aaz3kO7D1nq7iLsvPY6t2/3maYlnHshfXu4rkvuj1Pb22Fr5jv1Rc3uovn/yt8bk+qAhxrA2YHfyLCQ7ghrXHyslohxsWd9AbtvLFETV6z+EiA0v7lbg7Ce7BfzCwaEl55PX69tEI9kXD6jiw82pHiejTn6gjPvQONulOEt07C2321hXdgo1s//wXpRd6VGVlq6/64+UMuv/sp5xALL18wE1BMwkZTiZLj9JIzM7a05r99HQtmkSbNlzlWn/mgwyTDwVN0RHirOvGKYtrrNOHR1NSLLHiwnCK84/tlamLi7br/5gZLdh3YezYvYJVvADnGhHfgiXPMsfvpbZHrCq9OnfxX99bJf0ZW+qBgf6u2yaf7jgR8nqCx2aGfvuP9iLWPxidQgb7g5VblBNTJ92UEeOjhvzIL3sSdo8L7QFtzZ2os9YZpNzrxnku3a8cgppBcNeH17N/8Nrpd3zdyu/6KhPdqmni6n9UWsSPvdyveFl7PxVcEjCvBGLt4j52fzFLdeM5a2MQEXHvtUrd24lI3f9t104XnWvC9Ly7jGW/4VrvaEp67jqUdeMYb4DhHz4k68Ug0YxPv4ONnwx751vFhvgkc944I70lMTZqMv9rmL7eycZvE35c9eNpZg2bUdCHkFmTODj3UN/FUKi5BqRsuDcVzAs6UC9GYjOk3RYDrZz/vcMudJLxnWxMvdUblWXhDoqEvF6v7deJp70XfV1x478nehL3K+7W0/YZu8e7+LzNAHmThdd2uPTd389uugat5HHvxYi08uzwzmrntOxpyin0aoqHY7PBDf6EMeTzUSj4nPjQyNME8SjMb5yYMTm1UcnY+eAs9B17XIBDXBgnv+AThAbfKwqMaqbZU0nqzicJriTdzYtotbh+eeKvPf8hXidvkrvv6v4njCg8+AeH1H/c8fXt/kCJrb37WnaI/HCzSu/pFiml37IB84+aEoZeBRyxNi2LM9zrdccXp+4F1Ep6F+o30JipASOFU+gRIp8WVryuUbpGfmG1GwcfCo9vo0HH4kTPdHJ7xHrhlCNYdfvTMQFyEtzA68VrCI1q9vh10u54gPDQC4e2cLLxiPyl/ieqMTTsTHvU3v5WEvmf4tnyKvhycOgmh1vX0GtG7P+a3XkOTkn5GKd47jwk24zJYKwHTFl7GBp5q4XB+MmJ+LpDw8KfHaXpGW3/v8w4TqXVAqAv07NV3IH/ttU9IePSMNyI8nnrP9QiHCuBWu0DC6TtwWz9ht1pB8aa56128wsJDlbU36XfLN+R3S8yNORIsRDsmOuQefJImpuvvnqeGJyTXI+GJ+CA/SdYB50UCwS3dKRP02CFMSmAV4YqCFEfDJYEUpPjs8M/+nBhaaCUHWSue6cxKMBbechaexcmAMFSAEBIOPfOi8bIZ4Wm61sAa/DwJqT+IZkh4LFy6TebD7UPaVeSPTzyIfzZp4uVaXbdOX0xwQHRTjjUSEETru1y6m6bkwO3W8yK/FMvcFqkN0enBt2gWnnpw9rqgDmxphgeLTSEnPPN18Z7t80DmLo+52wWGhOcZp9onnn2/wyTClX3vN9+ZmhZwhx97l9eLO2i6Dky8jXP0nLi/MTHdpS5uJ/HSX98B8ay+IBx8q723/0fvPo6pfhHeJYJTg67H7+8bn3pTawAH4R13wjMluJrA6VKmqKJib7MjP9eJh5R8OHiWmjJmWK+1sPINunW2J15vUk8AE+jEc+9bdOUHt45OSAM74wiER9ewAOENiIaF93xDeI5rTHgb+DnlKxDe2slPO/zlI79Ji3dNn3o5v99aP0/XBOFxiVxHM6AZ85qhUXHYj21ReCo3gGOmTsHoDfNPK/D5SgoPogu3Tfr2u3L/raHelMWRvTLxpgjvxPN/Z8q8I/HKx4VHUzMJb24bPZdepYl3aN/fBi998S56JJh4yx0koiAL73Dft2G3P85sclKcJt6f8t5WKDBQOBCFRZWh2DuWr8zEO/36J93p1z+mOrEui4cm12aOI3vfYZ7NCK/k181a3D5haqrw8IVoz5W/1a4e+JDFUPYY1rRtPPnu7P/pJ+AHFsPCQyIVs98h4/sVaAFrCm8gpyTI65iEh/nlB7bk8CYtTLi33/i426Bvwu1pO+Nb5h2bEJ8IT2+1/aLFrVYnXmjbXeIChHd3/zMe365flNs1T7wR4W2c/7yb2zr8c5L2skG3vLWTlzqc9QPJH4j0pkub8mofFNx2/w/xrV+gmr//rFu/0PMvHm5vpE91aAfaauru6C/+SBEF1bdOjciF6aUPnDUhQRZo8uG4Y4eck7v3ZILjLxK9MAssJN4xAbKY9tNzIvXHoiHh9B2MfUFutRmDHcgXN0144MC3Wno0GBHe4V+eoZ9N6AsL3Rr7DghNReda6YGnXnPLjFsg8eEbK37rm3JAcKdZcPJNG3VVSkIt/3OAcmk5DAuzNejOMxEePA6mpgMi7rdeHxItLWDbi7nbrudA+dMJ3mgcG2f/zWd5KZtw1csQJWCqKL+SbJwTPuFvJCmQQrqZ6mqemcLz+Czvp2y3xCRb2TPyo/e+M5bSEh9uc5iK+FVLqroCrWarcOXgCah3E08hk5Se6Uh0+aD8moLDugsSbuOAsXRAWHjmyWWaVhPnnSJHyRW/RrU53rapvwmCSAmsIe/IrJv9nTESO55UUD1lq+q3dszQvoAgW5e0miK8IyS8eCSe6DRe+8GXZBh7SoVd/ZJC1m1c5HKZFV/lCLQ5s4Ej1+zow7jVlod3uURnlhmD65QH1kyRLds6epezVz/Zwuz9AURh6VYQ8q/OAd0gEFf7VXPTHvBSfXWG3ymLFjlzdFtb2TP8LfzIPvnGbRxmEFl/eUNxHwkae2okN1zNIgkX+bSkklC0/HQqpDxrCvlnLz38NvO2yZGZ0PZtRdkci7oc3Luadk+61Ss+x+zvzakr6ESALPO+xOeROst5ptbK5Jxc7iNoMPGWpwpvtK4DsImKzpcuQfuYpf7s0SjFq1NNkSBFgJbGHWrVOPUo3tc04Xmnvw6fpETAmt87faIRErJ4cyy0WSPUQnLliIzNsDrtCrg/t4ocfqWp3hfsBChwLLzdwxPv6FOYeNqFEOhq7DKlBcop6obWErveU1iIAR8WMTWEwoJx2qdF2LBVwmAUJB+dZi89golXpcbCWPHEi2Q1KDFlfoPkCQTXhHqaOV5SkIybAJ4A4Q4TzjYr9VNNjgl8c1uv75ZHhYffGP0BYton5pciumseZXboIywMEoweiNRwQWeGfFsUgGJpMDMIgP9eeuR0cT0ps7q1IrNgNUzhtyLRQKGIlJU0QK+09HEvVu9XUNE4FwPO/JZkhmsIKOd3pgP1mAROeKvVg4RbJt6WAUTXHX2qFF6CW19qxL6tfgrjZD6rqLklpwEaBuVwGj5qko/XmpucEnYclUNizj377aMivCaho2LTJZahXN0zDSQMhAJ3wIVFgNkiQbSLMkP9gndRNjXq/EbsjCqcHcKQeRCB8Hbs3uIIoomfSV47eIGchM5UEVSuwuNLrudh8CpMET4eio3WTQA6RSmKGBH1NVA3r1OuK07CW6N4HRCM3Fi0e4/KpI6tMlOGTUYFeCb10bnH7RA9ptbRsHY3TshIBxPTfwlRLvTngFqqdTaYGCy8e7YYEkL7xwX6X8MupN8Zaa2HpZJDJ83kfeFkZUDfait7OpPbXZULFvhi6YDO1N93ibHYn3YNSiVcEp7jKU0urh2UVOrPSYxIbh8tMznDAxoOCefPV67SsCouYLwzdcAu729wkUt/WFWkZGPlr4TWCmjTsBfPeIqD6EYP44z1cmUDGG+b0+EYQAzsKv3xqhhKEKBM/O0C2VvxotueOuCWiZfz2arxBSAtWeF5OzKoIMCyASvf3JwfrZyKR31aJfrWpoRSRRuZVQOJWZdKnIHRMpy6eyYjeCqs5rTODuzMFrL0yR5uIomhHo898OtUwbl0/+ES2wUBL5aJoQ443Ozlx3CrBaGnFy71GJFLNF9pMAYvVTb5PIHGva8kK1KqsMsNt3Md/5KglSzdpZmPDQQqNPnI35sTGSRb8Oii9eGIGW5lNcxIQe3J+Z3p3y1FwseQhMt+V89MAgU+RQenoMmFaIzISrMAxEzya0sWoyPhnWrEM60KMnuYNpPGQKLd7CmR8Klup7zM4qobxUAUebDit6LoN6KkUumr6xUkZQdFWMXn5yNSLhfPRPD5VOvDnGYgu0DXS/IUR8qnk3EXiLBs9BfiujCcskodXSnMzhQW4aV+LNAypmBo23Ix2W7d9IoSxcmZ8RVC3gQCtTGTGoqkvSllgD5uaTM10u6B6BXAlcJiQm3gC2Z7E2M6VgXS1da6QKhd5LPb14u4fm7PE3MsUrnVoay6TtdAy9nLe99K0Rw0QjX4NjYQV1zPGeKT/dRGAMx88NqKjeDpYRW3ZwQL0s03tW8rXpbyAWJ1orAaZQrWPi0uanTA1uGCLANSXruPBmnDlblLFhogDTxcEUmeBi43qVYCOawTnoLkDAwXceBcxZcPgAyJdD0rq5KLBqRyD9RTvELTGhnikldjsGfBIkF59DwY1mCu4t8Aq6Vc4ay5yVksA9QWADlWzmknOpS0lLDeb7TeCHRYaEYI8KYiUnjZoxmgxWfUr+Hzx+wVmngVkWPVZOfifPW7qyO/eckuM3zZHntqCk8eXwt8jeSGK1eWoLA4LjfVMnbMIi6rpVzmsF3JHuHDVIFPMtKXASvlvpiUiYbxRiLzrpaduHofgXyO1YVRX5dBmzjNkCC/0ouxvPK43mqNxhWBL7Gmk0eVtpK6rADRDWYn8YFSv7xkYC7EVl5a0xnrLIcTb+Vw4B6TUnKP8a2JK5c/WAbBtCtTBV3xRYftcXSnhlw9a5F8TawB2AjXN4r3AOpoE9emdWavPP4Hu5bQiud2n8uMIYDHlCw+lpOalqbm/pGsXk1xhM70KOcOAlIGOXtUijRcMafG6QaO4XK8LEKds6v054zKauDlgzvAUYUqRyyTwoPX5zMCHRb6joRA1ApduAivwIBXXUrja1kwOHWhmbouGVK8hCl87FzllQ7UK315OxqhVLHIKZbttghkz4yK8N/s1efOjldNeZN79klTFazr6iwAz5I/yO76OQ9YRSbiUf6UkUhbcGXEHuPBwdZVrxT/3ROYeB5SUyKqNLxJNQS1+PBMyYXkCUcJUibnd+Y4IYENr1zIMidTcCS5fCRntLzk8+6RZoQrPcM18rRWGfK95RIlKkUqd+UIFFpTnIr1XvKpO2c2rH6cZwtklPI/tbXBC8Lf9Q0AAAAASUVORK5CYII=;" vertex="1" parent="1">
          <mxGeometry x="674" y="374.75" width="85.41" height="40" as="geometry" />
        </mxCell>
        <mxCell id="KJkxDrLsRBGmN8-yk9LA-26" value="Send mail til brugere vedr. mangl. betaling." style="html=1;verticalLabelPosition=bottom;align=center;labelBackgroundColor=#ffffff;verticalAlign=top;strokeWidth=2;strokeColor=#0080F0;shadow=0;dashed=0;shape=mxgraph.ios7.icons.mail;whiteSpace=wrap;textOpacity=90;flipH=0;flipV=0;" vertex="1" parent="1">
          <mxGeometry x="864" y="376.77" width="76" height="43.23" as="geometry" />
        </mxCell>
        <mxCell id="KJkxDrLsRBGmN8-yk9LA-27" value="Deaktiver pin-kode, hvor betaling er glemt" style="aspect=fixed;sketch=0;html=1;dashed=0;whitespace=wrap;verticalLabelPosition=bottom;verticalAlign=top;fillColor=#2875E2;strokeColor=#ffffff;points=[[0.005,0.63,0],[0.1,0.2,0],[0.9,0.2,0],[0.5,0,0],[0.995,0.63,0],[0.72,0.99,0],[0.5,1,0],[0.28,0.99,0]];shape=mxgraph.kubernetes.icon2;kubernetesLabel=1;prIcon=api" vertex="1" parent="1">
          <mxGeometry x="1224" y="348.25" width="50" height="48" as="geometry" />
        </mxCell>
        <mxCell id="KJkxDrLsRBGmN8-yk9LA-29" value="Manuel deaktivering af subscription" style="shape=image;verticalLabelPosition=bottom;labelBackgroundColor=default;verticalAlign=top;aspect=fixed;imageAspect=0;image=data:image/png,iVBORw0KGgoAAAANSUhEUgAAAHYAAABmCAYAAAAecWWKAAAMTWlDQ1BJQ0MgUHJvZmlsZQAASImVVwdYU8kWnltSIQQIREBK6E0QqQGkhNBC7wiiEpIAocSYEFTs6OIKrhURwbKiqyCKHRCxoa66sih217JYUFlZF9fFrrwJAXTZV7433zd3/vvPmX/OOXfm3jsA0Lv4UmkeqglAvqRAFhcSwJqUksoi9QAMaAAyQIELXyCXcmJiIgAsw+3fy+sbAFG2Vx2UWv/s/69FSyiSCwBAYiDOEMoF+RAfAgBvFUhlBQAQpZA3n1kgVeJyiHVk0EGIa5U4S4VblThDhS8P2iTEcSF+DABZnc+XZQGg0Qd5VqEgC+rQYbTASSIUSyD2h9g3P3+6EOKFENtAGzgnXanPzvhKJ+tvmhkjmnx+1ghWxTJYyIFiuTSPP/v/TMf/Lvl5iuE5rGFVz5aFxiljhnl7nDs9XInVIX4ryYiKhlgbABQXCwftlZiZrQhNVNmjNgI5F+YMMCGeKM+L5w3xcUJ+YDjEhhBnSvKiIoZsijPFwUobmD+0UlzAS4BYD+JakTwofsjmpGx63PC8NzJlXM4Q/4wvG/RBqf9ZkZvIUelj2tki3pA+5liUnZAMMRXiwEJxUhTEGhBHyXPjw4ds0oqyuVHDNjJFnDIWC4hlIklIgEofq8iUBccN2e/Klw/Hjp3MFvOihvCVguyEUFWusMcC/qD/MBasTyThJA7riOSTIoZjEYoCg1Sx42SRJDFexeN60oKAONVY3E6aFzNkjweI8kKUvBnECfLC+OGxhQVwcar08RJpQUyCyk+8KocfFqPyB98HIgAXBAIWUMCaAaaDHCDu6G3qhXeqnmDABzKQBUTAYYgZHpE82COB13hQBH6HSATkI+MCBntFoBDyn0axSk48wqmuDiBzqE+pkgueQJwPwkEevFcMKklGPEgCjyEj/odHfFgFMIY8WJX9/54fZr8wHMhEDDGK4RlZ9GFLYhAxkBhKDCba4ga4L+6NR8CrP6zOOBv3HI7jiz3hCaGT8JBwndBFuD1NXCwb5WUk6IL6wUP5yfg6P7gV1HTDA3AfqA6VcSZuABxwVzgPB/eDM7tBljvktzIrrFHaf4vgqyc0ZEdxoqCUMRR/is3okRp2Gm4jKspcf50fla8ZI/nmjvSMnp/7VfaFsA0fbYl9ix3EzmGnsAtYK9YEWNgJrBlrx44p8ciKezy44oZnixv0JxfqjF4zX56sMpNyp3qnHqePqr4C0awC5WbkTpfOlomzsgtYHPjFELF4EoHjOJazk7MbAMrvj+r19ip28LuCMNu/cIt/BcDnxMDAwNEvXNgJAPZ7wFfCkS+cDRt+WtQAOH9EoJAVqjhceSHANwcd7j59YAzMgQ2Mxxm4A2/gD4JAGIgGCSAFTIXeZ8N1LgMzwVywCJSAMrAKrANVYAvYBmrBHnAANIFWcAr8CC6Cy+A6uANXTzd4DvrAa/ABQRASQkMYiD5iglgi9ogzwkZ8kSAkAolDUpB0JAuRIApkLrIYKUPWIFXIVqQO2Y8cQU4hF5BO5DbyAOlB/kTeoxiqjuqgRqgVOh5loxw0HE1Ap6BZ6Ay0CF2CrkAr0Rp0N9qInkIvotfRLvQ52o8BTA1jYqaYA8bGuFg0loplYjJsPlaKVWA1WAPWAp/zVawL68Xe4UScgbNwB7iCQ/FEXIDPwOfjy/EqvBZvxM/gV/EHeB/+mUAjGBLsCV4EHmESIYswk1BCqCDsIBwmnIV7qZvwmkgkMonWRA+4F1OIOcQ5xOXETcS9xJPETuIjYj+JRNIn2ZN8SNEkPqmAVELaQNpNOkG6QuomvSWrkU3IzuRgcipZQi4mV5B3kY+Tr5Cfkj9QNCmWFC9KNEVImU1ZSdlOaaFconRTPlC1qNZUH2oCNYe6iFpJbaCepd6lvlJTUzNT81SLVROrLVSrVNundl7tgdo7dW11O3Wuepq6Qn2F+k71k+q31V/RaDQrmj8tlVZAW0Gro52m3ae91WBoOGrwNIQaCzSqNRo1rmi8oFPolnQOfSq9iF5BP0i/RO/VpGhaaXI1+ZrzNas1j2je1OzXYmhN0IrWytdarrVL64LWM22StpV2kLZQe4n2Nu3T2o8YGMOcwWUIGIsZ2xlnGd06RB1rHZ5Ojk6Zzh6dDp0+XW1dV90k3Vm61brHdLuYGNOKyWPmMVcyDzBvMN+PMRrDGSMas2xMw5grY97ojdXz1xPplert1buu916fpR+kn6u/Wr9J/54BbmBnEGsw02CzwVmD3rE6Y73HCsaWjj0w9hdD1NDOMM5wjuE2w3bDfiNjoxAjqdEGo9NGvcZMY3/jHONy4+PGPSYME18TsUm5yQmT31i6LA4rj1XJOsPqMzU0DTVVmG417TD9YGZtlmhWbLbX7J451Zxtnmlebt5m3mdhYhFpMdei3uIXS4ol2zLbcr3lOcs3VtZWyVZLrZqsnlnrWfOsi6zrre/a0Gz8bGbY1NhcsyXasm1zbTfZXrZD7dzssu2q7S7Zo/bu9mL7Tfad4wjjPMdJxtWMu+mg7sBxKHSod3jgyHSMcCx2bHJ8Md5ifOr41ePPjf/s5OaU57Td6c4E7QlhE4ontEz409nOWeBc7XzNheYS7LLApdnlpau9q8h1s+stN4ZbpNtStza3T+4e7jL3BvceDwuPdI+NHjfZOuwY9nL2eU+CZ4DnAs9Wz3de7l4FXge8/vB28M713uX9bKL1RNHE7RMf+Zj58H22+nT5snzTfb/37fIz9eP71fg99Df3F/rv8H/KseXkcHZzXgQ4BcgCDge84Xpx53FPBmKBIYGlgR1B2kGJQVVB94PNgrOC64P7QtxC5oScDCWEhoeuDr3JM+IJeHW8vjCPsHlhZ8LVw+PDq8IfRthFyCJaItHIsMi1kXejLKMkUU3RIJoXvTb6Xox1zIyYo7HE2JjY6tgncRPi5sadi2fET4vfFf86ISBhZcKdRJtERWJbEj0pLaku6U1yYPKa5K5J4yfNm3QxxSBFnNKcSkpNSt2R2j85aPK6yd1pbmklaTemWE+ZNeXCVIOpeVOPTaNP4087mE5IT07flf6RH82v4fdn8DI2ZvQJuIL1gudCf2G5sEfkI1ojeprpk7km81mWT9barJ5sv+yK7F4xV1wlfpkTmrMl501udO7O3IG85Ly9+eT89PwjEm1JruTMdOPps6Z3Su2lJdKuGV4z1s3ok4XLdsgR+RR5c4EO/NFvV9govlE8KPQtrC58OzNp5sFZWrMks9pn281eNvtpUXDRD3PwOYI5bXNN5y6a+2AeZ97W+cj8jPltC8wXLFnQvTBkYe0i6qLcRT8XOxWvKf5rcfLiliVGSxYuefRNyDf1JRolspKbS72XbvkW/1b8bccyl2Ubln0uFZb+VOZUVlH2cblg+U/fTfiu8ruBFZkrOla6r9y8irhKsurGar/VtWu01hStebQ2cm1jOau8tPyvddPWXahwrdiynrpesb6rMqKyeYPFhlUbPlZlV12vDqjeu9Fw47KNbzYJN13Z7L+5YYvRlrIt778Xf39ra8jWxhqrmoptxG2F255sT9p+7gf2D3U7DHaU7fi0U7Kzqzau9kydR13dLsNdK+vRekV9z+603Zf3BO5pbnBo2LqXubdsH9in2Pfb/vT9Nw6EH2g7yD7YcMjy0MbDjMOljUjj7Ma+puymruaU5s4jYUfaWrxbDh91PLqz1bS1+pjusZXHqceXHB84UXSi/6T0ZO+prFOP2qa13Tk96fS1M7FnOs6Gnz3/Y/CPp89xzp0473O+9YLXhSM/sX9quuh+sbHdrf3wz24/H+5w72i85HGp+bLn5ZbOiZ3Hr/hdOXU18OqP13jXLl6Put55I/HGrZtpN7tuCW89u513++Uvhb98uLPwLuFu6T3NexX3De/X/Gr7694u965jDwIftD+Mf3jnkeDR88fyxx+7lzyhPal4avK07pnzs9ae4J7Lv03+rfu59PmH3pLftX7f+MLmxaE//P9o75vU1/1S9nLgz+Wv9F/t/Mv1r7b+mP77r/Nff3hT+lb/be079rtz75PfP/0w8yPpY+Un208tn8M/3x3IHxiQ8mX8wV8BDCiPNpkA/LkTAFoKAAx4bqROVp0PBwuiOtMOIvCfsOoMOVjcAWiA//SxvfDv5iYA+7YDYAX16WkAxNAASPAEqIvLSB0+yw2eO5WFCM8G38d8ysjPAP+mqM6kX/k9ugVKVVcwuv0Xd2qDAuKWvdsAAACKZVhJZk1NACoAAAAIAAQBGgAFAAAAAQAAAD4BGwAFAAAAAQAAAEYBKAADAAAAAQACAACHaQAEAAAAAQAAAE4AAAAAAAAAkAAAAAEAAACQAAAAAQADkoYABwAAABIAAAB4oAIABAAAAAEAAAB2oAMABAAAAAEAAABmAAAAAEFTQ0lJAAAAU2NyZWVuc2hvdM/KHqMAAAAJcEhZcwAAFiUAABYlAUlSJPAAAAHWaVRYdFhNTDpjb20uYWRvYmUueG1wAAAAAAA8eDp4bXBtZXRhIHhtbG5zOng9ImFkb2JlOm5zOm1ldGEvIiB4OnhtcHRrPSJYTVAgQ29yZSA2LjAuMCI+CiAgIDxyZGY6UkRGIHhtbG5zOnJkZj0iaHR0cDovL3d3dy53My5vcmcvMTk5OS8wMi8yMi1yZGYtc3ludGF4LW5zIyI+CiAgICAgIDxyZGY6RGVzY3JpcHRpb24gcmRmOmFib3V0PSIiCiAgICAgICAgICAgIHhtbG5zOmV4aWY9Imh0dHA6Ly9ucy5hZG9iZS5jb20vZXhpZi8xLjAvIj4KICAgICAgICAgPGV4aWY6UGl4ZWxZRGltZW5zaW9uPjEwMjwvZXhpZjpQaXhlbFlEaW1lbnNpb24+CiAgICAgICAgIDxleGlmOlBpeGVsWERpbWVuc2lvbj4xMTg8L2V4aWY6UGl4ZWxYRGltZW5zaW9uPgogICAgICAgICA8ZXhpZjpVc2VyQ29tbWVudD5TY3JlZW5zaG90PC9leGlmOlVzZXJDb21tZW50PgogICAgICA8L3JkZjpEZXNjcmlwdGlvbj4KICAgPC9yZGY6UkRGPgo8L3g6eG1wbWV0YT4Ky8OpJQAAABxpRE9UAAAAAgAAAAAAAAAzAAAAKAAAADMAAAAzAAAC0vqzqC0AAAKeSURBVHgB7Ju7SwNBEMYnqKl8NlYK2mgjWImmCPgPaCeKWtgpiIWlhYI2ljaCpBNUiNgE7FWMoGIlaKOFgjYRBTFFwAd6HrdCwnk3e7f3yPLZnHfZnbv5fvPtThKSKJVK34Q/7RRIAKx2TM2EAFZPrgSwAKupApqmBccCrKYKaJoWHAuwmiqgaVpwLMBGq8DU2kW0DxDQ3Tfn+wKJXDWOBVg5/lUHNruQlsswpqPHVvPmk8Gx1lIMsLxKhWN5OikfBcdakoo9Fo7l1Rgcy9NJ+Sg4Fo71VFSBO1YsoZ6ezmYSlmIbUWwuAayNKGFcqvqlWDh2eiTlS6/M3qk5382xn1/flD2+p5PrAr0WP3zdU3Zyc0OS0j2tNJruoNqahON0gLXk4YLdObqj/dNHR1GDfnEo1UYTg52OtwFYSbAz62ehO7WSYFN9HWXmBiovl50DrDTYcwPse5mIYZ+0NCZpY7bf8bYAKwk2DkvxsLEUj2Mpdizsvxe5e+xv87Sbv6f81VPozkXz9IeL/w8XLD9itCOxFFv6A6xcIYb2AUVY72Pl0o9uNBwLx3qqvsgdmzu4osJLkf3wbp88sQNFPFB7x+YODbDPAKu6ziJ3LDchbvO0uHVJt49v3LDmuK72RlqZ7LWdozqeuIn2jhWJuh25YJe2L+nmQQ5stwF2+R+wquOJPAHWUoILVggX9yPAAqynGo18j0VXXKW/BHD7oh1dsaZguesMd49V3cWqjifyxR4ruceq7mJVxwNYoYAk2IppsT2FYwHWU3GiK/Ykm/9J2jsWXTG6YtMmbt/uqO5iVccTXtfesSJRtyP37Y7qLlZ1PJEnwFpKcMEK4eJ+BFiA9VSj6Io9yeZ/kvaORVeMrti0SdhdsX9v2kcI2rE/AAAA//9dR+GqAAAMAklEQVTtWwlQXEUa/rjCzADDMTDcMBACBAgkHIk51CRqPHa9SrMV17geZRmttayotWp0181arrrZMpZ7uB5bMbpWadSt1dRqjFdiDpKQAIFAwn2EDDAcwxVmuNm/m7w5gCHvAcNk2GmqeP16/u73v/7ef/Tff7sZjcZR2LE88MZJPvqWjStn9JR3PjvG+3+y7eopx3nxoyJUNHRPSTP+x6RoJf6wOWN8s13vN716mI+/+8kcuzzHbb4Ba5dZshi0ucOI0zV6lGt70NhuRFtXH/r6hzmFXOYBlVKGCJUcyVFKLI0PRGiA3KK3ueoC9tJciJVY89TNXm14ZBS551qxv6AJVRekaYNFBPCGzHCsTgmBu5ubialndxeB3W3flGRqm82KwyX2ix9LoGvvEf1Ol1PFogcSSVhYrcfu76uh0/fxHp4eHlCHBCA4UAmlUg65TAYvL0/+2+DgEIx9fejuNqJV34XWti4MDY9JcxhJ8QPXL+RSzIgbOkd4nxDZAL/O9j/HA3uAgG278oDtHxzBru+q8FORjs+5t7cXEuMiERURAg8Pd1E4DA+PQNvUhqr6JhgMYx/GuqWhePCGBOgujg0xb4EVNUNEJFYV/+5fRaiUqC4TyXl6ycJ56jIM4JU9pahvvgh3d3ckxEUgPjYMTFqnU0ZGR1FT14SKGi1GRkYQF+6L+29KgY/MCy5g58grZqD+/qNiNJNj5L3AC9kZCQgMUE4Hzwl99J3dyC+qQv/AIMKDffDYbamI8bfPosThqnjC29toECuxNrqLambqly2XmKT6+SqwfFki2VDvCX2Nff3QtXaQCemE0TiAPrpnxdt7AXx9ZFCrAqBWB0DuPbGvgWhPFlag56IBmgglXrhrEbw8xan2CYxM0eAC1mJy/vF1BbepTFLXrEidACoDkKnTBm0bRulvquJGPm+ISonoKDVCQwKtPGIG7tETpVxy1y5Rk1MVO9VQ0/rN4cBeKV4x837/9GkpPMimXpWVNEH9MgktPFPNvVxPDzdkJ6mQnaBCPNlLlZ+MT35bdx8qG3uwP78RtU1j3lFEWBCWpSXAzWKpw4iZWj6eX85t7m/uSkJqzOyoe+ErcDywV4BXzNapT713ii9pEhdGITE+Upgffq0934zSinowIc1JVmHzungKPIyBaUVINwzYVz45AyMFLWyBKvSpqtWirOoCD2i8fF+qlVQLNNO9OhxYsYyLtbFSvOIbcqKwITsWldoOvLv3LNlIL6xbnWHl/TJJPVlUAXdSrfes0+DWFVE2Wb4cqKPkHbMiSC/zkA/mFsNg7MdjtyzEiqQgm2NL/WHeASs2Vsw047bNWQj0lWHXN+dwrlaPJckaxEaHmuaQ2dSDuWe4+r13fdyMQS0sqUJEqAphajOA9Q0tOFNWi0WRvnjhF4tNz55pZd4BK3VCWOx369unuJTecG2mVfChqLQGDY2tXP0+fWeKzaHFSCoDtbFZj5Bgf6xYlmwai0Wmvv+pEMNDQ9jxcAZClBM9aROxhMr/PbD7Cxrx/v5qsocqZC5JME0dW9L8eLiIgAZefyR72jaVqV8BVDY485bXX5NhtRTKL65Ek06P+6+Lxbp0tYmHmVQcDqyjveI395bhWGkr0hfHIYaWJkKpa2hGSVk9rkoJxtbbJ1eRUiRV7u2B0CA56shbHq/yz1/QofhcHVaSY7bl5niBhRldHQ+sg73iZ3YV4jwFbtesSEGA0s80mXkFZWhp78LjtyVhTaoZcIFAKqjPb1oCbbsBb/+3AurgAAp+mHd1Orp6cDTvLGLUCrx0b6rwiBldHQ6sWO5n2yve/uByHqvdvjsPvcZBbFibiQVeXiZ2DhwtQi8F7t/Yko1wkjTLMh1QF0X4oVFvwFPv5MNHIePetzAmCzF+91MBfBWe+NuWZULzjK7zDlixXvFrj6zkjtK2d4+R1zuCW67L4QF/YTa/OXAKQ0PD2P30KsgWmIP/1RRu/OPHZ2DoG0J4aBC3y8LyhfVlEanTFMjQNreTHfUAk1QGKit9A8N44PVceHp64KZ12byN/WPLnq9/OEkOnDv++USWqX0mlXkHrNTJ2LzjCAE7KgrYmYDK+GJBiwd3uoC1wkisKrbqJOLm4TeP4aJhyKYq3rklCxFBistGlCy93/GSKrAhqGJfHznWrkoXmnnMeN6pYkd7xc++X8h3cyY4T4XlaKHdm0d/nohIlWLKMKEYUBmKh0tb8Pe95eQ8+ZPzZF7LdpLzdIScJ02oHNt/mWYCfCYVh6viLxzsFf+Flju5ky53dLTcqYOGgvw6vdFm7FcsqAyknf85i7yydqRRhEtjEeEyLXcW03Lnpnmy3BH7VYpVxWJjxWszI/GzFRqcONeMzw9Wc0coK32RiR1jPwUoDhVxZ4g1ThbQlwIqi3A9/W4+aL8B163JgMxin3deBihMM3mZilhgxXrFkWofbL1rKbp7B/DyhyfJQ/bA+JDiicIynpA2U1DZq+34dykKKvSIiVQjPSXO9LbM8/7uUAFG6PpnCikGO0tI8dG3Cnje7UN3LqdMAfOywfRmIioDg8N4/4s8KGSe2PXkzBLPJ3vcbylPiqWVjo8+Nbfo0ahrn7CfKkVS2fO+PN6Ajw/U8fdfS7tHbCNfKOZNAB/aBLAdjxboxV7tbmOf+4Dyh/T92HhjBoKUCrF8WdG1d/Xi82+LERPqgx0PZVr9Nhs3glOjoMAB81aF/F8GICtW61SL2K8t79eSJwbqJwfr2FYucjKSKJsiwPQz37Y7Stt2FJd2um27t/fV4Dg5DCuXxiJ9UYTppaRUiiobcfx0PValhuCJ28zepJQxpqJlWYRPvZfPE9iSE6J5VuJk9FIkldnUD3+s4eqX4v5IS4yFJibMathKSrMpr6aN9mAZXt6cZvqgrIimeWN3ic0ju/LWV9UIpOTqjRsyrL5+MTyzyfz02yJ0UhL2MxtTkZlg3ssU018szemaDry2p4RHn1hqTNC4zERLUNmYLIX0xqwIHlVS+Y1ttbX39KOGIlMnK9qQT+/NMjOY+VlKqTGWksr6s9SYY/llGCWaZ+5ORkq0OU7Nfp9psTuwLKqz7YMStNIZl9WZGqQtDJfE85mqJuQW1iE4wBtvbsmhnCT6/O1U3tlXgQOnddwGrqZkNoWF58qkmmVTNFxoQWt7t8lbtsUKU9/RlFyelBBlZVMZPdsSPHIpmW19Rgh+tV5ja5hpt9sdWMZZfnUH/rq3iqTBDTdfnYwoSs0UUxp0nfjmMH3VNKnbNqUhPS5QTLdp0wwMjVBOcRFPRGPppzmUfmoJrjAwWwq1tHTy9NNeQz/66Z5UEWSUfqqQL6AARCDCyJZaLmmEvjz9tKAcPb1GLAxX4Lm7Fztn+qnwQnsOnce+fB0H96qMWJLcMJtqmQFZUt3M7SqTlFtXRuHeteYlgjCmPa7dlDD+okXCeBYljI9Xy9N9rmXCODuR9zylwvjSCT17lDmRWMY44YNPjzRg36lm/h7M5ibFq0l6/eFHSdas9PT2QdvShXM1LdymsrY7VkVj07UaVp2zwsB99bOzqKWMQ3bEIzGeHfEI5/XpMMG832p2xIOyEplNZZK69fYk+MnHDnNNZ8zL9ZkzYAVGCshJ2XPoAnQdY4eUhPYr4RobrsTjdyzhrAxSwOCrE/XILW7iSxWF3BsLYyMQGaGyymKcim8WfNA2tROojXxJw2iZTb3nmhi7qF9LXuYcWPZw5i0WVHWgoLoT9a0G6C/SMYlLh4ctmZvruoaA/fUlYIVnV2o78eXRWjrqaeBNbC81ROWPkCAl/PwUZFPpGOWlwAv7GAxGdozSgLaObr6JwE7csRIeJMN95CTNtvfLB5/kn0OAnYSPK7qJ2fm8cj1+KG6hCFUPRlnuqojiRv0SonxxfUYYlicGMf9qzooLWIlT3drdj5K6LlRoL0JLuz76nj4YB8akUu7ljmB/b4QHKpBIecJLNP6zFvuVyCZcwEqdMSehdwHrJEBJZdMFrNQZcxJ6F7BOApRUNl3ASp0xJ6F3AeskQEll0wWs1BlzEnoXsE4ClFQ2XcBKnTEnoXcB6yRASWXTBazUGXMSehewTgKUVDZdwEqdMSehdwHrJEBJZfN/6JtLxosrpTYAAAAASUVORK5CYII=;" vertex="1" parent="1">
          <mxGeometry x="514" y="489.5" width="70" height="60.51" as="geometry" />
        </mxCell>
        <mxCell id="KJkxDrLsRBGmN8-yk9LA-30" value="Håndteres af stripe" style="shape=image;verticalLabelPosition=bottom;labelBackgroundColor=default;verticalAlign=top;aspect=fixed;imageAspect=0;image=data:image/png,iVBORw0KGgoAAAANSUhEUgAAAJ4AAABKCAYAAABKKu1CAAAMTWlDQ1BJQ0MgUHJvZmlsZQAASImVVwdYU8kWnltSIQQIREBK6E0QqQGkhNBC7wiiEpIAocSYEFTs6OIKrhURwbKiqyCKHRCxoa66sih217JYUFlZF9fFrrwJAXTZV7433zd3/vvPmX/OOXfm3jsA0Lv4UmkeqglAvqRAFhcSwJqUksoi9QAMaAAyQIELXyCXcmJiIgAsw+3fy+sbAFG2Vx2UWv/s/69FSyiSCwBAYiDOEMoF+RAfAgBvFUhlBQAQpZA3n1kgVeJyiHVk0EGIa5U4S4VblThDhS8P2iTEcSF+DABZnc+XZQGg0Qd5VqEgC+rQYbTASSIUSyD2h9g3P3+6EOKFENtAGzgnXanPzvhKJ+tvmhkjmnx+1ghWxTJYyIFiuTSPP/v/TMf/Lvl5iuE5rGFVz5aFxiljhnl7nDs9XInVIX4ryYiKhlgbABQXCwftlZiZrQhNVNmjNgI5F+YMMCGeKM+L5w3xcUJ+YDjEhhBnSvKiIoZsijPFwUobmD+0UlzAS4BYD+JakTwofsjmpGx63PC8NzJlXM4Q/4wvG/RBqf9ZkZvIUelj2tki3pA+5liUnZAMMRXiwEJxUhTEGhBHyXPjw4ds0oqyuVHDNjJFnDIWC4hlIklIgEofq8iUBccN2e/Klw/Hjp3MFvOihvCVguyEUFWusMcC/qD/MBasTyThJA7riOSTIoZjEYoCg1Sx42SRJDFexeN60oKAONVY3E6aFzNkjweI8kKUvBnECfLC+OGxhQVwcar08RJpQUyCyk+8KocfFqPyB98HIgAXBAIWUMCaAaaDHCDu6G3qhXeqnmDABzKQBUTAYYgZHpE82COB13hQBH6HSATkI+MCBntFoBDyn0axSk48wqmuDiBzqE+pkgueQJwPwkEevFcMKklGPEgCjyEj/odHfFgFMIY8WJX9/54fZr8wHMhEDDGK4RlZ9GFLYhAxkBhKDCba4ga4L+6NR8CrP6zOOBv3HI7jiz3hCaGT8JBwndBFuD1NXCwb5WUk6IL6wUP5yfg6P7gV1HTDA3AfqA6VcSZuABxwVzgPB/eDM7tBljvktzIrrFHaf4vgqyc0ZEdxoqCUMRR/is3okRp2Gm4jKspcf50fla8ZI/nmjvSMnp/7VfaFsA0fbYl9ix3EzmGnsAtYK9YEWNgJrBlrx44p8ciKezy44oZnixv0JxfqjF4zX56sMpNyp3qnHqePqr4C0awC5WbkTpfOlomzsgtYHPjFELF4EoHjOJazk7MbAMrvj+r19ip28LuCMNu/cIt/BcDnxMDAwNEvXNgJAPZ7wFfCkS+cDRt+WtQAOH9EoJAVqjhceSHANwcd7j59YAzMgQ2Mxxm4A2/gD4JAGIgGCSAFTIXeZ8N1LgMzwVywCJSAMrAKrANVYAvYBmrBHnAANIFWcAr8CC6Cy+A6uANXTzd4DvrAa/ABQRASQkMYiD5iglgi9ogzwkZ8kSAkAolDUpB0JAuRIApkLrIYKUPWIFXIVqQO2Y8cQU4hF5BO5DbyAOlB/kTeoxiqjuqgRqgVOh5loxw0HE1Ap6BZ6Ay0CF2CrkAr0Rp0N9qInkIvotfRLvQ52o8BTA1jYqaYA8bGuFg0loplYjJsPlaKVWA1WAPWAp/zVawL68Xe4UScgbNwB7iCQ/FEXIDPwOfjy/EqvBZvxM/gV/EHeB/+mUAjGBLsCV4EHmESIYswk1BCqCDsIBwmnIV7qZvwmkgkMonWRA+4F1OIOcQ5xOXETcS9xJPETuIjYj+JRNIn2ZN8SNEkPqmAVELaQNpNOkG6QuomvSWrkU3IzuRgcipZQi4mV5B3kY+Tr5Cfkj9QNCmWFC9KNEVImU1ZSdlOaaFconRTPlC1qNZUH2oCNYe6iFpJbaCepd6lvlJTUzNT81SLVROrLVSrVNundl7tgdo7dW11O3Wuepq6Qn2F+k71k+q31V/RaDQrmj8tlVZAW0Gro52m3ae91WBoOGrwNIQaCzSqNRo1rmi8oFPolnQOfSq9iF5BP0i/RO/VpGhaaXI1+ZrzNas1j2je1OzXYmhN0IrWytdarrVL64LWM22StpV2kLZQe4n2Nu3T2o8YGMOcwWUIGIsZ2xlnGd06RB1rHZ5Ojk6Zzh6dDp0+XW1dV90k3Vm61brHdLuYGNOKyWPmMVcyDzBvMN+PMRrDGSMas2xMw5grY97ojdXz1xPplert1buu916fpR+kn6u/Wr9J/54BbmBnEGsw02CzwVmD3rE6Y73HCsaWjj0w9hdD1NDOMM5wjuE2w3bDfiNjoxAjqdEGo9NGvcZMY3/jHONy4+PGPSYME18TsUm5yQmT31i6LA4rj1XJOsPqMzU0DTVVmG417TD9YGZtlmhWbLbX7J451Zxtnmlebt5m3mdhYhFpMdei3uIXS4ol2zLbcr3lOcs3VtZWyVZLrZqsnlnrWfOsi6zrre/a0Gz8bGbY1NhcsyXasm1zbTfZXrZD7dzssu2q7S7Zo/bu9mL7Tfad4wjjPMdJxtWMu+mg7sBxKHSod3jgyHSMcCx2bHJ8Md5ifOr41ePPjf/s5OaU57Td6c4E7QlhE4ontEz409nOWeBc7XzNheYS7LLApdnlpau9q8h1s+stN4ZbpNtStza3T+4e7jL3BvceDwuPdI+NHjfZOuwY9nL2eU+CZ4DnAs9Wz3de7l4FXge8/vB28M713uX9bKL1RNHE7RMf+Zj58H22+nT5snzTfb/37fIz9eP71fg99Df3F/rv8H/KseXkcHZzXgQ4BcgCDge84Xpx53FPBmKBIYGlgR1B2kGJQVVB94PNgrOC64P7QtxC5oScDCWEhoeuDr3JM+IJeHW8vjCPsHlhZ8LVw+PDq8IfRthFyCJaItHIsMi1kXejLKMkUU3RIJoXvTb6Xox1zIyYo7HE2JjY6tgncRPi5sadi2fET4vfFf86ISBhZcKdRJtERWJbEj0pLaku6U1yYPKa5K5J4yfNm3QxxSBFnNKcSkpNSt2R2j85aPK6yd1pbmklaTemWE+ZNeXCVIOpeVOPTaNP4087mE5IT07flf6RH82v4fdn8DI2ZvQJuIL1gudCf2G5sEfkI1ojeprpk7km81mWT9barJ5sv+yK7F4xV1wlfpkTmrMl501udO7O3IG85Ly9+eT89PwjEm1JruTMdOPps6Z3Su2lJdKuGV4z1s3ok4XLdsgR+RR5c4EO/NFvV9govlE8KPQtrC58OzNp5sFZWrMks9pn281eNvtpUXDRD3PwOYI5bXNN5y6a+2AeZ97W+cj8jPltC8wXLFnQvTBkYe0i6qLcRT8XOxWvKf5rcfLiliVGSxYuefRNyDf1JRolspKbS72XbvkW/1b8bccyl2Ubln0uFZb+VOZUVlH2cblg+U/fTfiu8ruBFZkrOla6r9y8irhKsurGar/VtWu01hStebQ2cm1jOau8tPyvddPWXahwrdiynrpesb6rMqKyeYPFhlUbPlZlV12vDqjeu9Fw47KNbzYJN13Z7L+5YYvRlrIt778Xf39ra8jWxhqrmoptxG2F255sT9p+7gf2D3U7DHaU7fi0U7Kzqzau9kydR13dLsNdK+vRekV9z+603Zf3BO5pbnBo2LqXubdsH9in2Pfb/vT9Nw6EH2g7yD7YcMjy0MbDjMOljUjj7Ma+puymruaU5s4jYUfaWrxbDh91PLqz1bS1+pjusZXHqceXHB84UXSi/6T0ZO+prFOP2qa13Tk96fS1M7FnOs6Gnz3/Y/CPp89xzp0473O+9YLXhSM/sX9quuh+sbHdrf3wz24/H+5w72i85HGp+bLn5ZbOiZ3Hr/hdOXU18OqP13jXLl6Put55I/HGrZtpN7tuCW89u513++Uvhb98uLPwLuFu6T3NexX3De/X/Gr7694u965jDwIftD+Mf3jnkeDR88fyxx+7lzyhPal4avK07pnzs9ae4J7Lv03+rfu59PmH3pLftX7f+MLmxaE//P9o75vU1/1S9nLgz+Wv9F/t/Mv1r7b+mP77r/Nff3hT+lb/be079rtz75PfP/0w8yPpY+Un208tn8M/3x3IHxiQ8mX8wV8BDCiPNpkA/LkTAFoKAAx4bqROVp0PBwuiOtMOIvCfsOoMOVjcAWiA//SxvfDv5iYA+7YDYAX16WkAxNAASPAEqIvLSB0+yw2eO5WFCM8G38d8ysjPAP+mqM6kX/k9ugVKVVcwuv0Xd2qDAuKWvdsAAACKZVhJZk1NACoAAAAIAAQBGgAFAAAAAQAAAD4BGwAFAAAAAQAAAEYBKAADAAAAAQACAACHaQAEAAAAAQAAAE4AAAAAAAAAkAAAAAEAAACQAAAAAQADkoYABwAAABIAAAB4oAIABAAAAAEAAACeoAMABAAAAAEAAABKAAAAAEFTQ0lJAAAAU2NyZWVuc2hvdG6i5usAAAAJcEhZcwAAFiUAABYlAUlSJPAAAAHVaVRYdFhNTDpjb20uYWRvYmUueG1wAAAAAAA8eDp4bXBtZXRhIHhtbG5zOng9ImFkb2JlOm5zOm1ldGEvIiB4OnhtcHRrPSJYTVAgQ29yZSA2LjAuMCI+CiAgIDxyZGY6UkRGIHhtbG5zOnJkZj0iaHR0cDovL3d3dy53My5vcmcvMTk5OS8wMi8yMi1yZGYtc3ludGF4LW5zIyI+CiAgICAgIDxyZGY6RGVzY3JpcHRpb24gcmRmOmFib3V0PSIiCiAgICAgICAgICAgIHhtbG5zOmV4aWY9Imh0dHA6Ly9ucy5hZG9iZS5jb20vZXhpZi8xLjAvIj4KICAgICAgICAgPGV4aWY6UGl4ZWxZRGltZW5zaW9uPjc0PC9leGlmOlBpeGVsWURpbWVuc2lvbj4KICAgICAgICAgPGV4aWY6UGl4ZWxYRGltZW5zaW9uPjE1ODwvZXhpZjpQaXhlbFhEaW1lbnNpb24+CiAgICAgICAgIDxleGlmOlVzZXJDb21tZW50PlNjcmVlbnNob3Q8L2V4aWY6VXNlckNvbW1lbnQ+CiAgICAgIDwvcmRmOkRlc2NyaXB0aW9uPgogICA8L3JkZjpSREY+CjwveDp4bXBtZXRhPgrhJSkqAAAAHGlET1QAAAACAAAAAAAAACUAAAAoAAAAJQAAACUAAA+1HNRVNwAAD4FJREFUeAHMW8uOHlcR7t6QhAVOwsIzRILEjteePzwBudiepwjkHjsYJEBIUSQ2wA7EAgy+zZiHiMd2LrzBzLAE4kuCyEwSCZtsEtiYqjpVdarqXLpn4khpZf6uy1dfVXd/c7r7H2c89/wHd4faNtaCGEsJLQLXQjUeyy0o5qLPnIkrFeIn+aN0CITBjZRuSO94KPNIF580nuuHjlRwwuVNnTUdxjn+pNoatAEq3dh1visOtI6qltOYGq6kd+qw712cBEpHsn0peUw7kvAaPYqyKq4a1GO3J6jgw0AoD24ugYTlQtxdW9wqbMW1dwRIFxNnUzJ5qGARztSFNLkT6YxpABthrLsLOUnnWSVCzOmjEtJsKze2ElDZTLEQiRxABjeee6Gx4iHYAKm29tHExAScCgrhMGmLCKVvJhShBJkrFYmvyBZXK46FlOsBEnv9QmtnPn3AE6iKGaUk4CSc9iWPy1dqcb5yqwQroaIuYnpCxOKAT8ecg1l4OVb0dIEvjLMEMI66arh2zpkBiXx7vsjNHpBo5syUkxgGBJzMiWGxiTXgcieTMKbmTUz4MES2ycWDsqm6cLmDBVKIA0VcJ3KtxvMvvi9zEcLdvjDSeqYyfLMuCHHZopqNU8M4bnjnlEUTaS1gXHF8CgCjx1XkTMCYls7ZkxgAGIxcFAmJT5wSbDWo5hkMOeQqIBpQw7GLI2JElJuJABCtlVdihfCkgeylUfLxkRE3eoTkUIU1ZTifnRbS98j4wiKCFotBz4AQGnBdIQrlFB/lO6BOqnqhZDjcm1ormPKie6wrJL6Y56DhF1iqhQ5Tt1Mo0DmUR41EF1zp0RZeo0AKcY+CsTAdgkCcCRitt4UazAZxca3nzRiylEeNAGB3Ii1FJMSZWHfwQoB7Wx9PUgtn45GDcoaUze55kRq6Y5nayT4M0BI1cmUlVJ2FcBUwMGXh1fO5mVgdHDa3aVnJbEwRGpSRNZA6BdeihFdGKvZUGwgKEARmQLCMes/47Y9tZWbfmpv2es/KZZD0wRHF9j3RY3wuKyES6WFq56GCb87B9eP5l24FjGExpsxU3c/FYXETaxLGLPpxToZGV2zCNmsh0cyFLhM47EcPHRM4ZWWcmzMm0Z/i6+WNINJ82oDuTNkTSx6b2Afu+nyCh32tv+lrkMlsckJvFV6N1DEZgL5wIMDELb4RthC1q1gb5FNCIRtXBj1pch6Kk6i1MQOJOmUmR2sSw4BJHNMyLk2DjsxVIaiEmCXtKC8g5BHbm1pj0hozNTKJCWVYtAouDhRxLoQ4TXjh5VvUR5sZYryItbiBZDYnRgynzrY/cdlASZQjTZwkkA1scXOlWoxwmOJ4ivoi4OqVHA2EWkJSvQQCT3AdjziAyS87wmOSYuJ+kg8ANUwtJrwu55x8mD4slX7vMOy4GIx2gYVHlSEpbHgKNKWGP+eINalU6gLOSXn4pNPLKUHEU65gAWgAjUqwEnIl4gCu3gsJOKNcakh1tXWZBB5X6pyQy9VqARwnkao8r0QUmUEmlE3AV0o0P5nzgDwHMPiUUiaDkwEzXnjlpuMoWEJBYM3uLByAGitjJmIr8IUhPdxhnQM4rMS+vqTnycsLlrT6jnJPN0QtbLM3zdQYrBHGdnRE3D99sdUBN1MmYUxzOMnUnBjt81kcv5QQk3NgxSuEx609DoIhMPWazjSVnjbjbdfCOQlnQsVBeqZiXB8w1RUBRSo61aZ3zKO//Pj9FF5+/L5h+fB9ZL955hMVLpabrmYcIaYuVBdPdQryp8BdEB1IcM71MTgplV8sk0r1PqB8MUx+7bxBg1Zv5eAh9iA8LU2GHIUcLUVtW+kQ6lqu8jUAtQMVKNTazhIu9tUeEkQGtiVUEOQACQzEJiJD32477/13QOHRZvhkTgyJbeu6X9oaHleDTpFLfxOncJErqtMsDuecXNAI9+YWoWOpHLMKj/jgQxK5U8VqNQeoJU/DIGOnAOkn0ghpYgpBpn7uOIBfWrh4lVeQmDRo6ZPohyeOH4CfbyCouu1cN8KzPDKJacOUDpVJzfA56C3DZRPEqzk1MqQSkmQ6cvjaA+5s+YVHsmFf5eFgJUdzXXwVn/FSG0+XC2tZxDpO53im5CVAUn86lMTbKGyEHXMXw8mAkWOhMHyI73jFCbUSxiP/LghvMSm8j20J20KKncXOsBgq5+OaSqlhSWYPI79IsahZwyso58u5IhH4jss5w3jx1RuZw+cCk0kaM4C8OwMnzfE8iJ1IGsWVMD5fLR+5f1iC290u3OI2N+6Eg0bGUGieUbGvzeocJmhMGu+J4w/OF14sJgb54GQPY3I6m5TbyQ1O0zWjiuNgNQckRTz/8zZqUeQrjQ1mvHjSCK+CnSa1bIiOlzGQGnjIkCsnlmAGK3E8Ayi0xeoBwstDvXDtvPf5cPn3H4nr94YvJySY58ZVWaIZ5y281S7gp7WlWy2veFNkLu+c/iAMzecGp8n1ZMGHzzcmFnDr+mVaRyDPb7avAho1mPfC6wCFDCG5mURreybb59cnNUaM4cq2+tpSKz2o8GYcC5EUuBhgQYYwCe9YW3hb1z4dNq/9h1okhvypwwdOjYtB+QaoEc4P+VFupgBMyWJUbGmb9ow3ZT7PXsgLl3zdJL6rhZrx4ilc8Wpp87e8QO5I2CGGGTj6zSBc7FkproRwhZsS3sYfdmGqVOy6VPhqx2IWDZOWYmQc6eViwcLD1Q23rWtwi4dNfHLwQ0op4JzyzPu0UmQDAD1ML4ckmleDqOmoTMidN0KYpDEpVfswmMTFeuL4uHbqetEjDuF5DSMmgitYS2qfY21csG5f8PnAfOHF2RJP0d/T6ygSpnPBUVsrt/hCZIiVYmVrGITzYNtDqzxEw8kwSWMGUAH1eSjs1UKunCsUBNfzs2cwVeERzICqJBK0qpKY3c/k0QObwC8//sC8FW+Ch0YkTHhIhkSvFOeUQ9aZM1m/GHE9csp7gO9BjdKHwsSISI5L2pQWJmEawEaYurmcc8KMRcfBC69SW5ZwZBILAMXISdEAkSzBbRO35SMPwLPZZ2TvwssBblKBtq1awme8U8sYrm74jLdxBm+1MzZLrPAYxEnSC83O9TSbQsFIWY5AaZ478hCNLfV2gC8fSl9ILx++H27dnw87N/+n+NwjnRvxiSLwpKIUFJycUOmhxGDs3EiPDcRc5WJ0yHnukLQNODWuvSa3Wi0tmQ0PmhGpvAanMWMswWq1WH2IIiI6k3bm9pX0lcjWldsujnU94SEYxVfbNv6YBLmAr0KW4IK2NhIuHMviWMLhxZdtC14Y8Fku5fxfKwSD+124gIjDc4X1i2fkRaQ8SVtv36ELjkJYPPPgUBMEcm69nV5WNt/+FF3dsIeswhq0BrVMfZcPfW1YPHmg2QPLNt9N/JvvSJ8wc3Btq/qLJxSEGhDee6ojyikADU0xtyb1zbaGsoNgQxLcCbiIILz9bNtX7wwiQFrxTrZXvB7/2k9uQnqEr0HgOzgQVWtDgaIwa5itt2AWEt5DRkwlE65SG2fT1zoovNWXD5YgjoigFk+LOJtQSiB+k0VIgZ7q+JKRqCcEF7uiAEWEPpd1oHETol8ETbCKdMaUHdd/mIVnsN40pD6RPfl/FTI0NVg58dCAP19k2756e9iCH9xQvKtfRHgw4OIYiKYjvF0QTWtF3AbhbfKKh6tTa9uL8FocvTjeEi+fb3xfKcsLX4wnnoLvHJ9q/3mv1wdzb178BG71cguGQL7IXFoEUrwRxmQpvA6Yu0ySZtw4fP93h7K7T+teCW/9p7jiJeGtdITXGxOFhyse1neFd8OseIf6K16vXy9XiM9dO3TuDkl081bSVi8UHYqPNtfDVkBCv7NtglS04/ppu+LhKoVbo7ARTjXmk3EnTn1r37dXwzao8IB36fD+V7x7KTxcMVd6Kx4JLz1TLpPw2l9622Pdq731Djxzwk9re+7X326l9hRH8V1eY/FBpShFSQptSACQeptV9DBeOv0P5VCD8qkQv2ygOLlClgkKiyF4S0Th3YsNhbd9Ld1qD34VhPfWbVjt4BGiI7xdI7ylL1F4eH43Lnxk3kYhwNdggbdYeK67V9vltY/5lht0wK7XD3elnMej54TXHBCQiTR9+2z+d27LrgeMQXq2O/5wk1ISu/w1Su/FA0W3ffXfVIIr3omT+xP0+s9uEAc+462AcPaz0a32KyY8vOWi+Ogq8YWeIzpcxXZv4jcASRiLJ/vPgWnVg78/6womUkv18XzKG26ZBR1dOv13qDYpY0Yi5zdwMsqJU490b7MouCtnPnSUOAYKS0S4AgLBzQvv6yC89lvt7vXPAJ/+dGUPC3kwhxvyzhUevmjg6mW5tkR4T7dfLmjFO5dutbTivTR9q92GW+bOjc949YLnM+A/+Bj8yxtYMae2tdffNzPCm/vEarf1Ltyi4Sduq88fHJYfa39NdHldVj1bCReuoQeLIptx46UfBeG5u7dhM2ZBZgOEG4dnf3vYRgvbiqlImsAKr5rb18yK92p7xUNxXfmTCLoyNIRQdFPC2wUB4OqG+7xlPuKYJby7QxJe+5cF+TfO7xYCl74nXliaFB+ueGn1Snen5371HSmv7tfe+MDH+dBQdKvPtb/6oVUPxOe2fFo4HALBRRALz9A4kDiyjgmO45KWsNkfPzmx4oFArp75F1dkvtQJP80/UgBPJqBb7Vzh0S0BKqWYbxFzhHfp5+m2bA7JmUl47dt1WvF2qGaO8NZfv+X4rUP1IL7ehqLbuJi+Xlk8CS8+nWc7Wu3+Uq52wo/Ca616KLwNKzy4dHJ6pd7t6dKWQhkv/RhXvPZKKaR4zcRO6OzlRgDiHiQ8uG1ObX+FlUxWsxLLZLRL/VB4x195pIRyhFa8s7LicVBGhYPAl6WVZx4ejnae8XCVu3I2iabVaI7wrpzboXOG3wmuvthf8dZfv2la8XGbyOqLS8MS3HZb216Et7EGLyP0bCds9jzD103fg5cS+Glta7/4Z5GSU+wSntbpZ/wzC69W4GLs2AZ6esCwcYSuHP/mcPTY9MuF9EAB4lYVoTZKz4BzhSdlOJvY2GOe8D7UNVePzfyr5ZWn4XYNP62NxHteVjx4Idqz8KQrTA7/oehWJ1a99Tdu0Tg/+OWjrbEovl1Z7aQbApYehefKznPexjoI95b5QhkHhP/iea4OATgEg/D+BvhUmIF2DELmVLQaaWR49jdHInqW71bBwD9nxbt6Vm7h0s6QgEnCmxDN1XNh1RQq2o/D0S9BeDilvAm6dnB97qXwPPfePSc8c2ozEweruYT6PwAAAP//JwGGwgAAEDxJREFUvVrbll1VEd3njcsToqMbFJKAY/hEd/8BkHQn/oSSAILDJxWVSwCD+OAvAAFyRfAHSDpc4g9IOniBKLkgkG4hoA8iPsWaVatqVa219qUxYQ/67FpVs2bVXmee2vucMDv443cvdzhm/NrzgqDAAmBWJgGTffO3X9vt/NG3QspmFmsnPu1OrX4aUsC564ffDD6/WH/vP93xZz4UV27FQ7qllRu7xeUbgs8v1s8Sx7MfeZfYjm9p+Wvd4o5hjmP7L3Le/G3Xdt+9/6aaz3kO7D1nq7iLsvPY6t2/3maYlnHshfXu4rkvuj1Pb22Fr5jv1Rc3uovn/yt8bk+qAhxrA2YHfyLCQ7ghrXHyslohxsWd9AbtvLFETV6z+EiA0v7lbg7Ce7BfzCwaEl55PX69tEI9kXD6jiw82pHiejTn6gjPvQONulOEt07C2321hXdgo1s//wXpRd6VGVlq6/64+UMuv/sp5xALL18wE1BMwkZTiZLj9JIzM7a05r99HQtmkSbNlzlWn/mgwyTDwVN0RHirOvGKYtrrNOHR1NSLLHiwnCK84/tlamLi7br/5gZLdh3YezYvYJVvADnGhHfgiXPMsfvpbZHrCq9OnfxX99bJf0ZW+qBgf6u2yaf7jgR8nqCx2aGfvuP9iLWPxidQgb7g5VblBNTJ92UEeOjhvzIL3sSdo8L7QFtzZ2os9YZpNzrxnku3a8cgppBcNeH17N/8Nrpd3zdyu/6KhPdqmni6n9UWsSPvdyveFl7PxVcEjCvBGLt4j52fzFLdeM5a2MQEXHvtUrd24lI3f9t104XnWvC9Ly7jGW/4VrvaEp67jqUdeMYb4DhHz4k68Ug0YxPv4ONnwx751vFhvgkc944I70lMTZqMv9rmL7eycZvE35c9eNpZg2bUdCHkFmTODj3UN/FUKi5BqRsuDcVzAs6UC9GYjOk3RYDrZz/vcMudJLxnWxMvdUblWXhDoqEvF6v7deJp70XfV1x478nehL3K+7W0/YZu8e7+LzNAHmThdd2uPTd389uugat5HHvxYi08uzwzmrntOxpyin0aoqHY7PBDf6EMeTzUSj4nPjQyNME8SjMb5yYMTm1UcnY+eAs9B17XIBDXBgnv+AThAbfKwqMaqbZU0nqzicJriTdzYtotbh+eeKvPf8hXidvkrvv6v4njCg8+AeH1H/c8fXt/kCJrb37WnaI/HCzSu/pFiml37IB84+aEoZeBRyxNi2LM9zrdccXp+4F1Ep6F+o30JipASOFU+gRIp8WVryuUbpGfmG1GwcfCo9vo0HH4kTPdHJ7xHrhlCNYdfvTMQFyEtzA68VrCI1q9vh10u54gPDQC4e2cLLxiPyl/ieqMTTsTHvU3v5WEvmf4tnyKvhycOgmh1vX0GtG7P+a3XkOTkn5GKd47jwk24zJYKwHTFl7GBp5q4XB+MmJ+LpDw8KfHaXpGW3/v8w4TqXVAqAv07NV3IH/ttU9IePSMNyI8nnrP9QiHCuBWu0DC6TtwWz9ht1pB8aa56128wsJDlbU36XfLN+R3S8yNORIsRDsmOuQefJImpuvvnqeGJyTXI+GJ+CA/SdYB50UCwS3dKRP02CFMSmAV4YqCFEfDJYEUpPjs8M/+nBhaaCUHWSue6cxKMBbechaexcmAMFSAEBIOPfOi8bIZ4Wm61sAa/DwJqT+IZkh4LFy6TebD7UPaVeSPTzyIfzZp4uVaXbdOX0xwQHRTjjUSEETru1y6m6bkwO3W8yK/FMvcFqkN0enBt2gWnnpw9rqgDmxphgeLTSEnPPN18Z7t80DmLo+52wWGhOcZp9onnn2/wyTClX3vN9+ZmhZwhx97l9eLO2i6Dky8jXP0nLi/MTHdpS5uJ/HSX98B8ay+IBx8q723/0fvPo6pfhHeJYJTg67H7+8bn3pTawAH4R13wjMluJrA6VKmqKJib7MjP9eJh5R8OHiWmjJmWK+1sPINunW2J15vUk8AE+jEc+9bdOUHt45OSAM74wiER9ewAOENiIaF93xDeI5rTHgb+DnlKxDe2slPO/zlI79Ji3dNn3o5v99aP0/XBOFxiVxHM6AZ85qhUXHYj21ReCo3gGOmTsHoDfNPK/D5SgoPogu3Tfr2u3L/raHelMWRvTLxpgjvxPN/Z8q8I/HKx4VHUzMJb24bPZdepYl3aN/fBi998S56JJh4yx0koiAL73Dft2G3P85sclKcJt6f8t5WKDBQOBCFRZWh2DuWr8zEO/36J93p1z+mOrEui4cm12aOI3vfYZ7NCK/k181a3D5haqrw8IVoz5W/1a4e+JDFUPYY1rRtPPnu7P/pJ+AHFsPCQyIVs98h4/sVaAFrCm8gpyTI65iEh/nlB7bk8CYtTLi33/i426Bvwu1pO+Nb5h2bEJ8IT2+1/aLFrVYnXmjbXeIChHd3/zMe365flNs1T7wR4W2c/7yb2zr8c5L2skG3vLWTlzqc9QPJH4j0pkub8mofFNx2/w/xrV+gmr//rFu/0PMvHm5vpE91aAfaauru6C/+SBEF1bdOjciF6aUPnDUhQRZo8uG4Y4eck7v3ZILjLxK9MAssJN4xAbKY9tNzIvXHoiHh9B2MfUFutRmDHcgXN0144MC3Wno0GBHe4V+eoZ9N6AsL3Rr7DghNReda6YGnXnPLjFsg8eEbK37rm3JAcKdZcPJNG3VVSkIt/3OAcmk5DAuzNejOMxEePA6mpgMi7rdeHxItLWDbi7nbrudA+dMJ3mgcG2f/zWd5KZtw1csQJWCqKL+SbJwTPuFvJCmQQrqZ6mqemcLz+Czvp2y3xCRb2TPyo/e+M5bSEh9uc5iK+FVLqroCrWarcOXgCah3E08hk5Se6Uh0+aD8moLDugsSbuOAsXRAWHjmyWWaVhPnnSJHyRW/RrU53rapvwmCSAmsIe/IrJv9nTESO55UUD1lq+q3dszQvoAgW5e0miK8IyS8eCSe6DRe+8GXZBh7SoVd/ZJC1m1c5HKZFV/lCLQ5s4Ej1+zow7jVlod3uURnlhmD65QH1kyRLds6epezVz/Zwuz9AURh6VYQ8q/OAd0gEFf7VXPTHvBSfXWG3ymLFjlzdFtb2TP8LfzIPvnGbRxmEFl/eUNxHwkae2okN1zNIgkX+bSkklC0/HQqpDxrCvlnLz38NvO2yZGZ0PZtRdkci7oc3Luadk+61Ss+x+zvzakr6ESALPO+xOeROst5ptbK5Jxc7iNoMPGWpwpvtK4DsImKzpcuQfuYpf7s0SjFq1NNkSBFgJbGHWrVOPUo3tc04Xmnvw6fpETAmt87faIRErJ4cyy0WSPUQnLliIzNsDrtCrg/t4ocfqWp3hfsBChwLLzdwxPv6FOYeNqFEOhq7DKlBcop6obWErveU1iIAR8WMTWEwoJx2qdF2LBVwmAUJB+dZi89golXpcbCWPHEi2Q1KDFlfoPkCQTXhHqaOV5SkIybAJ4A4Q4TzjYr9VNNjgl8c1uv75ZHhYffGP0BYton5pciumseZXboIywMEoweiNRwQWeGfFsUgGJpMDMIgP9eeuR0cT0ps7q1IrNgNUzhtyLRQKGIlJU0QK+09HEvVu9XUNE4FwPO/JZkhmsIKOd3pgP1mAROeKvVg4RbJt6WAUTXHX2qFF6CW19qxL6tfgrjZD6rqLklpwEaBuVwGj5qko/XmpucEnYclUNizj377aMivCaho2LTJZahXN0zDSQMhAJ3wIVFgNkiQbSLMkP9gndRNjXq/EbsjCqcHcKQeRCB8Hbs3uIIoomfSV47eIGchM5UEVSuwuNLrudh8CpMET4eio3WTQA6RSmKGBH1NVA3r1OuK07CW6N4HRCM3Fi0e4/KpI6tMlOGTUYFeCb10bnH7RA9ptbRsHY3TshIBxPTfwlRLvTngFqqdTaYGCy8e7YYEkL7xwX6X8MupN8Zaa2HpZJDJ83kfeFkZUDfait7OpPbXZULFvhi6YDO1N93ibHYn3YNSiVcEp7jKU0urh2UVOrPSYxIbh8tMznDAxoOCefPV67SsCouYLwzdcAu729wkUt/WFWkZGPlr4TWCmjTsBfPeIqD6EYP44z1cmUDGG+b0+EYQAzsKv3xqhhKEKBM/O0C2VvxotueOuCWiZfz2arxBSAtWeF5OzKoIMCyASvf3JwfrZyKR31aJfrWpoRSRRuZVQOJWZdKnIHRMpy6eyYjeCqs5rTODuzMFrL0yR5uIomhHo898OtUwbl0/+ES2wUBL5aJoQ443Ozlx3CrBaGnFy71GJFLNF9pMAYvVTb5PIHGva8kK1KqsMsNt3Md/5KglSzdpZmPDQQqNPnI35sTGSRb8Oii9eGIGW5lNcxIQe3J+Z3p3y1FwseQhMt+V89MAgU+RQenoMmFaIzISrMAxEzya0sWoyPhnWrEM60KMnuYNpPGQKLd7CmR8Klup7zM4qobxUAUebDit6LoN6KkUumr6xUkZQdFWMXn5yNSLhfPRPD5VOvDnGYgu0DXS/IUR8qnk3EXiLBs9BfiujCcskodXSnMzhQW4aV+LNAypmBo23Ix2W7d9IoSxcmZ8RVC3gQCtTGTGoqkvSllgD5uaTM10u6B6BXAlcJiQm3gC2Z7E2M6VgXS1da6QKhd5LPb14u4fm7PE3MsUrnVoay6TtdAy9nLe99K0Rw0QjX4NjYQV1zPGeKT/dRGAMx88NqKjeDpYRW3ZwQL0s03tW8rXpbyAWJ1orAaZQrWPi0uanTA1uGCLANSXruPBmnDlblLFhogDTxcEUmeBi43qVYCOawTnoLkDAwXceBcxZcPgAyJdD0rq5KLBqRyD9RTvELTGhnikldjsGfBIkF59DwY1mCu4t8Aq6Vc4ay5yVksA9QWADlWzmknOpS0lLDeb7TeCHRYaEYI8KYiUnjZoxmgxWfUr+Hzx+wVmngVkWPVZOfifPW7qyO/eckuM3zZHntqCk8eXwt8jeSGK1eWoLA4LjfVMnbMIi6rpVzmsF3JHuHDVIFPMtKXASvlvpiUiYbxRiLzrpaduHofgXyO1YVRX5dBmzjNkCC/0ouxvPK43mqNxhWBL7Gmk0eVtpK6rADRDWYn8YFSv7xkYC7EVl5a0xnrLIcTb+Vw4B6TUnKP8a2JK5c/WAbBtCtTBV3xRYftcXSnhlw9a5F8TawB2AjXN4r3AOpoE9emdWavPP4Hu5bQiud2n8uMIYDHlCw+lpOalqbm/pGsXk1xhM70KOcOAlIGOXtUijRcMafG6QaO4XK8LEKds6v054zKauDlgzvAUYUqRyyTwoPX5zMCHRb6joRA1ApduAivwIBXXUrja1kwOHWhmbouGVK8hCl87FzllQ7UK315OxqhVLHIKZbttghkz4yK8N/s1efOjldNeZN79klTFazr6iwAz5I/yO76OQ9YRSbiUf6UkUhbcGXEHuPBwdZVrxT/3ROYeB5SUyKqNLxJNQS1+PBMyYXkCUcJUibnd+Y4IYENr1zIMidTcCS5fCRntLzk8+6RZoQrPcM18rRWGfK95RIlKkUqd+UIFFpTnIr1XvKpO2c2rH6cZwtklPI/tbXBC8Lf9Q0AAAAASUVORK5CYII=;" vertex="1" parent="1">
          <mxGeometry x="674" y="499.76" width="85.39" height="39.99" as="geometry" />
        </mxCell>
        <mxCell id="KJkxDrLsRBGmN8-yk9LA-31" value="Deaktiver pin-kode, hvor betaling er glemt" style="aspect=fixed;sketch=0;html=1;dashed=0;whitespace=wrap;verticalLabelPosition=bottom;verticalAlign=top;fillColor=#2875E2;strokeColor=#ffffff;points=[[0.005,0.63,0],[0.1,0.2,0],[0.9,0.2,0],[0.5,0,0],[0.995,0.63,0],[0.72,0.99,0],[0.5,1,0],[0.28,0.99,0]];shape=mxgraph.kubernetes.icon2;kubernetesLabel=1;prIcon=api" vertex="1" parent="1">
          <mxGeometry x="874" y="495.75" width="50" height="48" as="geometry" />
        </mxCell>
        <mxCell id="KJkxDrLsRBGmN8-yk9LA-32" value="Customer table" style="swimlane;fontStyle=0;childLayout=stackLayout;horizontal=1;startSize=26;horizontalStack=0;resizeParent=1;resizeParentMax=0;resizeLast=0;collapsible=1;marginBottom=0;align=center;fontSize=14;" vertex="1" parent="1">
          <mxGeometry x="414" y="819.75" width="160" height="146" as="geometry" />
        </mxCell>
        <mxCell id="KJkxDrLsRBGmN8-yk9LA-33" value="CustomerID&lt;span style=&quot;white-space: pre;&quot;&gt;&#x9;&lt;/span&gt;" style="text;strokeColor=none;fillColor=none;spacingLeft=4;spacingRight=4;overflow=hidden;rotatable=0;points=[[0,0.5],[1,0.5]];portConstraint=eastwest;fontSize=12;whiteSpace=wrap;html=1;" vertex="1" parent="KJkxDrLsRBGmN8-yk9LA-32">
          <mxGeometry y="26" width="160" height="30" as="geometry" />
        </mxCell>
        <mxCell id="KJkxDrLsRBGmN8-yk9LA-34" value="SubscriptionID" style="text;strokeColor=none;fillColor=none;spacingLeft=4;spacingRight=4;overflow=hidden;rotatable=0;points=[[0,0.5],[1,0.5]];portConstraint=eastwest;fontSize=12;whiteSpace=wrap;html=1;" vertex="1" parent="KJkxDrLsRBGmN8-yk9LA-32">
          <mxGeometry y="56" width="160" height="30" as="geometry" />
        </mxCell>
        <mxCell id="KJkxDrLsRBGmN8-yk9LA-35" value="Payments" style="text;strokeColor=none;fillColor=none;spacingLeft=4;spacingRight=4;overflow=hidden;rotatable=0;points=[[0,0.5],[1,0.5]];portConstraint=eastwest;fontSize=12;whiteSpace=wrap;html=1;" vertex="1" parent="KJkxDrLsRBGmN8-yk9LA-32">
          <mxGeometry y="86" width="160" height="30" as="geometry" />
        </mxCell>
        <mxCell id="KJkxDrLsRBGmN8-yk9LA-50" value="PaymentDato" style="text;strokeColor=none;fillColor=none;spacingLeft=4;spacingRight=4;overflow=hidden;rotatable=0;points=[[0,0.5],[1,0.5]];portConstraint=eastwest;fontSize=12;whiteSpace=wrap;html=1;" vertex="1" parent="KJkxDrLsRBGmN8-yk9LA-32">
          <mxGeometry y="116" width="160" height="30" as="geometry" />
        </mxCell>
        <mxCell id="KJkxDrLsRBGmN8-yk9LA-36" value="Pin table" style="swimlane;fontStyle=0;childLayout=stackLayout;horizontal=1;startSize=26;horizontalStack=0;resizeParent=1;resizeParentMax=0;resizeLast=0;collapsible=1;marginBottom=0;align=center;fontSize=14;" vertex="1" parent="1">
          <mxGeometry x="674" y="640" width="160" height="146" as="geometry">
            <mxRectangle x="500" y="726" width="90" height="30" as="alternateBounds" />
          </mxGeometry>
        </mxCell>
        <mxCell id="KJkxDrLsRBGmN8-yk9LA-37" value="CustomerID" style="text;strokeColor=none;fillColor=none;spacingLeft=4;spacingRight=4;overflow=hidden;rotatable=0;points=[[0,0.5],[1,0.5]];portConstraint=eastwest;fontSize=12;whiteSpace=wrap;html=1;" vertex="1" parent="KJkxDrLsRBGmN8-yk9LA-36">
          <mxGeometry y="26" width="160" height="30" as="geometry" />
        </mxCell>
        <mxCell id="KJkxDrLsRBGmN8-yk9LA-38" value="Hashed Pin kode" style="text;strokeColor=none;fillColor=none;spacingLeft=4;spacingRight=4;overflow=hidden;rotatable=0;points=[[0,0.5],[1,0.5]];portConstraint=eastwest;fontSize=12;whiteSpace=wrap;html=1;" vertex="1" parent="KJkxDrLsRBGmN8-yk9LA-36">
          <mxGeometry y="56" width="160" height="30" as="geometry" />
        </mxCell>
        <mxCell id="KJkxDrLsRBGmN8-yk9LA-39" value="StartDato&lt;table&gt;&lt;tbody&gt;&lt;tr&gt;&lt;td&gt;&lt;br&gt;&lt;/td&gt;&lt;/tr&gt;&lt;tr&gt;&lt;td&gt;&lt;br&gt;&lt;/td&gt;&lt;/tr&gt;&lt;tr&gt;&lt;td&gt;&lt;br&gt;&lt;/td&gt;&lt;/tr&gt;&lt;/tbody&gt;&lt;/table&gt;" style="text;strokeColor=none;fillColor=none;spacingLeft=4;spacingRight=4;overflow=hidden;rotatable=0;points=[[0,0.5],[1,0.5]];portConstraint=eastwest;fontSize=12;whiteSpace=wrap;html=1;" vertex="1" parent="KJkxDrLsRBGmN8-yk9LA-36">
          <mxGeometry y="86" width="160" height="30" as="geometry" />
        </mxCell>
        <mxCell id="KJkxDrLsRBGmN8-yk9LA-48" value="SlutDato" style="text;strokeColor=none;fillColor=none;spacingLeft=4;spacingRight=4;overflow=hidden;rotatable=0;points=[[0,0.5],[1,0.5]];portConstraint=eastwest;fontSize=12;whiteSpace=wrap;html=1;" vertex="1" parent="KJkxDrLsRBGmN8-yk9LA-36">
          <mxGeometry y="116" width="160" height="30" as="geometry" />
        </mxCell>
        <mxCell id="KJkxDrLsRBGmN8-yk9LA-40" value="Subscription table" style="swimlane;fontStyle=0;childLayout=stackLayout;horizontal=1;startSize=26;horizontalStack=0;resizeParent=1;resizeParentMax=0;resizeLast=0;collapsible=1;marginBottom=0;align=center;fontSize=14;" vertex="1" parent="1">
          <mxGeometry x="764" y="989.75" width="160" height="146" as="geometry" />
        </mxCell>
        <mxCell id="KJkxDrLsRBGmN8-yk9LA-41" value="CustomerID" style="text;strokeColor=none;fillColor=none;spacingLeft=4;spacingRight=4;overflow=hidden;rotatable=0;points=[[0,0.5],[1,0.5]];portConstraint=eastwest;fontSize=12;whiteSpace=wrap;html=1;" vertex="1" parent="KJkxDrLsRBGmN8-yk9LA-40">
          <mxGeometry y="26" width="160" height="30" as="geometry" />
        </mxCell>
        <mxCell id="KJkxDrLsRBGmN8-yk9LA-42" value="SubscriptID" style="text;strokeColor=none;fillColor=none;spacingLeft=4;spacingRight=4;overflow=hidden;rotatable=0;points=[[0,0.5],[1,0.5]];portConstraint=eastwest;fontSize=12;whiteSpace=wrap;html=1;" vertex="1" parent="KJkxDrLsRBGmN8-yk9LA-40">
          <mxGeometry y="56" width="160" height="30" as="geometry" />
        </mxCell>
        <mxCell id="KJkxDrLsRBGmN8-yk9LA-43" value="StartDato" style="text;strokeColor=none;fillColor=none;spacingLeft=4;spacingRight=4;overflow=hidden;rotatable=0;points=[[0,0.5],[1,0.5]];portConstraint=eastwest;fontSize=12;whiteSpace=wrap;html=1;" vertex="1" parent="KJkxDrLsRBGmN8-yk9LA-40">
          <mxGeometry y="86" width="160" height="30" as="geometry" />
        </mxCell>
        <mxCell id="KJkxDrLsRBGmN8-yk9LA-49" value="SlutDato" style="text;strokeColor=none;fillColor=none;spacingLeft=4;spacingRight=4;overflow=hidden;rotatable=0;points=[[0,0.5],[1,0.5]];portConstraint=eastwest;fontSize=12;whiteSpace=wrap;html=1;" vertex="1" parent="KJkxDrLsRBGmN8-yk9LA-40">
          <mxGeometry y="116" width="160" height="30" as="geometry" />
        </mxCell>
        <mxCell id="KJkxDrLsRBGmN8-yk9LA-51" style="edgeStyle=orthogonalEdgeStyle;rounded=0;orthogonalLoop=1;jettySize=auto;html=1;entryX=0;entryY=0.5;entryDx=0;entryDy=0;" edge="1" parent="1" source="KJkxDrLsRBGmN8-yk9LA-33" target="KJkxDrLsRBGmN8-yk9LA-37">
          <mxGeometry relative="1" as="geometry" />
        </mxCell>
        <mxCell id="KJkxDrLsRBGmN8-yk9LA-53" style="edgeStyle=orthogonalEdgeStyle;rounded=0;orthogonalLoop=1;jettySize=auto;html=1;entryX=1;entryY=0.5;entryDx=0;entryDy=0;" edge="1" parent="1" source="KJkxDrLsRBGmN8-yk9LA-41" target="KJkxDrLsRBGmN8-yk9LA-33">
          <mxGeometry relative="1" as="geometry" />
        </mxCell>
        <mxCell id="KJkxDrLsRBGmN8-yk9LA-67" value="Missing Payment table" style="swimlane;fontStyle=0;childLayout=stackLayout;horizontal=1;startSize=26;horizontalStack=0;resizeParent=1;resizeParentMax=0;resizeLast=0;collapsible=1;marginBottom=0;align=center;fontSize=14;" vertex="1" parent="1">
          <mxGeometry x="810" y="800" width="160" height="116" as="geometry" />
        </mxCell>
        <mxCell id="KJkxDrLsRBGmN8-yk9LA-69" value="Item 2" style="text;strokeColor=none;fillColor=none;spacingLeft=4;spacingRight=4;overflow=hidden;rotatable=0;points=[[0,0.5],[1,0.5]];portConstraint=eastwest;fontSize=12;whiteSpace=wrap;html=1;" vertex="1" parent="KJkxDrLsRBGmN8-yk9LA-67">
          <mxGeometry y="26" width="160" height="30" as="geometry" />
        </mxCell>
        <mxCell id="KJkxDrLsRBGmN8-yk9LA-68" value="CustomerID" style="text;strokeColor=none;fillColor=none;spacingLeft=4;spacingRight=4;overflow=hidden;rotatable=0;points=[[0,0.5],[1,0.5]];portConstraint=eastwest;fontSize=12;whiteSpace=wrap;html=1;" vertex="1" parent="KJkxDrLsRBGmN8-yk9LA-67">
          <mxGeometry y="56" width="160" height="30" as="geometry" />
        </mxCell>
        <mxCell id="KJkxDrLsRBGmN8-yk9LA-70" value="Item 3" style="text;strokeColor=none;fillColor=none;spacingLeft=4;spacingRight=4;overflow=hidden;rotatable=0;points=[[0,0.5],[1,0.5]];portConstraint=eastwest;fontSize=12;whiteSpace=wrap;html=1;" vertex="1" parent="KJkxDrLsRBGmN8-yk9LA-67">
          <mxGeometry y="86" width="160" height="30" as="geometry" />
        </mxCell>
        <mxCell id="KJkxDrLsRBGmN8-yk9LA-71" value="woocommerce/woo sub" style="shape=image;verticalLabelPosition=bottom;labelBackgroundColor=default;verticalAlign=top;aspect=fixed;imageAspect=0;image=data:image/png,iVBORw0KGgoAAAANSUhEUgAAAOAAAABaCAYAAAChfFryAAAMTWlDQ1BJQ0MgUHJvZmlsZQAASImVVwdYU8kWnltSIQQIREBK6E0QqQGkhNBC7wiiEpIAocSYEFTs6OIKrhURwbKiqyCKHRCxoa66sih217JYUFlZF9fFrrwJAXTZV7433zd3/vvPmX/OOXfm3jsA0Lv4UmkeqglAvqRAFhcSwJqUksoi9QAMaAAyQIELXyCXcmJiIgAsw+3fy+sbAFG2Vx2UWv/s/69FSyiSCwBAYiDOEMoF+RAfAgBvFUhlBQAQpZA3n1kgVeJyiHVk0EGIa5U4S4VblThDhS8P2iTEcSF+DABZnc+XZQGg0Qd5VqEgC+rQYbTASSIUSyD2h9g3P3+6EOKFENtAGzgnXanPzvhKJ+tvmhkjmnx+1ghWxTJYyIFiuTSPP/v/TMf/Lvl5iuE5rGFVz5aFxiljhnl7nDs9XInVIX4ryYiKhlgbABQXCwftlZiZrQhNVNmjNgI5F+YMMCGeKM+L5w3xcUJ+YDjEhhBnSvKiIoZsijPFwUobmD+0UlzAS4BYD+JakTwofsjmpGx63PC8NzJlXM4Q/4wvG/RBqf9ZkZvIUelj2tki3pA+5liUnZAMMRXiwEJxUhTEGhBHyXPjw4ds0oqyuVHDNjJFnDIWC4hlIklIgEofq8iUBccN2e/Klw/Hjp3MFvOihvCVguyEUFWusMcC/qD/MBasTyThJA7riOSTIoZjEYoCg1Sx42SRJDFexeN60oKAONVY3E6aFzNkjweI8kKUvBnECfLC+OGxhQVwcar08RJpQUyCyk+8KocfFqPyB98HIgAXBAIWUMCaAaaDHCDu6G3qhXeqnmDABzKQBUTAYYgZHpE82COB13hQBH6HSATkI+MCBntFoBDyn0axSk48wqmuDiBzqE+pkgueQJwPwkEevFcMKklGPEgCjyEj/odHfFgFMIY8WJX9/54fZr8wHMhEDDGK4RlZ9GFLYhAxkBhKDCba4ga4L+6NR8CrP6zOOBv3HI7jiz3hCaGT8JBwndBFuD1NXCwb5WUk6IL6wUP5yfg6P7gV1HTDA3AfqA6VcSZuABxwVzgPB/eDM7tBljvktzIrrFHaf4vgqyc0ZEdxoqCUMRR/is3okRp2Gm4jKspcf50fla8ZI/nmjvSMnp/7VfaFsA0fbYl9ix3EzmGnsAtYK9YEWNgJrBlrx44p8ciKezy44oZnixv0JxfqjF4zX56sMpNyp3qnHqePqr4C0awC5WbkTpfOlomzsgtYHPjFELF4EoHjOJazk7MbAMrvj+r19ip28LuCMNu/cIt/BcDnxMDAwNEvXNgJAPZ7wFfCkS+cDRt+WtQAOH9EoJAVqjhceSHANwcd7j59YAzMgQ2Mxxm4A2/gD4JAGIgGCSAFTIXeZ8N1LgMzwVywCJSAMrAKrANVYAvYBmrBHnAANIFWcAr8CC6Cy+A6uANXTzd4DvrAa/ABQRASQkMYiD5iglgi9ogzwkZ8kSAkAolDUpB0JAuRIApkLrIYKUPWIFXIVqQO2Y8cQU4hF5BO5DbyAOlB/kTeoxiqjuqgRqgVOh5loxw0HE1Ap6BZ6Ay0CF2CrkAr0Rp0N9qInkIvotfRLvQ52o8BTA1jYqaYA8bGuFg0loplYjJsPlaKVWA1WAPWAp/zVawL68Xe4UScgbNwB7iCQ/FEXIDPwOfjy/EqvBZvxM/gV/EHeB/+mUAjGBLsCV4EHmESIYswk1BCqCDsIBwmnIV7qZvwmkgkMonWRA+4F1OIOcQ5xOXETcS9xJPETuIjYj+JRNIn2ZN8SNEkPqmAVELaQNpNOkG6QuomvSWrkU3IzuRgcipZQi4mV5B3kY+Tr5Cfkj9QNCmWFC9KNEVImU1ZSdlOaaFconRTPlC1qNZUH2oCNYe6iFpJbaCepd6lvlJTUzNT81SLVROrLVSrVNundl7tgdo7dW11O3Wuepq6Qn2F+k71k+q31V/RaDQrmj8tlVZAW0Gro52m3ae91WBoOGrwNIQaCzSqNRo1rmi8oFPolnQOfSq9iF5BP0i/RO/VpGhaaXI1+ZrzNas1j2je1OzXYmhN0IrWytdarrVL64LWM22StpV2kLZQe4n2Nu3T2o8YGMOcwWUIGIsZ2xlnGd06RB1rHZ5Ojk6Zzh6dDp0+XW1dV90k3Vm61brHdLuYGNOKyWPmMVcyDzBvMN+PMRrDGSMas2xMw5grY97ojdXz1xPplert1buu916fpR+kn6u/Wr9J/54BbmBnEGsw02CzwVmD3rE6Y73HCsaWjj0w9hdD1NDOMM5wjuE2w3bDfiNjoxAjqdEGo9NGvcZMY3/jHONy4+PGPSYME18TsUm5yQmT31i6LA4rj1XJOsPqMzU0DTVVmG417TD9YGZtlmhWbLbX7J451Zxtnmlebt5m3mdhYhFpMdei3uIXS4ol2zLbcr3lOcs3VtZWyVZLrZqsnlnrWfOsi6zrre/a0Gz8bGbY1NhcsyXasm1zbTfZXrZD7dzssu2q7S7Zo/bu9mL7Tfad4wjjPMdJxtWMu+mg7sBxKHSod3jgyHSMcCx2bHJ8Md5ifOr41ePPjf/s5OaU57Td6c4E7QlhE4ontEz409nOWeBc7XzNheYS7LLApdnlpau9q8h1s+stN4ZbpNtStza3T+4e7jL3BvceDwuPdI+NHjfZOuwY9nL2eU+CZ4DnAs9Wz3de7l4FXge8/vB28M713uX9bKL1RNHE7RMf+Zj58H22+nT5snzTfb/37fIz9eP71fg99Df3F/rv8H/KseXkcHZzXgQ4BcgCDge84Xpx53FPBmKBIYGlgR1B2kGJQVVB94PNgrOC64P7QtxC5oScDCWEhoeuDr3JM+IJeHW8vjCPsHlhZ8LVw+PDq8IfRthFyCJaItHIsMi1kXejLKMkUU3RIJoXvTb6Xox1zIyYo7HE2JjY6tgncRPi5sadi2fET4vfFf86ISBhZcKdRJtERWJbEj0pLaku6U1yYPKa5K5J4yfNm3QxxSBFnNKcSkpNSt2R2j85aPK6yd1pbmklaTemWE+ZNeXCVIOpeVOPTaNP4087mE5IT07flf6RH82v4fdn8DI2ZvQJuIL1gudCf2G5sEfkI1ojeprpk7km81mWT9barJ5sv+yK7F4xV1wlfpkTmrMl501udO7O3IG85Ly9+eT89PwjEm1JruTMdOPps6Z3Su2lJdKuGV4z1s3ok4XLdsgR+RR5c4EO/NFvV9govlE8KPQtrC58OzNp5sFZWrMks9pn281eNvtpUXDRD3PwOYI5bXNN5y6a+2AeZ97W+cj8jPltC8wXLFnQvTBkYe0i6qLcRT8XOxWvKf5rcfLiliVGSxYuefRNyDf1JRolspKbS72XbvkW/1b8bccyl2Ubln0uFZb+VOZUVlH2cblg+U/fTfiu8ruBFZkrOla6r9y8irhKsurGar/VtWu01hStebQ2cm1jOau8tPyvddPWXahwrdiynrpesb6rMqKyeYPFhlUbPlZlV12vDqjeu9Fw47KNbzYJN13Z7L+5YYvRlrIt778Xf39ra8jWxhqrmoptxG2F255sT9p+7gf2D3U7DHaU7fi0U7Kzqzau9kydR13dLsNdK+vRekV9z+603Zf3BO5pbnBo2LqXubdsH9in2Pfb/vT9Nw6EH2g7yD7YcMjy0MbDjMOljUjj7Ma+puymruaU5s4jYUfaWrxbDh91PLqz1bS1+pjusZXHqceXHB84UXSi/6T0ZO+prFOP2qa13Tk96fS1M7FnOs6Gnz3/Y/CPp89xzp0473O+9YLXhSM/sX9quuh+sbHdrf3wz24/H+5w72i85HGp+bLn5ZbOiZ3Hr/hdOXU18OqP13jXLl6Put55I/HGrZtpN7tuCW89u513++Uvhb98uLPwLuFu6T3NexX3De/X/Gr7694u965jDwIftD+Mf3jnkeDR88fyxx+7lzyhPal4avK07pnzs9ae4J7Lv03+rfu59PmH3pLftX7f+MLmxaE//P9o75vU1/1S9nLgz+Wv9F/t/Mv1r7b+mP77r/Nff3hT+lb/be079rtz75PfP/0w8yPpY+Un208tn8M/3x3IHxiQ8mX8wV8BDCiPNpkA/LkTAFoKAAx4bqROVp0PBwuiOtMOIvCfsOoMOVjcAWiA//SxvfDv5iYA+7YDYAX16WkAxNAASPAEqIvLSB0+yw2eO5WFCM8G38d8ysjPAP+mqM6kX/k9ugVKVVcwuv0Xd2qDAuKWvdsAAACKZVhJZk1NACoAAAAIAAQBGgAFAAAAAQAAAD4BGwAFAAAAAQAAAEYBKAADAAAAAQACAACHaQAEAAAAAQAAAE4AAAAAAAAAkAAAAAEAAACQAAAAAQADkoYABwAAABIAAAB4oAIABAAAAAEAAADgoAMABAAAAAEAAABaAAAAAEFTQ0lJAAAAU2NyZWVuc2hvdF3UYGEAAAAJcEhZcwAAFiUAABYlAUlSJPAAAAHVaVRYdFhNTDpjb20uYWRvYmUueG1wAAAAAAA8eDp4bXBtZXRhIHhtbG5zOng9ImFkb2JlOm5zOm1ldGEvIiB4OnhtcHRrPSJYTVAgQ29yZSA2LjAuMCI+CiAgIDxyZGY6UkRGIHhtbG5zOnJkZj0iaHR0cDovL3d3dy53My5vcmcvMTk5OS8wMi8yMi1yZGYtc3ludGF4LW5zIyI+CiAgICAgIDxyZGY6RGVzY3JpcHRpb24gcmRmOmFib3V0PSIiCiAgICAgICAgICAgIHhtbG5zOmV4aWY9Imh0dHA6Ly9ucy5hZG9iZS5jb20vZXhpZi8xLjAvIj4KICAgICAgICAgPGV4aWY6UGl4ZWxZRGltZW5zaW9uPjkwPC9leGlmOlBpeGVsWURpbWVuc2lvbj4KICAgICAgICAgPGV4aWY6UGl4ZWxYRGltZW5zaW9uPjIyNDwvZXhpZjpQaXhlbFhEaW1lbnNpb24+CiAgICAgICAgIDxleGlmOlVzZXJDb21tZW50PlNjcmVlbnNob3Q8L2V4aWY6VXNlckNvbW1lbnQ+CiAgICAgIDwvcmRmOkRlc2NyaXB0aW9uPgogICA8L3JkZjpSREY+CjwveDp4bXBtZXRhPgq4IU54AAAAHGlET1QAAAACAAAAAAAAAC0AAAAoAAAALQAAAC0AAATyeiD+iAAABL5JREFUeAHsW4mNFDEQXD4hsoAIIAQQeYBIgQQQCZACgjwQhAARQBYI8ffd9clq2R7bXXbPjmok8OzsbFdXucqePY4bf/8fJx5UgAqEKHCDAQzRnaBU4EIBBpBGoAKBCjCAgeITmgowgPQAFQhUgAEMFJ/QVIABpAeoQKACDGCg+ISmAgwgPUAFAhVgAAPFJzQVYADpASoQqAADGCg+oakAA0gPUIFABRjAQPEJTQUYQHqACgQqwAAGik9oKsAA0gNUIFABBjBQfEJTAQaQHqACgQowgIHiE5oKMID0ABUIVGBaAL99+XNBS8dRjvcf3jzJn5mH9qij4uk4A1uxdFSMlXwVM+1BOeuo9+x9TDmk59K3ctFxT1zgARTyH9/9PFkRvKRFvAePbp0eP7vtLXX9+U/vf52+fv5d7fXJ8ztQzFZ90Hxbca/FuToR/nIgdb8q7RrUXyNeE06i7x4CCQ2gGFoEmXkgAiGT9/blj+Y2EZgCJphqnFZwD/Zo6Eq9SS9yRIaxZdEs9Z+77tE3V6/3GjSAr55+78Ufut8jWm/4tEEPptQYCd8oNjp42oeOEUFcwSliYYEFcMXupwaQ8fWHe+nLpvPR8GnxEUz5LEKbF2/ubj4yzTap6qCjd1HSOrXxiJxSvrAAelb4tKHW85HJ9wahJQS2fy+m1tvi611cFGdkHNGlBQelXQtWes+W1um93nNYAFc9fiph+QItE996ICazF1N6Q+lSMwWCW6uOpftq/ZU+U7u+B06zFpaUNyyAq3fA3jAggtCLiTRRyeBIjNQYI+elHntrrfZSrb/ZITzbAIpord/JkCZtxZT+EKGXOnLkjIDkdYni/9sbwj1yymnvV+qyAiyAEd9BWsOADEIrJtpIFhddH2UoqTNq2L1y6n3y6dESFkABXf3oYE2ZI46e1BZM6QMZerurRCx2OW1r11p10hroedK6qHFWCKEBXG2MlklGBkEmswUTbSaLieaEMmlap9ew58DJLoQp39FzaAC1CbQBta4drTHt+zP6WI1pJ30GJ6sb6nXro+g5cdqa/17tpgRQm5AdUQ4d9bqMW7+Dmd5bOt8SY8aquoWJNJMNn+gwg1NJX+/11l3wnDjl5sSj09QA1hpDGLUWBkT9XP8rMe0OMotTjifqmuVg6x6Rk+VYe33YAM5aVWsBRGLmVlpkfTWF7FJyyP80mfGL9Fu74ExOwiv39CXXPccWp57ahwzgzFW1FEA0psVB/oBLDCQB1/BZw8zmonhInJWcGMCrGbQm1Ymdsapq7RWYud0PZdZcbeVmRxRm6TEUVb+HE+qfykqcrIZbrw+3A6ImtSRcLoBIzNLqilhUeoyq/BHcZnIaCQIihCO4qmk6Hi6ACKOmAtnzXACRmKWQeDFKdS2/3GuEYa1uiGCPckI8zpcWlZx+tWuHCiBiUmtiyXszjKSYJUMhDONZsWfgI+bKzoXq2DJG42uPhwkgQlAVpTbaSffuTCmWra3vebmVgq31W0bvLmgXgD1w8s5dab5a9NR7GEBVonFMRfeaKIWshcSLU6ud9lA7RwfQW2+PnGr6ld47RAC9Bi2Jk7ueBtC7gmr9re8TXn4Is3ofQ20P3gDaHVW17Bn30MM/AAAA//8JuGX3AAAE0klEQVTtXIuNFTEMfMdHiC6gAigBRB8gWqABRAO0gKAPBCVABdAFQnzP72TJipKsE9sb77MjHcntZmPPjCfZe3fi6t91Oy1onz/8Pn16/0sU+c3H++fnNdbiJmIR8+mLu6cnz+80U3j36ufp+9e/zftbN16+vXd68OjW1rTufYgPecy2EuPrZz9mlzo/hzpIFpHWjQavV0c3oJTEUQFReGkBYdyyMPE67S/RgFJMqAPlaXQsrZ004PUJKCVxVDQQXjMmp5CkxapRKFLM5UZzCZg0eD30CQiizr7Gzj47+1zN6GVR1ubANe3ib8XpXdfOwYMBpTlwNs8ep3AvrAGBvJnXSE0DcgWUFj/8/Ae7taRJi7U8LaTrcTevHuYZ/el6XP3oM+X40AYswXC/R/GkAnDj1eZhDrV75TXpByCwXmmAMkbve+kGUIuvsabEAKvjI98hDYjCrTLgiPlAKA0DSk5B6WkFGJBzGEPTwDTK403km3+l2kv4pHmEMyAVTSoCJXJkXBYj51kNE1DsnJgwR+OkaMXV4H/mZLfExOUV54UyYFkIGgWARHL7MgfucxoGhFgj8TUKtRdzb0xw6sKHdtBL28wmWouZBqyxYnhtVjiNVzaEBa9PDx/fbv7yX7NQIWYLsyYm2FgAF3zVmtZmgmu3MOF9bh/GgLWdf+8TsJYDVyiYZ5EvmvHblz/nVDROB4oJ1m99AqtpwDImbDBWmKQ60lzDGLC2Y1kUNCWXjjVE097FaX5W4y3cWq+hVvnX1q3VUm0e51oIA7aKYE8Daom2Z86cAurNafFOn7E6BWkMzTEH00i8EAZsFf9exawp2pEKlov7SKdgq5ZGTEfnXrwBe0WwlwG1RTtCwfZ4pwUI46NsKiOYSoyt75cZcC/Se8W/RyFbiLYXd62i4Vzv8V573vvPt70Pk2p4uNcu2oBbxW9twK34XJFq8zwX7MwvxwGjZ0yjG0pNs9q1ZQaEZCxfATk7lrXgVqKhkNb5Y5yRXrrpWG+KI1hw7uyGgs/3+qUGtCSbQ5rlq5y0EHui0XueTKiF2bIuKHecsRamVqylBrQywAhpFqfwSPyWMCPXPZhQG7MHTJxNfESn2tylBoSEtHc7zqsnJcJiE7B+9aT543hVwQLfYD7otdtKTGC+PdpyA2oaYNR8SLDWJjAbH/OQ9sAlfM3+LwGj8ffAu7cJtU/yLU6XGxAS1DChlDjpq+gexbglJt6HooVmZUTAanXqIYaytzbiCkyA0YUBIRHcuaEfaUBc7y/7R9aaFVlq/pEcR+YCHviD5FFOWzFWFSnNZ1YjugYdr8bkxoBICrdoLInjiuzVeMgl7QETtNFT0ZJnmt/MeAYT4IG29wnewufOgDRR2Lnp7o3kYU/nWo1pDjQuHVvFtlwXecUeYpWYyu8t85GuTXHQMcVAx9J4Ws+7NqAWyFwnGfDKQBrQqzKZVwgG0oAhZE6QXhlIA3pVJvMKwUAaMITMCdIrA2lAr8pkXiEYSAOGkDlBemUgDehVmcwrBANpwBAyJ0ivDKQBvSqTeYVgIA0YQuYE6ZWBNKBXZTKvEAykAUPInCC9MpAG9KpM5hWCgTRgCJkTpFcG0oBelcm8QjCQBgwhc4L0ykAa0KsymVcIBtKAIWROkF4Z+A+vUVVci4OD5gAAAABJRU5ErkJggg==;" vertex="1" parent="1">
          <mxGeometry x="320" y="344.95" width="50" height="20.09" as="geometry" />
        </mxCell>
        <mxCell id="KJkxDrLsRBGmN8-yk9LA-73" value="" style="shape=curlyBracket;whiteSpace=wrap;html=1;rounded=1;labelPosition=left;verticalLabelPosition=middle;align=right;verticalAlign=middle;" vertex="1" parent="1">
          <mxGeometry x="430" y="110" width="20" height="490" as="geometry" />
        </mxCell>
      </root>
    </mxGraphModel>
  </diagram>
</mxfile>
